<svg xmlns="http://www.w3.org/2000/svg" xmlns:xlink="http://www.w3.org/1999/xlink" viewBox="0 0 3840 2160"><defs><style>.cls-1{fill:url(#linear-gradient);}.cls-2{fill:none;}.cls-3{isolation:isolate;}.cls-4{fill:url(#Gradiente_sem_nome_266);}.cls-5{fill:url(#Gradiente_sem_nome_266-2);}.cls-6{fill:#f7f7f7;}.cls-7{clip-path:url(#clip-path);}.cls-8{fill:url(#linear-gradient-2);}.cls-9{fill:#beb8f2;}.cls-10,.cls-102,.cls-11,.cls-114{fill:#6165d7;}.cls-10{opacity:0.19;}.cls-10,.cls-102,.cls-11,.cls-112,.cls-38,.cls-40,.cls-46,.cls-51,.cls-79,.cls-88,.cls-90{mix-blend-mode:multiply;}.cls-11{opacity:0.32;}.cls-12{fill:url(#linear-gradient-3);}.cls-13{fill:url(#linear-gradient-4);}.cls-14{fill:url(#linear-gradient-5);}.cls-15{clip-path:url(#clip-path-2);}.cls-16{fill:#fcfdfe;}.cls-17,.cls-79{fill:#d8dee8;}.cls-18{fill:#f4f7fa;}.cls-19,.cls-96{fill:#fff;}.cls-20{fill:#c281e8;}.cls-21{fill:url(#linear-gradient-6);}.cls-22{fill:#f8924e;}.cls-23{fill:#ffc244;}.cls-24{fill:#9c73f4;}.cls-25{fill:url(#linear-gradient-7);}.cls-26{fill:#a67ff7;}.cls-27{fill:url(#linear-gradient-8);}.cls-28{fill:url(#linear-gradient-9);}.cls-29{clip-path:url(#clip-path-3);}.cls-30{fill:url(#linear-gradient-10);}.cls-31{fill:url(#linear-gradient-11);}.cls-32{fill:url(#linear-gradient-12);}.cls-33{clip-path:url(#clip-path-4);}.cls-34{fill:url(#linear-gradient-13);}.cls-35{clip-path:url(#clip-path-5);}.cls-36{fill:url(#linear-gradient-14);}.cls-37{fill:url(#linear-gradient-15);}.cls-38{opacity:0.35;}.cls-39{fill:url(#linear-gradient-16);}.cls-40{opacity:0.13;}.cls-41{fill:url(#linear-gradient-17);}.cls-42{fill:#ffa6a4;}.cls-43{fill:url(#linear-gradient-18);}.cls-44{fill:url(#linear-gradient-19);}.cls-45{fill:url(#linear-gradient-20);}.cls-112,.cls-46{opacity:0.24;}.cls-47{fill:#552d63;}.cls-48{fill:url(#linear-gradient-21);}.cls-49{fill:url(#linear-gradient-22);}.cls-50{fill:url(#linear-gradient-23);}.cls-51{opacity:0.2;}.cls-52{fill:url(#linear-gradient-24);}.cls-53{fill:url(#linear-gradient-25);}.cls-54{fill:url(#linear-gradient-26);}.cls-55{fill:#9f73f8;}.cls-56{fill:#ae87f9;}.cls-57{fill:url(#linear-gradient-27);}.cls-58{fill:url(#linear-gradient-28);}.cls-59{fill:url(#linear-gradient-29);}.cls-60{fill:url(#linear-gradient-30);}.cls-61{fill:url(#linear-gradient-31);}.cls-62{fill:#26264f;}.cls-63{fill:#444b8c;}.cls-64{fill:url(#linear-gradient-32);}.cls-65{fill:#1f1f44;}.cls-66{fill:url(#linear-gradient-33);}.cls-67{fill:url(#linear-gradient-34);}.cls-68{fill:url(#linear-gradient-35);}.cls-69{fill:url(#linear-gradient-36);}.cls-70{fill:url(#linear-gradient-37);}.cls-71{fill:url(#linear-gradient-38);}.cls-72{clip-path:url(#clip-path-6);}.cls-73{fill:url(#linear-gradient-39);}.cls-74{clip-path:url(#clip-path-7);}.cls-75{fill:#5a2f71;}.cls-76{fill:url(#linear-gradient-40);}.cls-77{fill:url(#linear-gradient-41);}.cls-78{clip-path:url(#clip-path-8);}.cls-79{opacity:0.47;}.cls-80{fill:url(#linear-gradient-42);}.cls-81{fill:url(#linear-gradient-43);}.cls-82{fill:url(#linear-gradient-44);}.cls-83{fill:url(#linear-gradient-45);}.cls-84{fill:url(#linear-gradient-46);}.cls-85{fill:url(#linear-gradient-47);}.cls-86{fill:url(#linear-gradient-48);}.cls-87{fill:url(#linear-gradient-49);}.cls-88,.cls-90{opacity:0.25;}.cls-88{fill:url(#linear-gradient-50);}.cls-89{fill:url(#linear-gradient-51);}.cls-90{fill:url(#linear-gradient-52);}.cls-91{fill:url(#linear-gradient-53);}.cls-92{fill:url(#linear-gradient-54);}.cls-93{fill:url(#linear-gradient-55);}.cls-94{fill:url(#linear-gradient-56);}.cls-95{mask:url(#mask);}.cls-96{opacity:0.82;}.cls-97{fill:#6567d9;}.cls-98{fill:url(#linear-gradient-57);}.cls-99{fill:url(#linear-gradient-58);}.cls-100{fill:#726bdf;}.cls-101{fill:url(#linear-gradient-59);}.cls-102{opacity:0.3;}.cls-103{fill:url(#linear-gradient-60);}.cls-104{fill:url(#linear-gradient-61);}.cls-105{fill:url(#linear-gradient-62);}.cls-106{fill:url(#linear-gradient-63);}.cls-107{fill:url(#linear-gradient-64);}.cls-108{fill:url(#linear-gradient-65);}.cls-109{fill:url(#linear-gradient-66);}.cls-110{fill:url(#linear-gradient-67);}.cls-111{fill:url(#linear-gradient-68);}.cls-112{fill:#f8944e;}.cls-113{fill:url(#linear-gradient-69);}.cls-115{fill:url(#linear-gradient-70);}.cls-116{fill:url(#linear-gradient-71);}.cls-117{fill:#4c53a5;}.cls-118{fill:url(#linear-gradient-72);}.cls-119{fill:url(#linear-gradient-73);}.cls-120{fill:url(#linear-gradient-74);}.cls-121{fill:url(#linear-gradient-75);}.cls-122{fill:url(#linear-gradient-76);}.cls-123{fill:url(#linear-gradient-77);}</style><linearGradient id="linear-gradient" x1="2288.92" y1="1493.16" x2="2288.92" y2="1095.4" gradientUnits="userSpaceOnUse"><stop offset="0.3"/><stop offset="0.36" stop-color="#070707"/><stop offset="0.45" stop-color="#1b1b1b"/><stop offset="0.56" stop-color="#3b3b3b"/><stop offset="0.68" stop-color="#686868"/><stop offset="0.81" stop-color="#a2a2a2"/><stop offset="0.95" stop-color="#e7e7e7"/><stop offset="1" stop-color="#fff"/></linearGradient><linearGradient id="Gradiente_sem_nome_266" x1="-10.68" y1="1080" x2="3840" y2="1080" gradientUnits="userSpaceOnUse"><stop offset="0" stop-color="#60398e"/><stop offset="0.73" stop-color="#9e74f3"/><stop offset="1" stop-color="#ec73aa"/></linearGradient><linearGradient id="Gradiente_sem_nome_266-2" x1="-13" y1="1193.72" y2="1193.72" xlink:href="#Gradiente_sem_nome_266"/><clipPath id="clip-path"><path class="cls-2" d="M3255.11,1139.25q-47.73-1.7-95.57-5.58c-.46.52-18.26-66.4,10.12-105.67,56.26-76.22,6.33-133.5-10-168.91-25.4-49.67-22.3-113.8,36.11-108.32,56.76,4,52.52-111.47,33.15-198.64-13-42,21.79-98.64,60.91-115,39.82-17.77,84,4.68,106.11,88.88,30.09,97-35.63,164.78-56.91,217.44-21,51.7,44.73,84.38.17,133.06-37.26,43-86.51,76.4-62,122.53C3302.09,1044.53,3301.7,1084.05,3255.11,1139.25Z"/></clipPath><linearGradient id="linear-gradient-2" x1="2053.37" y1="188.45" x2="1827.2" y2="831.26" gradientTransform="matrix(-0.92, -0.4, -0.4, 0.92, 5249.41, 1097.73)" gradientUnits="userSpaceOnUse"><stop offset="0" stop-color="#aa80f9"/><stop offset="1" stop-color="#6165d7"/></linearGradient><linearGradient id="linear-gradient-3" x1="3294.23" y1="1128.86" x2="3438.97" y2="1177.52" gradientUnits="userSpaceOnUse"><stop offset="0" stop-color="#ab316d"/><stop offset="1" stop-color="#792d3d"/></linearGradient><linearGradient id="linear-gradient-4" x1="3279.5" y1="1063.57" x2="3393.08" y2="1063.57" gradientUnits="userSpaceOnUse"><stop offset="0" stop-color="#ffc444"/><stop offset="1" stop-color="#f36f56"/></linearGradient><linearGradient id="linear-gradient-5" x1="3243.32" y1="831.53" x2="3519.88" y2="831.53" gradientUnits="userSpaceOnUse"><stop offset="0" stop-color="#e38ddd"/><stop offset="1" stop-color="#9571f6"/></linearGradient><clipPath id="clip-path-2"><path class="cls-2" d="M3396,1065.56,3292.21,1100c-10.92-12.7-27.63-37.25-8.13-51.14,27.13-19.3,9.79-72.66-4.88-88.63-18.16-19.76-59.5-66.66-18-97.16,34.51-25.4,62-34.74,47.74-85.46s2.37-91,48.54-103.44c48.59-13.06,66-89.58,112.17-81.67,80.39,13.78,56.27,144.44-15.42,204.31s-14.25,73.5,1.85,113.49c22,54.6-57.29,68.31-69.72,96.93C3376.57,1029.65,3387.51,1052.32,3396,1065.56Z"/></clipPath><linearGradient id="linear-gradient-6" x1="2514.51" y1="736.71" x2="2636.9" y2="736.71" gradientUnits="userSpaceOnUse"><stop offset="0" stop-color="#ff9085"/><stop offset="1" stop-color="#fb6fbb"/></linearGradient><linearGradient id="linear-gradient-7" x1="2921.49" y1="742.16" x2="3165.08" y2="742.16" xlink:href="#linear-gradient-6"/><linearGradient id="linear-gradient-8" x1="2079.34" y1="1164.9" x2="2182.82" y2="1164.9" xlink:href="#linear-gradient-6"/><linearGradient id="linear-gradient-9" x1="2068.8" y1="854.6" x2="2126.86" y2="854.6" xlink:href="#linear-gradient-6"/><clipPath id="clip-path-3"><path class="cls-2" d="M2238.43,738.85q1,31,2.06,62l156.09,1q-1.29-39.4-2.58-78.85c-41.92-20-65.11-18.13-78.59-12.55-15.16,6.28-23.63,19.61-49.06,25.72A103.2,103.2,0,0,1,2238.43,738.85Z"/></clipPath><linearGradient id="linear-gradient-10" x1="2219.42" y1="719.38" x2="2357.24" y2="841.63" xlink:href="#linear-gradient-6"/><linearGradient id="linear-gradient-11" x1="2251.34" y1="685.93" x2="2387.88" y2="807.05" xlink:href="#linear-gradient-6"/><linearGradient id="linear-gradient-12" x1="2272" y1="664.9" x2="2407.64" y2="785.21" xlink:href="#linear-gradient-6"/><clipPath id="clip-path-4"><path class="cls-2" d="M2905.19,1046.62c14.58-10.26,26.43-12.29,34.8-12.09,10.59.24,14.1,4,25.51,2.58,11.64-1.46,12.4-5.94,25.38-8a69.72,69.72,0,0,1,25.16.88c15,3.28,15.74,8.74,24.91,8.37,8.46-.33,8.94-5,25.47-12.39,7.79-3.48,15.06-6.73,24.79-7.58,10.6-.93,11.45,2.09,24.94,1.91a102.21,102.21,0,0,0,24.31-3.48c14.25-3.55,16-6.73,25.64-8.18,5.72-.86,14.44-1.14,25.81,2.57q1.1,36.44,2.18,72.87l-287.16,7.51Z"/></clipPath><linearGradient id="linear-gradient-13" x1="2512.94" y1="1020.87" x2="2803.25" y2="1020.87" xlink:href="#linear-gradient-6"/><clipPath id="clip-path-5"><path class="cls-2" d="M1853.75,1375.1h102.33s19.26-52.49-5.82-89.54c-51.16-75.58,18.61-115.11,45.35-136,40.33-31.57,62.11-77,2.81-96.74s.29-111.67,72.77-153.26c70.93-40.7,39.52-190.27-122.09-116.28-96.51,44.18-81.4,146.51-86,200s-84.2,57.91-57,123.25c23.25,55.82,67.44,96.51,33.72,134.89S1802.59,1322.77,1853.75,1375.1Z"/></clipPath><linearGradient id="linear-gradient-14" x1="2034.84" y1="779.54" x2="1831.13" y2="1358.5" gradientTransform="matrix(1, 0, 0, 1, 0, 0)" xlink:href="#linear-gradient-2"/><linearGradient id="linear-gradient-15" x1="2014.35" y1="1247.95" x2="2422.31" y2="2119.44" xlink:href="#linear-gradient-6"/><linearGradient id="linear-gradient-16" x1="2061.18" y1="1226.03" x2="2469.14" y2="2097.51" xlink:href="#linear-gradient-6"/><linearGradient id="linear-gradient-17" x1="2014.35" y1="1247.95" x2="2422.31" y2="2119.44" xlink:href="#linear-gradient-6"/><linearGradient id="linear-gradient-18" x1="-379.93" y1="1782.63" x2="-295.2" y2="1782.63" gradientTransform="matrix(0.66, -0.75, 0.75, 0.66, 1431.52, 171.13)" gradientUnits="userSpaceOnUse"><stop offset="0" stop-color="#40447e"/><stop offset="1" stop-color="#3c3b6b"/></linearGradient><linearGradient id="linear-gradient-19" x1="2638.06" y1="1294.35" x2="3319.93" y2="2001.96" gradientTransform="translate(-120.12 -124.63) rotate(5.62)" xlink:href="#linear-gradient-4"/><linearGradient id="linear-gradient-20" x1="1962.99" y1="1526.4" x2="2381.94" y2="1748.93" gradientTransform="translate(84.94 52.41) rotate(-3.5)" gradientUnits="userSpaceOnUse"><stop offset="0" stop-color="#311944"/><stop offset="1" stop-color="#6b3976"/></linearGradient><linearGradient id="linear-gradient-21" x1="1804.35" y1="1626.09" x2="2184.24" y2="1555.51" gradientTransform="translate(84.94 52.41) rotate(-3.5)" gradientUnits="userSpaceOnUse"><stop offset="0" stop-color="#311944"/><stop offset="1" stop-color="#893976"/></linearGradient><linearGradient id="linear-gradient-22" x1="2116.91" y1="1693.74" x2="2019.11" y2="1462.16" gradientTransform="translate(84.94 52.41) rotate(-3.5)" xlink:href="#linear-gradient-2"/><linearGradient id="linear-gradient-23" x1="1963.43" y1="1586.59" x2="1921.91" y2="1424.21" gradientTransform="translate(84.94 52.41) rotate(-3.5)" xlink:href="#linear-gradient-2"/><linearGradient id="linear-gradient-24" x1="1963.43" y1="1586.59" x2="1921.91" y2="1424.21" gradientTransform="translate(84.94 52.41) rotate(-3.5)" xlink:href="#linear-gradient-2"/><linearGradient id="linear-gradient-25" x1="1951.63" y1="1534.06" x2="2151.05" y2="1481.17" gradientTransform="translate(84.94 52.41) rotate(-3.5)" xlink:href="#linear-gradient-4"/><linearGradient id="linear-gradient-26" x1="1924.83" y1="1607.18" x2="1881.15" y2="1436.33" gradientTransform="translate(84.94 52.41) rotate(-3.5)" gradientUnits="userSpaceOnUse"><stop offset="0.28" stop-color="#aa80f9"/><stop offset="1" stop-color="#6165d7"/></linearGradient><linearGradient id="linear-gradient-27" x1="1912.14" y1="1411.92" x2="1916.07" y2="1307.21" gradientTransform="translate(84.94 52.41) rotate(-3.5)" xlink:href="#linear-gradient-4"/><linearGradient id="linear-gradient-28" x1="1890.3" y1="1376.29" x2="1929.72" y2="1264.52" xlink:href="#linear-gradient-20"/><linearGradient id="linear-gradient-29" x1="1917.66" y1="1309.89" x2="1915.16" y2="1511.46" gradientTransform="translate(84.94 52.41) rotate(-3.5)" xlink:href="#linear-gradient-4"/><linearGradient id="linear-gradient-30" x1="1875.64" y1="1373.76" x2="1924.08" y2="1265.06" xlink:href="#linear-gradient-20"/><linearGradient id="linear-gradient-31" x1="1880.36" y1="1372.57" x2="1919.51" y2="1261.58" xlink:href="#linear-gradient-20"/><linearGradient id="linear-gradient-32" x1="2012.16" y1="1520.27" x2="2148.46" y2="1520.27" gradientTransform="translate(84.94 52.41) rotate(-3.5)" xlink:href="#linear-gradient-18"/><linearGradient id="linear-gradient-33" x1="1179.9" y1="1831.41" x2="1247.6" y2="1831.41" gradientTransform="translate(617.05 234.75) rotate(-22.13)" xlink:href="#linear-gradient-18"/><linearGradient id="linear-gradient-34" x1="2212.02" y1="1541.38" x2="2893.92" y2="2249.02" gradientTransform="translate(84.94 52.41) rotate(-3.5)" xlink:href="#linear-gradient-4"/><linearGradient id="linear-gradient-35" x1="1929.05" y1="1589.77" x2="2241.36" y2="1559.33" xlink:href="#linear-gradient-20"/><linearGradient id="linear-gradient-36" x1="1808.97" y1="1650.95" x2="2188.87" y2="1580.37" xlink:href="#linear-gradient-21"/><linearGradient id="linear-gradient-37" x1="1944.48" y1="1601.44" x2="2174.31" y2="1552.32" xlink:href="#linear-gradient-20"/><linearGradient id="linear-gradient-38" x1="1902.66" y1="1450.07" x2="1490.96" y2="738.17" xlink:href="#linear-gradient-4"/><clipPath id="clip-path-6"><path class="cls-2" d="M1830.35,1680.45h104.44s41.66-88.27,5.6-114.38-11.19-99.72-2.49-140.5c23.63-110.65-98.56-116.47-79.57-261.1,5.05-38.46,27.55-110.13-.83-145.05-32.33-39.79-63.82-9.12-83.72-41.44-31.09-50.53-89.17-74.86-131.29-32.67-41.57,41.65-10.7,139.57,86.55,227.86,62.6,71.24,61.25,89.91,49.72,134.29-8.08,31.08-49.11,109.41-10.57,148s66.62,78.4,45.38,111.9C1781.24,1618.29,1830.35,1680.45,1830.35,1680.45Z"/></clipPath><linearGradient id="linear-gradient-39" x1="1669.1" y1="1313.6" x2="1897.97" y2="1690.37" xlink:href="#linear-gradient-5"/><clipPath id="clip-path-7"><path class="cls-2" d="M1810.12,1681.6h100.1c5.83-14.16,13.27-40.3-7.67-46.75-29.11-8.95-29.42-60.29-21.28-78.38,10.08-22.4,32.48-75-12.31-89.58-37.29-12.12-63.83-12.32-66.07-60.47s-28.27-78.39-72-75.87c-46,2.66-83.14-58.78-120.93-38.63-65.85,35.12-7.28,141.65,72.22,173s33.54,59.73,31.08,99.1c-3.36,53.75,69.42,42.83,88.46,64.1C1816.69,1644.81,1813.72,1667.64,1810.12,1681.6Z"/></clipPath><linearGradient id="linear-gradient-40" x1="2495.47" y1="805.04" x2="3016.73" y2="805.04" gradientUnits="userSpaceOnUse"><stop offset="0" stop-color="#e3e7ef"/><stop offset="1" stop-color="#fafbfd"/></linearGradient><linearGradient id="linear-gradient-41" x1="3285.88" y1="717.13" x2="3409.62" y2="717.13" gradientTransform="matrix(1, 0.06, -0.26, 1.01, -414.16, -152.58)" xlink:href="#linear-gradient-6"/><clipPath id="clip-path-8"><path class="cls-2" d="M2941.35,946.52,2613,929.3c-9.13-.48-14.93-7.86-12.93-16.48l54.64-235.54c2-8.48,10.83-14.59,19.78-13.66l321.87,33.65c7.84.82,12.76,7.89,11,15.81L2959,932.73C2957.23,940.77,2949.34,946.94,2941.35,946.52Z"/></clipPath><linearGradient id="linear-gradient-42" x1="2628.47" y1="783.11" x2="2605.9" y2="807.5" xlink:href="#linear-gradient-4"/><linearGradient id="linear-gradient-43" x1="2978.21" y1="829.7" x2="2944.18" y2="866.46" xlink:href="#linear-gradient-4"/><linearGradient id="linear-gradient-44" x1="2842.05" y1="744.56" x2="2989.45" y2="978.83" xlink:href="#linear-gradient-6"/><linearGradient id="linear-gradient-45" x1="2898.63" y1="1348.71" x2="2898.63" y2="1311.32" xlink:href="#linear-gradient-4"/><linearGradient id="linear-gradient-46" x1="2784.65" y1="1359.37" x2="2784.65" y2="1314.3" xlink:href="#linear-gradient-4"/><linearGradient id="linear-gradient-47" x1="1898.38" y1="630.88" x2="2076.53" y2="914.03" gradientTransform="translate(687.04 851.9) rotate(-19.17)" xlink:href="#linear-gradient-6"/><linearGradient id="linear-gradient-48" x1="2759.43" y1="1182.33" x2="2906.88" y2="1182.33" gradientTransform="matrix(1, 0, 0, 1, 0, 0)" xlink:href="#linear-gradient-21"/><linearGradient id="linear-gradient-49" x1="2754.75" y1="1072.41" x2="2860.98" y2="1250.84" gradientTransform="matrix(1, 0, 0, 1, 0, 0)" xlink:href="#linear-gradient-21"/><linearGradient id="linear-gradient-50" x1="2796.57" y1="1047.51" x2="2902.8" y2="1225.94" gradientTransform="matrix(1, 0, 0, 1, 0, 0)" xlink:href="#linear-gradient-21"/><linearGradient id="linear-gradient-51" x1="2712.51" y1="793.63" x2="2887.24" y2="1071.35" xlink:href="#linear-gradient-6"/><linearGradient id="linear-gradient-52" x1="2643.81" y1="776.84" x2="2846.49" y2="1099" xlink:href="#linear-gradient-6"/><linearGradient id="linear-gradient-53" x1="2861.46" y1="828.78" x2="2818.97" y2="897.5" xlink:href="#linear-gradient-4"/><linearGradient id="linear-gradient-54" x1="2834.43" y1="830.65" x2="2898.12" y2="830.65" gradientTransform="matrix(1, 0, 0, 1, 0, 0)" xlink:href="#linear-gradient-20"/><linearGradient id="linear-gradient-55" x1="2265.27" y1="741.39" x2="2224.16" y2="807.9" gradientTransform="translate(470.03 633.89) rotate(-13.66)" xlink:href="#linear-gradient-4"/><linearGradient id="linear-gradient-56" x1="2816.87" y1="838.6" x2="2853.53" y2="896.87" xlink:href="#linear-gradient-5"/><mask id="mask" x="1967.28" y="1095.4" width="643.29" height="397.77" maskUnits="userSpaceOnUse"><polygon class="cls-1" points="2207.08 1095.4 1967.28 1493.16 2610.57 1493.16 2382.2 1103.62 2207.08 1095.4"/></mask><linearGradient id="linear-gradient-57" x1="2213.12" y1="1023.76" x2="2351.79" y2="1139.55" xlink:href="#linear-gradient-5"/><linearGradient id="linear-gradient-58" x1="2201.75" y1="1037.37" x2="2340.41" y2="1153.17" xlink:href="#linear-gradient-5"/><linearGradient id="linear-gradient-59" x1="2253.99" y1="1040.52" x2="2329.64" y2="1040.52" gradientTransform="matrix(1, 0, 0, 1, 0, 0)" xlink:href="#linear-gradient-2"/><linearGradient id="linear-gradient-60" x1="3516.07" y1="1355.32" x2="3541.41" y2="1355.32" xlink:href="#linear-gradient-4"/><linearGradient id="linear-gradient-61" x1="3229.55" y1="1532.23" x2="3253.94" y2="1456.68" xlink:href="#linear-gradient-4"/><linearGradient id="linear-gradient-62" x1="3171.24" y1="1215.28" x2="3247.7" y2="1215.28" xlink:href="#linear-gradient-4"/><linearGradient id="linear-gradient-63" x1="3248.71" y1="1007.36" x2="3342.09" y2="1007.36" gradientUnits="userSpaceOnUse"><stop offset="0" stop-color="#6e1f3f"/><stop offset="1" stop-color="#792d3d"/></linearGradient><linearGradient id="linear-gradient-64" x1="3226.35" y1="1345.84" x2="3375.97" y2="1345.84" gradientTransform="matrix(1, 0, 0, 1, 0, 0)" xlink:href="#linear-gradient-21"/><linearGradient id="linear-gradient-65" x1="3300.08" y1="1284.43" x2="3415.59" y2="1735.14" gradientTransform="matrix(1, 0, 0, 1, 0, 0)" xlink:href="#linear-gradient-21"/><linearGradient id="linear-gradient-66" x1="3027.74" y1="1518.15" x2="3213.17" y2="1518.15" gradientTransform="translate(162.67 140.03) rotate(-6.32)" xlink:href="#linear-gradient-21"/><linearGradient id="linear-gradient-67" x1="2963.71" y1="1294.48" x2="3030.77" y2="1331.15" gradientTransform="translate(135.77 119.37) rotate(-5.2)" xlink:href="#linear-gradient-4"/><linearGradient id="linear-gradient-68" x1="3313.74" y1="1142.54" x2="3604.64" y2="1326.87" xlink:href="#linear-gradient-4"/><linearGradient id="linear-gradient-69" x1="3356.35" y1="1240.45" x2="3377.85" y2="1265.04" xlink:href="#linear-gradient-4"/><linearGradient id="linear-gradient-70" x1="3267.46" y1="1165.26" x2="3498.96" y2="1165.26" gradientTransform="matrix(1, 0, 0, 1, 0, 0)" xlink:href="#linear-gradient-2"/><linearGradient id="linear-gradient-71" x1="3306.34" y1="1182.11" x2="3383.6" y2="1182.11" xlink:href="#linear-gradient-6"/><linearGradient id="linear-gradient-72" x1="3344.09" y1="1104.6" x2="3445.44" y2="1220.52" xlink:href="#linear-gradient-4"/><linearGradient id="linear-gradient-73" x1="209.41" y1="1478.5" x2="213.89" y2="1359.41" gradientTransform="matrix(-0.97, 0.23, 0.23, 0.97, 3175.63, -411.47)" xlink:href="#linear-gradient-4"/><linearGradient id="linear-gradient-74" x1="3259.23" y1="942.72" x2="3441.49" y2="1047.07" xlink:href="#linear-gradient-3"/><linearGradient id="linear-gradient-75" x1="3330.52" y1="1010.66" x2="3533.09" y2="1124.8" gradientTransform="matrix(1, 0.03, -0.03, 0.94, -53.41, -121.36)" xlink:href="#linear-gradient-3"/><linearGradient id="linear-gradient-76" x1="-106.99" y1="1245.2" x2="-109.26" y2="1428.12" gradientTransform="matrix(-0.99, 0.14, 0.15, 1.03, 2985.32, -301.96)" xlink:href="#linear-gradient-4"/><linearGradient id="linear-gradient-77" x1="3328.62" y1="1014.03" x2="3531.19" y2="1128.18" gradientTransform="matrix(1, 0.03, -0.03, 0.94, -53.41, -121.36)" xlink:href="#linear-gradient-3"/></defs><title>19199731 [Convertido]</title><g class="cls-3"><g id="Bakground"><rect class="cls-4" x="-10.68" width="3850.68" height="2160"/><path class="cls-5" d="M-10.68,227.44c31.4,117.85,119.35,377.69,364.43,548.69,114.94,80.19,230.36,117.1,335.59,139.35,574,121.41,817.08-199.77,1323.69-162.58,586.77,43.08,720.54,507.72,1253.78,450.58,257-27.53,452.49-159.71,568.63-255.48,1.52,445.81,3,766.19,4.56,1212H-10.68C-18.71,1510.66-2.66,876.78-10.68,227.44Z"/><path class="cls-6" d="M-11,1941c104-39.29,257.3-79,433.24-51,101.3,16.11,147.71,44.72,255.73,75,198,55.51,359.64,48.34,502.43,42,306.15-13.59,486.82-100.79,804.45-136.21,138.84-15.49,236.6-24.37,383.17-16.38,454.57,24.79,696.32,148,1066.79,17.09,187-66.09,321.24-165.57,405.19-239V2160H-11Z"/></g><g id="Illustration"><g class="cls-7"><path class="cls-8" d="M3255.11,1139.25q-47.73-1.7-95.57-5.58c-.46.52-18.26-66.4,10.12-105.67,56.26-76.22,6.33-133.5-10-168.91-25.2-49.65-21.17-106.89,31.47-113.56,58.25-8.54,58.14-106.52,37.79-193.4-13-42,21.79-98.64,60.91-115,39.82-17.77,84,4.68,106.11,88.88,30.09,97-35.63,164.78-56.91,217.44-21,51.7,44.73,84.38.17,133.06-37.26,43-86.51,76.4-62,122.53C3302.09,1044.53,3301.7,1084.05,3255.11,1139.25Z"/><path class="cls-9" d="M3211.94,1148.11c-.35-2.77,15-151.41,50.16-292.31,4.62-23.34,9.84-46.95,14.89-69.79,28.11-127.15,54.66-247.25-2-371.23l2-.93c57,124.66,30.36,245.11,2.16,372.64-5,22.83-10.26,46.43-14.89,69.79-36,144.47-50.11,290.74-50.11,291.65Z"/><path class="cls-9" d="M3302.67,668.36l-1.82-1.3c30.6-42.63,66.6-102.39,85.94-134.5,15.71-26.08,15.76-26.06,16.87-26l0,1.12.65.88c-.94.92-7.39,11.63-15.55,25.17C3369.35,565.85,3333.32,625.66,3302.67,668.36Z"/><path class="cls-9" d="M3306.48,613.86c-24-86.4-82.93-108.78-83.47-108.83l.07-.89-.89-1.06c.55-.46,1.23-.29,2-.05,12.42,3.84,63.16,33.8,84.42,110.23Z"/><path class="cls-9" d="M3243.71,950.33l-2.24,0c.73-89.57-68.45-165.41-98.23-193.86a32.53,32.53,0,0,1-2.34-2.32l1.8-1.34c.15.19,1,1.05,2.08,2C3174.77,783.48,3244.45,859.89,3243.71,950.33Z"/><path class="cls-9" d="M3253,905.43l-2-1c30.79-64.74,109.39-77.92,110.69-77.92h0l-.17,1.11-1.08.29,1.09-.29.05,1.11C3360.76,828.84,3283.22,841.77,3253,905.43Z"/><path class="cls-9" d="M3214.58,1124.13c-1.33-18-11.14-47.86-50.32-87.91-2.28-2.32-2.28-2.32-2.26-2.89l1.12,0,.94-.58c.14.18.91,1,1.8,1.87,39.65,40.53,49.59,70.93,50.95,89.3Z"/><path class="cls-9" d="M3221,1089.29l-2.2-.38c5.75-33.12,47.88-61.53,72.49-75.51l1.45-.84,1.24,1.86c-.2.13-.74.44-1.58.92C3268.12,1029.13,3226.58,1057.07,3221,1089.29Z"/></g><path class="cls-10" d="M1948.12,1429.62c-.14-4.84-108.74-162.91,33.1-173,248.28-17.74,372.42-26.56,487.15-45.39,344.69-56.56,657.85-7.08,952.2-.65,55.4,1.21,174.91-8.67,238,66.48,33.9,40.36,48.27,100.34,36.79,152.83-10.64,48.66-43.42,90.61-295,224.84-133.47,71.22-197,110.69-292.71,124.74-72.43,10.62-112.75,2.21-132.22-3-90.2-24.3-137.56-89.59-175.33-130C2649.53,1485.53,2381.6,1433,2218.3,1438.2,2086.58,1442.4,1950.3,1508.39,1948.12,1429.62Z"/><path class="cls-11" d="M3229.19,1172c63.74,23,133.17,53.74,129.95,80.44-3.51,29.2-90.71,27.78-226.9,64C2915.32,1374,2905.09,1439.08,2796,1429.85c-125.57-10.63-123.25-97.81-272.28-121.7-56.05-9-136.38,2.95-297,26.81-108.29,16.09-192.94,34.38-243.4-14.44-2.51-2.42-27.87-27-26.46-44.07C1961.11,1224.71,2215.73,1175.37,3229.19,1172Z"/><path class="cls-12" d="M3374.82,1220.65c-.58,5-3,9-6.23,10.32-8,3.15-18.39,4.34-30.52,4.36-12.31,0-22.82-1.24-30.9-4.44-3.11-1.23-5.5-5.07-6.17-9.9l-21.5-156.71h113.38Z"/><ellipse class="cls-13" cx="3336.29" cy="1063.57" rx="56.79" ry="9.13"/><path class="cls-14" d="M3282.24,1061.44c3,1.83,9.54,8,18.25,8.66,57.93,4.57,82.27-7.38,84.38-9.12.36-.3-1.8-25-1.45-25.33a48.29,48.29,0,0,1,2.9-28.43c12.43-28.62,91.69-42.33,69.72-96.93-16.1-40-73.54-53.62-1.85-113.49s95.81-190.53,15.42-204.31c-46.14-7.91-63.58,68.61-112.17,81.67-46.17,12.41-62.78,52.72-48.54,103.44s-13.23,60.06-47.74,85.46c-41.46,30.5-.12,77.4,18,97.16C3293.82,976.14,3309,1042,3282.24,1061.44Z"/><g class="cls-15"><path class="cls-16" d="M3339.54,1065.72c-21.73-171.89,40.06-353.48,161.27-473.91l1.45,1.46c-120.76,120-182.33,300.92-160.67,472.19Z"/><path class="cls-16" d="M3335.82,971.39c-21.75-64.64-94-96.37-94.72-96.68l.81-1.89c.74.31,73.82,32.41,95.86,97.91Z"/><path class="cls-16" d="M3338.45,1033.67l-2-.35c11.68-68,127.77-116.09,128.94-116.57l.78,1.91C3465,919.14,3349.94,966.83,3338.45,1033.67Z"/><path class="cls-16" d="M3370.51,804l-2.05-.18c4.64-54.63-51.15-117.52-51.71-118.15l1.53-1.38C3318.85,684.93,3375.23,748.47,3370.51,804Z"/><path class="cls-16" d="M3416.71,704l-1.59-1.32c39.94-47.89,123.69-57,124.53-57.12l.22,2.05C3539,647.7,3456.1,656.76,3416.71,704Z"/></g><path class="cls-17" d="M2814.4,909.69l-327.07,1.66c-8.84,0-16.23-6.83-16.51-15.35l-7.6-234.88c-.28-8.53,6.68-15.27,15.53-15.06l327.67,7.85a15.88,15.88,0,0,1,15.32,15.2l7,225.69A14.36,14.36,0,0,1,2814.4,909.69Z"/><path class="cls-18" d="M2820.24,907.8l-327.07,1.65c-8.83,0-16.23-6.82-16.5-15.34l-7.61-234.88c-.27-8.53,6.69-15.27,15.54-15.06L2812.27,652a15.86,15.86,0,0,1,15.31,15.2l7,225.69A14.37,14.37,0,0,1,2820.24,907.8Z"/><polygon class="cls-19" points="2834.81 822.43 2474.23 820.76 2474.45 827.56 2835.01 828.97 2834.81 822.43"/><polygon class="cls-19" points="2685.55 647.33 2691.21 826.51 2697.95 826.53 2692.29 647.5 2685.55 647.33"/><path class="cls-20" d="M2647.2,861.8l-127.56,0a1.1,1.1,0,0,1-1.11-1l-.37-11.47a1,1,0,0,1,1-1l127.57.21a1.09,1.09,0,0,1,1.09,1l.36,11.3A1,1,0,0,1,2647.2,861.8Z"/><path class="cls-17" d="M2682,887.11l-161.54.43a1.1,1.1,0,0,1-1.11-1L2519,875a1,1,0,0,1,1-1l161.56-.19a1.08,1.08,0,0,1,1.07,1l.36,11.26A1,1,0,0,1,2682,887.11Z"/><polygon class="cls-17" points="2810.34 711.65 2712.64 709.97 2711.43 671.77 2809.16 673.87 2810.34 711.65"/><polygon class="cls-17" points="2813.17 802.55 2715.53 801.88 2713.15 726.23 2810.84 727.73 2813.17 802.55"/><path class="cls-19" d="M2577.91,709.66c15.31.26,28.11,12.58,28.59,27.46a25.57,25.57,0,0,1-2.38,11.62l32.78,15.15a58.63,58.63,0,0,0,5.21-26.27c-1.08-34-30.28-62.25-65.32-63h-.28l1.13,35Z"/><path class="cls-21" d="M2604.12,748.74a26.38,26.38,0,0,1-24.48,15.06c-15.36-.17-28.28-12.49-28.76-27.46s11.52-26.78,26.76-26.67l-1.13-35c-35.19-.59-63.08,26.81-62,61.19s30.93,62.71,66.22,63c25.34.18,46.68-14.14,56.14-34.91Z"/><path class="cls-17" d="M3266.49,1210c.44,15-10.88,27.89-25.2,28.53l-1251.14,61.57c-36,2.23-52.28-17-52.88-34.48l-23.2-681.76,4.46-63.06c-.59-17.56,7.39-50.63,26.61-49.84l1275.11,52.3c14.39.59,26.49,13.44,26.94,28.56Z"/><path class="cls-22" d="M3249.27,622.73l-2.08-71c-.45-15.12-12.55-28-10.91-33.86L1962.21,466.85c-44.74,1.84-51.92,27.79-51.32,45.35l3.14,71.62,23.94-4.15Z"/><path class="cls-19" d="M3304.19,1212.64c.45,15.21-11,28.18-25.44,28.84l-1280.93,58c-19.31.87-35.66-12.86-36.27-30.51L1938,579.67l6.88-80.61c-.61-17.75,7.25-27.3,26.68-26.51l1285.8,46c14.54.59,26.76,13.59,27.21,28.87Z"/><path class="cls-23" d="M3286.66,619.13l-2.12-71.7c-.45-15.28-12.67-28.28-27.21-28.87l-1287.94-53c-19.43-.8-34.88,13.07-34.27,30.83l2.85,83.31Z"/><path class="cls-24" d="M2023.51,526.55c.3,8.79-7.22,15.65-16.82,15.33s-17.67-7.73-18-16.55S1996,509.65,2005.6,510,2023.21,517.77,2023.51,526.55Z"/><path class="cls-24" d="M2098.19,529.17c.3,8.72-7.11,15.53-16.56,15.21s-17.4-7.66-17.69-16.41,7.15-15.56,16.62-15.21S2097.9,520.45,2098.19,529.17Z"/><path class="cls-24" d="M2171.72,531.75c.29,8.65-7,15.41-16.31,15.1s-17.13-7.6-17.42-16.28,7.05-15.45,16.37-15.1S2171.43,523.1,2171.72,531.75Z"/><path class="cls-18" d="M2488.27,912.21c-9.89,0-18.17-7.76-18.48-17.34L2462.19,660a16.28,16.28,0,0,1,4.74-12.13,17.48,17.48,0,0,1,12.9-5.07l327.67,7.85a18,18,0,0,1,17.33,17.2l7,225.69a16.43,16.43,0,0,1-16.42,17l-327.07,1.66Zm-8.9-265.3a13.22,13.22,0,0,0-9.51,3.85,12.23,12.23,0,0,0-3.55,9.09l7.61,234.88c.24,7.38,6.67,13.35,14.35,13.35h.08l327.07-1.65a12.3,12.3,0,0,0,12.31-12.77l-7-225.69a13.81,13.81,0,0,0-13.31-13.2l-327.67-7.85Z"/><path class="cls-17" d="M3191.87,908.05l-299.21,1.51a15.15,15.15,0,0,1-15.07-14.67l-7-224.45A13.76,13.76,0,0,1,2884.82,656l299.73,7.18c7.53.18,13.8,6.69,14,14.54l6.44,216C3205.26,901.63,3199.38,908,3191.87,908.05Z"/><path class="cls-18" d="M3197.2,905.9,2898,907.41a15.14,15.14,0,0,1-15.07-14.66l-7-224.45a13.77,13.77,0,0,1,14.18-14.42l299.73,7.18c7.52.19,13.8,6.69,14,14.54l6.44,216C3210.59,899.48,3204.71,905.86,3197.2,905.9Z"/><polygon class="cls-19" points="2880.66 822.51 2880.86 829.02 3211.33 830.31 3211.14 824.05 2880.66 822.51"/><path class="cls-23" d="M3003,861.86h-82.65a1,1,0,0,1-1-1l-.34-11a1,1,0,0,1,1-1l82.66.14a1,1,0,0,1,1,1l.33,10.85A1,1,0,0,1,3003,861.86Z"/><path class="cls-17" d="M3103.36,886l-182.22.49a1,1,0,0,1-1-1l-.34-11a1,1,0,0,1,1-1l182.24-.21a1,1,0,0,1,1,1l.32,10.72A.93.93,0,0,1,3103.36,886Z"/><path class="cls-25" d="M2924.58,789.85a3,3,0,0,1-1.53-.41,3.09,3.09,0,0,1-1.15-4.22c21.27-37.19,45.6-57.31,72.31-59.8,16.9-1.57,29.93,4.51,42.52,10.4,11.34,5.3,23.08,10.79,38.28,11.19,28,.7,56.47-16.55,84.57-51.4a3.1,3.1,0,0,1,4.82,3.89c-29.38,36.42-59.46,54.53-89.55,53.69-16.49-.43-28.82-6.19-40.75-11.77-12.38-5.79-24.06-11.25-39.31-9.84-24.59,2.29-47.31,21.37-67.52,56.71A3.09,3.09,0,0,1,2924.58,789.85Z"/><path class="cls-19" d="M3090.87,750.31a11.57,11.57,0,0,1-11.62,12.22,12.86,12.86,0,0,1-12.4-12.53,11.57,11.57,0,0,1,11.65-12.22A12.86,12.86,0,0,1,3090.87,750.31Z"/><path class="cls-26" d="M3079.39,764.1h-.15a14.46,14.46,0,0,1-14-14.06,13.51,13.51,0,0,1,3.83-10,12.85,12.85,0,0,1,9.22-3.84h.2a14.46,14.46,0,0,1,13.91,14.06,13.48,13.48,0,0,1-3.82,10A12.84,12.84,0,0,1,3079.39,764.1Zm-1.06-24.75a9.7,9.7,0,0,0-7,2.91,10.37,10.37,0,0,0-2.93,7.69,11.28,11.28,0,0,0,10.85,11,9.55,9.55,0,0,0,7.11-2.92,10.36,10.36,0,0,0,2.93-7.68,11.3,11.3,0,0,0-10.83-11Z"/><polygon class="cls-17" points="3022.23 696.53 2916.62 694.48 2916.06 676.17 3021.68 678.43 3022.23 696.53"/><polygon class="cls-20" points="3138.7 778.54 3097.12 778.13 3096.71 764.43 3138.29 764.91 3138.7 778.54"/><path class="cls-17" d="M2409.2,1216.8l-358.51,13.67c-9.7.37-17.82-6.56-18.12-15.47l-8.35-245.88c-.3-8.93,7.35-16.25,17.06-16.34l359.19-3.27c9-.08,16.48,6.8,16.76,15.36l7.68,235.83C2425.19,1209.25,2418.16,1216.46,2409.2,1216.8Z"/><path class="cls-18" d="M2414.52,1214.65,2056,1228.32c-9.7.37-17.82-6.56-18.12-15.47L2029.55,967c-.3-8.93,7.35-16.25,17.06-16.33l359.19-3.28c9-.08,16.48,6.8,16.76,15.36l7.68,235.83C2430.52,1207.1,2423.49,1214.31,2414.52,1214.65Z"/><polygon class="cls-19" points="2430.17 1121.06 2035 1132.12 2035.24 1139.25 2430.39 1127.89 2430.17 1121.06"/><polygon class="cls-17" points="2394.36 1051.59 2076.74 1058.06 2074.07 979.25 2391.87 975.39 2394.36 1051.59"/><polygon class="cls-17" points="2395.72 1093.19 2078.19 1101.1 2077.25 1073.29 2394.84 1066.31 2395.72 1093.19"/><path class="cls-27" d="M2181.69,1170.29,2081,1173.56a1.15,1.15,0,0,1-1.23-1.06l-.4-12a1.14,1.14,0,0,1,1.15-1.13l100.73-3.12a1.13,1.13,0,0,1,1.2,1l.4,11.88A1.13,1.13,0,0,1,2181.69,1170.29Z"/><path class="cls-17" d="M2276.1,1193.67l-194.22,6.86a1.13,1.13,0,0,1-1.22-1l-.41-12a1.14,1.14,0,0,1,1.15-1.13l194.24-6.57a1.11,1.11,0,0,1,1.17,1l.39,11.75A1.1,1.1,0,0,1,2276.1,1193.67Z"/><path class="cls-17" d="M2414.49,896.19c.28,8.57-6.77,15.56-15.75,15.6l-359.29,1.82c-9.72,0-17.86-7.16-18.16-16.09l-8.37-246.43c-.3-9,7.36-16,17.1-15.78l360,8.62c9,.22,16.51,7.35,16.79,15.94Z"/><path class="cls-18" d="M2420.33,894.3c.28,8.57-6.76,15.56-15.75,15.6l-359.29,1.82c-9.72,0-17.86-7.16-18.16-16.09l-8.36-246.43c-.31-9,7.36-16,17.09-15.78l360,8.62c9,.22,16.51,7.35,16.79,15.94Z"/><polygon class="cls-19" points="2420.3 820.67 2024.27 818.84 2024.52 825.98 2420.52 827.52 2420.3 820.67"/><polygon class="cls-19" points="2208.4 635.81 2214.68 824.55 2222.16 824.58 2215.89 636 2208.4 635.81"/><polygon class="cls-17" points="2178.55 749.48 2066.26 748.13 2063.21 657.86 2175.57 660.27 2178.55 749.48"/><polygon class="cls-17" points="2180.18 798.19 2067.93 797.41 2066.85 765.57 2179.12 766.72 2180.18 798.19"/><path class="cls-28" d="M2125.72,861.71h-55.29a1.2,1.2,0,0,1-1.23-1.1l-.4-12a1.09,1.09,0,0,1,1.15-1.09l55.29.09a1.18,1.18,0,0,1,1.21,1.09l.41,12A1.08,1.08,0,0,1,2125.72,861.71Z"/><path class="cls-17" d="M2207,888.34l-135.7.4a1.19,1.19,0,0,1-1.22-1.09l-.41-12a1.1,1.1,0,0,1,1.15-1.1l135.72-.07a1.15,1.15,0,0,1,1.17,1.07l.39,11.75A1.06,1.06,0,0,1,2207,888.34Z"/><polygon class="cls-19" points="2283.95 796.68 2252.69 796.46 2248.22 661.83 2279.51 662.5 2283.95 796.68"/><polygon class="cls-19" points="2335.86 797.05 2304.95 796.83 2300.54 662.95 2331.48 663.62 2335.86 797.05"/><polygon class="cls-19" points="2387.21 797.42 2356.64 797.2 2352.27 664.06 2382.87 664.72 2387.21 797.42"/><g class="cls-29"><polygon class="cls-30" points="2283.95 796.68 2252.69 796.46 2250.37 726.55 2281.65 727.01 2283.95 796.68"/><polygon class="cls-31" points="2335.86 797.05 2304.95 796.83 2301.56 694.03 2332.5 694.59 2335.86 797.05"/><polygon class="cls-32" points="2387.21 797.42 2356.64 797.2 2353.67 706.74 2384.26 707.25 2387.21 797.42"/></g><path class="cls-17" d="M3200.19,1186.65,2901.58,1198a14.53,14.53,0,0,1-15-14.15l-6.94-224A14.3,14.3,0,0,1,2893.76,945l299.13-2.73c7.51-.07,13.77,6.23,14,14.06l6.43,215.62C3213.56,1179.79,3207.68,1186.36,3200.19,1186.65Z"/><path class="cls-18" d="M3205.52,1184.5l-298.61,11.38a14.54,14.54,0,0,1-15-14.15l-6.93-224a14.29,14.29,0,0,1,14.15-14.86l299.14-2.73c7.51-.07,13.77,6.23,14,14.06l6.43,215.63C3218.89,1177.64,3213,1184.21,3205.52,1184.5Z"/><polygon class="cls-19" points="2889.55 1108.18 2889.75 1114.67 3219.57 1105.19 3219.38 1098.94 2889.55 1108.18"/><path class="cls-23" d="M2985.36,1144.18l-56.22,1.82a1,1,0,0,1-1-1l-.33-10.94a1,1,0,0,1,.95-1l56.22-1.75a1,1,0,0,1,1,1l.33,10.87A1,1,0,0,1,2985.36,1144.18Z"/><path class="cls-17" d="M3044.86,1166.53l-115,4a1,1,0,0,1-1-1l-.34-10.93a1,1,0,0,1,1-1l115-3.89a1,1,0,0,1,1,1l.32,10.79A1,1,0,0,1,3044.86,1166.53Z"/><polygon class="cls-19" points="2937.63 1083.84 2920.25 1084.28 2916.78 971.79 2934.17 971.57 2937.63 1083.84"/><polygon class="cls-19" points="2963.38 1083.18 2946.1 1083.62 2942.65 971.46 2959.94 971.25 2963.38 1083.18"/><polygon class="cls-19" points="2988.98 1082.54 2971.8 1082.97 2968.37 971.14 2985.56 970.93 2988.98 1082.54"/><polygon class="cls-19" points="3014.42 1081.89 2997.35 1082.32 2993.93 970.83 3011.03 970.61 3014.42 1081.89"/><polygon class="cls-19" points="3039.72 1081.25 3022.74 1081.68 3019.35 970.51 3036.34 970.3 3039.72 1081.25"/><polygon class="cls-19" points="3064.87 1080.61 3047.99 1081.04 3044.62 970.19 3061.51 969.98 3064.87 1080.61"/><polygon class="cls-19" points="3089.87 1079.98 3073.09 1080.4 3069.74 969.88 3086.53 969.67 3089.87 1079.98"/><polygon class="cls-19" points="3114.73 1079.35 3098.05 1079.77 3094.71 969.57 3111.41 969.36 3114.73 1079.35"/><polygon class="cls-19" points="3139.44 1078.72 3122.86 1079.14 3119.54 969.26 3136.14 969.05 3139.44 1078.72"/><polygon class="cls-19" points="3164.01 1078.1 3147.52 1078.51 3144.23 968.95 3160.73 968.75 3164.01 1078.1"/><polygon class="cls-19" points="3188.44 1077.47 3172.04 1077.89 3168.77 968.65 3185.18 968.44 3188.44 1077.47"/><g class="cls-33"><polygon class="cls-23" points="2937.63 1083.84 2920.25 1084.28 2918.44 1025.87 2935.84 1025.54 2937.63 1083.84"/><polygon class="cls-23" points="2963.38 1083.18 2946.1 1083.62 2943.45 997.5 2960.74 997.23 2963.38 1083.18"/><polygon class="cls-23" points="2988.98 1082.54 2971.8 1082.97 2969.47 1006.99 2986.66 1006.7 2988.98 1082.54"/><polygon class="cls-23" points="3014.42 1081.89 2997.34 1082.32 2995 1005.72 3012.09 1005.44 3014.42 1081.89"/><polygon class="cls-23" points="3039.72 1081.25 3022.74 1081.68 3020.14 996.31 3037.13 996.05 3039.72 1081.25"/><polygon class="cls-23" points="3064.87 1080.61 3047.99 1081.04 3045.7 1005.72 3062.59 1005.44 3064.87 1080.61"/><polygon class="cls-23" points="3089.87 1079.98 3073.09 1080.4 3070.63 999.04 3087.41 998.78 3089.87 1079.98"/><polygon class="cls-23" points="3114.73 1079.35 3098.05 1079.77 3095.84 1006.76 3112.53 1006.48 3114.73 1079.35"/><polygon class="cls-23" points="3139.44 1078.72 3122.86 1079.14 3120.6 1004.48 3137.2 1004.21 3139.44 1078.72"/><polygon class="cls-23" points="3164.01 1078.1 3147.52 1078.51 3144.99 994.38 3161.49 994.13 3164.01 1078.1"/><polygon class="cls-23" points="3188.44 1077.47 3172.04 1077.89 3169.67 998.82 3186.08 998.55 3188.44 1077.47"/></g><path class="cls-17" d="M2824,1201l-326.39,12.44c-8.81.34-16.19-6.28-16.47-14.78l-7.59-234.38c-.27-8.52,6.67-15.49,15.5-15.57l327-3a15.22,15.22,0,0,1,15.28,14.68l7,225.24A14.92,14.92,0,0,1,2824,1201Z"/><path class="cls-18" d="M2829.32,1198.84l-326.39,12.44c-8.82.34-16.2-6.28-16.47-14.78l-7.59-234.38c-.28-8.52,6.67-15.48,15.5-15.56l327-3a15.2,15.2,0,0,1,15.28,14.67l7,225.24A14.91,14.91,0,0,1,2829.32,1198.84Z"/><polygon class="cls-19" points="2843.83 1109.52 2483.99 1119.6 2484.21 1126.39 2844.03 1116.05 2843.83 1109.52"/><path class="cls-20" d="M2637.57,1155.48,2529.22,1159a1.06,1.06,0,0,1-1.11-1l-.37-11.44a1.06,1.06,0,0,1,1-1.08l108.36-3.36a1.06,1.06,0,0,1,1.09,1l.36,11.3A1,1,0,0,1,2637.57,1155.48Z"/><path class="cls-17" d="M2725.23,1177.81l-195.18,6.9a1.05,1.05,0,0,1-1.11-1l-.37-11.44a1.06,1.06,0,0,1,1-1.07l195.2-6.61a1,1,0,0,1,1.07,1l.35,11.19A1,1,0,0,1,2725.23,1177.81Z"/><path class="cls-34" d="M2516,1053.92a3.13,3.13,0,0,1-1.35-.31,3.1,3.1,0,0,1-1.44-4.13c11.4-23.54,24.6-36.36,39.26-38.1,9-1.07,15.86,2.29,22.45,5.54,7,3.45,13.58,6.71,23.3,5.51,7.39-.91,10.93-3.7,15.41-7.24s9.77-7.71,19.81-10.43c11-3,17.75-1.58,25.63,0a90.36,90.36,0,0,0,22,2.3c13.62-.28,20.88-3.29,30.07-7.11a144.6,144.6,0,0,1,25.79-8.54c19.9-4.5,41.35-4.81,63.76-1a3.09,3.09,0,1,1-1,6.1c-21.61-3.73-42.25-3.43-61.35.89a138.23,138.23,0,0,0-24.77,8.22c-9.41,3.9-17.54,7.27-32.32,7.58a95.86,95.86,0,0,1-23.32-2.43c-7.4-1.51-13.25-2.7-22.78-.12-8.82,2.39-13.28,5.91-17.6,9.32-4.82,3.81-9.38,7.41-18.49,8.52-11.55,1.41-19.65-2.57-26.79-6.1-6.31-3.11-11.77-5.79-19-5-12.42,1.48-24,13.14-34.41,34.65A3.1,3.1,0,0,1,2516,1053.92Z"/><polygon class="cls-17" points="2804.35 1082.67 2693.29 1085.43 2691.82 1039.06 2802.91 1036.88 2804.35 1082.67"/><path class="cls-17" d="M2581.9,984.38l-58.28.78a1.09,1.09,0,0,1-1.12-1l-.36-11.45a1,1,0,0,1,1-1.06l58.29-.69a1.07,1.07,0,0,1,1.09,1l.37,11.38A1,1,0,0,1,2581.9,984.38Z"/><path class="cls-10" d="M2009.92,1541.83c-57.46,2.44-121.36,7.5-196.9,33.43-17.14,5.88-176.72,64.73-171.74,98.54,3.68,25,87.73,14,219.41,50.25,138.87,38.25,164.34,58,245.82,61.11,93.52,3.53,98.46-37.07,219.18-48.3,68.32-6.35,91,4.4,156.37,12.32,26.51,3.21,41,4,83.25,6.26,192.52,10.22,227.09,19.89,233.81,4.74,11.32-25.51-69.34-92.12-144.65-131-65.47-33.85-121.3-43.86-228.47-63.16C2241.83,1532.81,2105.26,1537.78,2009.92,1541.83Z"/><path class="cls-11" d="M2438.69,1603.77c-487.48-123.2-515.19-97.83-523.1-84.94-14.43,23.5,1.68,66.26,31.37,105.13-26.15-5.47-51.64-5.9-73,2.34-44.14,17-100.81,3.3-102.11,16-1.45,14.15,62,38.29,97.67,39.07,77.66,1.68,163.13,24.19,206.66,31.27,93.92,24.19,200-5.44,247.89-14.48,85.72-16.18,119.91-37.4,208.77-37.67,71.28-.22,123.72,12.82,124.73,8.22C2659.55,1659.78,2463.37,1610,2438.69,1603.77Z"/><g class="cls-35"><path class="cls-36" d="M1853.75,1375.1h102.33s19.26-52.49-5.82-89.54c-51.16-75.58,18.61-115.11,45.35-136,40.33-31.57,58.11-72.35,9.6-98.81-54.87-29.93-6.5-109.6,66-151.19,70.93-40.7,39.52-190.27-122.09-116.28-96.51,44.18-81.4,146.51-86,200s-84.2,57.91-57,123.25c23.25,55.82,67.44,96.51,33.72,134.89S1802.59,1322.77,1853.75,1375.1Z"/><path class="cls-9" d="M1898,1384.6c-.24-1.32-24-133.45-8-271.55,9.39-81.18,30.46-148.53,62.61-200.17,40.26-64.65,98.08-104.73,171.87-119.11l.42,2.19c-165.71,32.31-218,190.41-232.67,317.35-15.93,137.77,7.74,269.57,8,270.89Z"/><path class="cls-9" d="M1936.94,940.65c-8.93-71.78,18.36-173.54,18.64-174.56l2.16.58c-.28,1-27.46,102.37-18.58,173.7Z"/><path class="cls-9" d="M1965,898.33l-1.18-1.89c73.62-45.87,142.5-23.79,143.19-23.57l-.71,2.13C2105.63,874.77,2037.7,853,1965,898.33Z"/><path class="cls-9" d="M1886.71,1203.91l-2.18-.51c24.39-102.82,164.76-128.64,166.12-128.64l.07,2.23C2049.35,1077.12,1910.82,1102.22,1886.71,1203.91Z"/><path class="cls-9" d="M1886,1160.76c-13.4-64.49-83.55-109-84.25-109.42l1.18-1.9c.72.45,71.66,45.45,85.27,110.86Z"/><path class="cls-9" d="M1896.93,1363.38l-2.23-.18c3.21-40.83,59-71.8,61.42-73.1l1.07,2C1956.62,1292.38,1900.05,1323.76,1896.93,1363.38Z"/><path class="cls-9" d="M1890.83,1332.23c-5.14-30.11-51.45-64.24-66.67-75.45a49,49,0,0,1-4.67-3.61l1.67-1.49c.29.31,2.16,1.7,4.33,3.3,15.4,11.34,62.25,45.87,67.54,76.88Z"/></g><path class="cls-37" d="M2077.64,1212.62s-68.73-119-161.69,83.38c-72.38,157.6-25.6,332.94,141.85,381s429-49.06,346.9-117.53C2230.56,1414.26,2098.4,1285.51,2077.64,1212.62Z"/><g class="cls-38"><path class="cls-39" d="M1997.83,1319.87c-4.57,14.52-12.44,55.18-10.37,102.41,1.84,42.13-2,64.15,65,94.8,23,10.5,38.86,43.83,74,63.66,15.95,9,76,41.51,153.61,28.37,51.34-8.7,89.56-33.88,115.3-57.34-169.54-142.07-297.42-267.56-317.81-339.15,0,0-25.11-43.46-65.5-33.17,9.8,10.92,20.57,27.5,23.75,49.77C2040.39,1260.75,2012.86,1272.23,1997.83,1319.87Z"/></g><g class="cls-40"><path class="cls-41" d="M2325.82,1629.17c-79.19,43.73-211.45,70.42-310-2.76-91.24-67.77-99.37-181.26-102.41-215.89-5.32-60.54,6.51-113.24,23.56-155.76-6.86,12-13.87,25.65-21,41.24-72.38,157.6-25.6,332.94,141.85,381,164.83,47.35,420.82-46,350.51-114.29A311.19,311.19,0,0,1,2325.82,1629.17Z"/></g><path class="cls-42" d="M2201.06,1642.4c-2.34,0-4.71,0-7.09-.08-61.22-1.36-147.17-21.7-209-110.8-52.2-75.27-45.21-160.2-30.16-218.2,16.28-62.74,45.27-108.35,45.57-108.8a1.31,1.31,0,0,1,1.83-.4,1.33,1.33,0,0,1,.41,1.83c-.29.45-29.09,45.76-45.25,108.12-14.9,57.43-21.82,141.52,29.79,215.93,61.14,88.15,146.18,108.29,206.75,109.66,65.82,1.48,117.7-18.18,118.22-18.38a1.33,1.33,0,0,1,1,2.49C2312.61,1624,2263.92,1642.4,2201.06,1642.4Z"/><path class="cls-43" d="M2529.5,1630.9c-4.36-4.7-12.18-24.92,2.08-29.08s22.32-9.47,42.07-25.3,24.82-2.24-3.07,23.48S2535.71,1637.58,2529.5,1630.9Z"/><path class="cls-44" d="M2510.82,1601.37l11.74,10.26a7.37,7.37,0,0,0,8.78.67,4.77,4.77,0,0,0,.56-7.67l-17.18-14.7Z"/><path class="cls-45" d="M2158.92,1502.59c-20.76,18.18,22.58,77.82,91.8,58.49,83.88-23.42,190.57-12.9,262.48,45.65,4.17-3.71,14.51-9.53,9.78-14.31-65-65.69-125.14-103.41-175-113.52C2272.65,1463.6,2218,1450.81,2158.92,1502.59Z"/><g class="cls-46"><path class="cls-47" d="M2402.28,1527.56c12.17,7.08,14.77-7.3,21-16.76-26.95-16.55-52.26-27.22-75.33-31.9-75.35-15.3-130-28.09-189.08,23.69-20.76,18.18,22.58,77.82,91.8,58.49a322.81,322.81,0,0,1,79.68-11.45C2352.57,1535.69,2370.72,1503.69,2402.28,1527.56Z"/></g><path class="cls-48" d="M2146.67,1564.71l-4.26,1.63s-27.56-26-32.48-32.66c-6-8.09,61.5-28.72,83.42-55.71,23-28.37,4.84,33.67,4.84,33.67Z"/><path class="cls-49" d="M2121.67,1309.39s24.47,3.36,51.3,50.93c20.18,35.78,64,65.41,64,65.41l4.49,28.15-36.35,6.38-13-8.56-35.47-75.47Z"/><path class="cls-50" d="M2074.23,1306.36s-60.32,7.44-61.61,76.84c-1.2,64,21.91,88.86,78.61,142.27,5.7,5.37,14.95,5.37,15.64,6.15q5.52,6.23,11.19,13c50.74-48.7,108-65.2,108-65.2s-52.92-109.48-76.17-145.77C2125.88,1296.25,2089.71,1302.64,2074.23,1306.36Z"/><g class="cls-51"><path class="cls-52" d="M2174.37,1468c-25.46,13.62-61.54,12.08-74.82-4.78-10-12.69-11.61-17.43-23.77-37.36-9.79-16-14.56-18.62-35.94-32.12a107.73,107.73,0,0,1-26.21-23.53,106.18,106.18,0,0,0-1,13c-1.2,64,21.91,88.86,78.61,142.27,5.7,5.37,14.95,5.37,15.64,6.15q5.52,6.23,11.19,13c50.74-48.7,108-65.2,108-65.2s-8.78-17.22-20.41-41.43C2197.17,1452.14,2190.71,1459.3,2174.37,1468Z"/></g><path class="cls-53" d="M2132.78,1470.08s11.43.52,19.55-2.75,7.45-4,16.8-5.2c9.08-1.16,27-6.55,16.84-15.76-11.27-10.26-30.6-7.38-36.15-.57-5.35,6.56-14.63,10.73-14.63,10.73Z"/><path class="cls-54" d="M2030.83,1341s-33.5,3.9-14,111.78c10.14,56,60.26,48.07,120.77,25,4.1-8.57-1.17-26.73-1.17-26.73s-75.19,31-77.13-14.23C2057.16,1386,2050.37,1335.6,2030.83,1341Z"/><path class="cls-55" d="M2088.27,1329.43c-14.39,0-29-10.64-29.68-11.16a.66.66,0,0,1-.14-.93.68.68,0,0,1,.93-.14c.19.15,19.3,14.06,34.74,10.21,4.25-1.06,7.16-3.14,8.65-6.17,2.84-5.79-.38-13.25-.41-13.32a.66.66,0,1,1,1.21-.54c.15.33,3.5,8.09.4,14.44-1.67,3.4-4.88,5.72-9.53,6.88A25.21,25.21,0,0,1,2088.27,1329.43Z"/><path class="cls-56" d="M2109.58,1529.52a.64.64,0,0,1-.49-.22.66.66,0,0,1,0-.94c.54-.49,54.57-48.84,103.34-60.77a.68.68,0,0,1,.81.49.67.67,0,0,1-.49.8c-48.46,11.85-102.23,60-102.76,60.47A.7.7,0,0,1,2109.58,1529.52Z"/><path class="cls-57" d="M2058.19,1264.41s8.55,34.6,6.84,41.68,8.42,14.77,26.16,15.56-1.91-35.55-1.91-35.55Z"/><path class="cls-58" d="M2118.54,1230.73c11.06-18.26-3-44.55-25.95-35.44-15.66,6.22-25.58,1.82-36,5.65-18.46,6.81-16.46,19.93-12.2,33.29,3.71,26.47,3.57,36.91,31.89,52.39C2087.13,1249.13,2105.06,1253,2118.54,1230.73Z"/><path class="cls-59" d="M2061.62,1277.14s11.4,18.86,34.24,17.46,16.34-53.89,10.6-56.87c-6.66-3.46-16,1-31.17-1.43-6.4-1-12.29-8.49-15,.08-3.1,9.76-.8,24.52-.8,24.52s-7-6.09-10.61.38C2046,1266.51,2050.74,1273.21,2061.62,1277.14Z"/><path class="cls-60" d="M2060,1225.15s-1.1,31.3,6.66,41c3.53,6.09-1,6.22-4.91,1.73s-8-18.85-8-18.85Z"/><path class="cls-61" d="M2064.65,1201.7h-.14a.63.63,0,0,1-.66-.6.62.62,0,0,1,.58-.65h.05c1-.07,21-1.41,25.26-9.7a.63.63,0,0,1,1.11.58C2086.28,1200.14,2066.72,1201.57,2064.65,1201.7Z"/><path class="cls-62" d="M2140.82,1484.57a1.47,1.47,0,0,0-1.2,1c0,.08.2,2.82.19,2.9a1.39,1.39,0,0,0,.94,1.42l51.29,16.66,95.85-37.54-45.54,3.48Z"/><path class="cls-63" d="M2140.79,1484.2a1.38,1.38,0,0,0-.22,2.67l51.29,16.66,95.85-37.54-45.54,3.48Z"/><path class="cls-64" d="M2189.59,1502.78l7.64-100a3.47,3.47,0,0,1,2.92-3.16l114.78-18a3.46,3.46,0,0,1,4,3.58l-4.31,93.19a3.46,3.46,0,0,1-2.83,3.25l-119.25,22.08Z"/><path class="cls-62" d="M2192,1506.55l7.88-102.19a3.48,3.48,0,0,1,2.92-3.16l114.79-18a3.42,3.42,0,0,1,2.85.84,3.46,3.46,0,0,1,1.14,2.74l-4.31,93.21a3.45,3.45,0,0,1-2.81,3.24Z"/><path class="cls-65" d="M2192,1506.55l122.46-23.28a3.45,3.45,0,0,0,2.81-3.24l1.3-28.11c-36.48,20.71-82.19,23.35-124.8,31.66Z"/><path class="cls-66" d="M2399.45,1485.6c-1.67-5.81-5.37-12.23,7.84-16.92,9.58-3.4,26.24-4.5,41.37-5.27,21.22-1.09,26.09,11.6-4.9,19.67C2423.45,1488.37,2401.83,1493.87,2399.45,1485.6Z"/><path class="cls-67" d="M2416,1476.7a5.63,5.63,0,0,1-4.58,6.19c-6.27.9-5.09-2.33-5.29-5.58s-2.74-5.51,4.57-6.2C2413.4,1470.86,2415.78,1473.45,2416,1476.7Z"/><path class="cls-68" d="M2351.58,1458l6.19-1s12.07,1.13,45.33,10.3c7.12,1.18,16.83,22-4,22.78s-46.26,16.35-46.26,16.35Z"/><path class="cls-69" d="M2135,1554.68s3,27,65.75,24.51,174.72-67.54,174-101.7-42.39-20.51-85.55-.77c-36.42,16.67-92.69,26.32-104.23,28.11C2170.18,1507.12,2131.4,1541.73,2135,1554.68Z"/><g class="cls-51"><path class="cls-70" d="M2217,1520.89c29-3,35.54-23.79,71.66-29.81,23.4-3.9,31.67,3,43.6-5,9.42-6.31,14.22-17.31,16.54-29.25-16,1.35-37.61,9.8-59.64,19.87-35.38,16.19-89.48,25.76-103.12,27.93-.41.07-9.55-3.2-9.55-3.2s-6.81,3.89-11.7,7C2183.83,1518.61,2206.41,1522,2217,1520.89Z"/></g><path class="cls-71" d="M1813.57,1567.31c-18.58,29.31-8.94,62.35,1.5,85.12,3.15.43,4.87,1.55,8,2.75,27.83,10.8,57.71,16.23,86.66,22.21,6.23,1.29,12.35,1.59,18.67,2.4l6.44.66s41.66-88.27,5.6-114.38-11.19-99.72-2.49-140.5c23.63-110.65-98.56-116.47-79.57-261.1,5.05-38.46,27.55-110.13-.83-145.05-32.33-39.79-63.82-9.12-83.72-41.44-31.09-50.53-89.17-74.86-131.29-32.67-41.57,41.65-10.7,139.57,86.55,227.86,62.6,71.24,61.25,89.91,49.72,134.29-8.08,31.08-49.11,109.41-10.57,148S1834.81,1533.81,1813.57,1567.31Z"/><g class="cls-72"><path class="cls-16" d="M1880.59,1669.36l-2.25,0c.1-12.89,0-25.91-.18-38.69-1.63-94.51-12-185.45-30.88-270.28-16-71.86-38.25-140.35-66.19-203.59a910.86,910.86,0,0,0-78-141.84,728.18,728.18,0,0,0-64.94-83c-3.9-4.26-8.14-8.43-12.25-12.46-5.53-5.43-11.26-11-16.28-17l1.73-1.44c4.94,5.91,10.63,11.49,16.13,16.89,4.12,4.05,8.39,8.24,12.33,12.55a730.87,730.87,0,0,1,65.15,83.24,913.3,913.3,0,0,1,78.17,142.2c28,63.36,50.32,132,66.33,204,18.9,85,29.31,176.06,30.93,270.72C1880.62,1643.41,1880.69,1656.45,1880.59,1669.36Z"/><path class="cls-16" d="M1812,1235.27c-28.38-89.48,26.73-240,27.29-241.52l2.11.78c-.56,1.5-55.41,151.32-27.26,240.06Z"/><path class="cls-16" d="M1869,1490.44c-11.89-61.56-117-122.14-118.11-122.74l1.11-2c1.07.6,107.12,61.69,119.2,124.26Z"/><path class="cls-16" d="M1872.74,1526.51c-.54-42,21.07-99.44,60.85-161.71.86-1.35,1.61-2.53,1.72-2.75l.86.42h1.3c0,.42,0,.42-2,3.54-39.55,61.91-61,118.9-60.49,160.47Z"/><path class="cls-16" d="M1878.19,1645.77c-13.36-42.7-75.59-67.22-76.21-67.47l.81-2.09c.63.24,63.86,25.15,77.54,68.89Z"/><path class="cls-16" d="M1881.65,1670l-2.11-.78c13-35,36.34-67.36,71.49-99l1.51,1.68C1917.66,1603.24,1894.47,1635.33,1881.65,1670Z"/><path class="cls-16" d="M1720,1040.77c-18.5-48.71-26.62-104.08-29.29-122.28-.46-3.16-.83-5.66-1-6.06l2.13-.71c.17.53.41,2.07,1.05,6.45,2.66,18.13,10.75,73.32,29.16,121.81Z"/><path class="cls-16" d="M1761.56,1115.17c-29.32-37.64-128-49.55-129-49.67l.26-2.23c4.09.48,100.64,12.15,130.53,50.52Z"/></g><path class="cls-73" d="M1812.47,1652c.39.17.77.35,1.17.51,28,10.8,57.71,16.23,86.66,22.21,3.9.81,7.82,1.48,11.77,2.08,5.22-14.62,9.23-36.17-9.52-41.94-29.11-8.95-29.42-60.29-21.28-78.38,10.08-22.4,32.48-75-12.31-89.58-37.29-12.12-63.83-12.32-66.07-60.47s-28.27-78.39-72-75.87c-46,2.66-83.14-58.78-120.93-38.63-65.85,35.12-7.28,141.65,72.22,173s33.54,59.73,31.08,99.1c-3.36,53.75,69.42,42.83,88.46,64.1A44.13,44.13,0,0,1,1812.47,1652Z"/><g class="cls-74"><path class="cls-16" d="M1857.22,1665.87c-30.51-154.93-136-294.29-275.43-363.71l1-2c140,69.72,246,209.69,276.62,365.28Z"/><path class="cls-16" d="M1835.5,1582.48h-2.25c.28-63.32,54.57-112.3,55.12-112.78l1.49,1.68C1889.32,1471.85,1835.77,1520.18,1835.5,1582.48Z"/><path class="cls-16" d="M1850.8,1637.41c-29.18-54.67-142.72-63-143.87-63l.16-2.24c1.15.07,115.93,8.45,145.7,64.2Z"/><path class="cls-16" d="M1756.81,1447.15c-20.11-46.93,10.58-118.43,10.9-119.14l2.06.89c-.31.71-30.62,71.33-10.89,117.37Z"/><path class="cls-16" d="M1688,1373.69C1640.2,1344,1565.65,1360,1564.9,1360.2l-.49-2.19c.76-.17,76.21-16.36,124.74,13.77Z"/></g><path class="cls-75" d="M1941.92,1680.42l.74,3.64c-63-.44-139.18-30.79-139.92-31.1-.54-.22.75-4.14,1-4.69a1.07,1.07,0,0,1,1.39-.59c.74.31,74.27,30.16,136.82,30.6a1.07,1.07,0,0,1,0,2.14Z"/><path class="cls-17" d="M2937.25,945.45l-328.76-17.17c-9.14-.47-14.94-8-12.93-16.71l54.93-239.11c2-8.61,10.86-14.82,19.81-13.88l322.22,33.85c7.85.82,12.77,8,11,16l-48.61,223C2953.15,939.59,2945.25,945.87,2937.25,945.45Z"/><path class="cls-76" d="M2941.35,946.52,2613,929.3c-9.13-.48-14.93-7.86-12.93-16.48l54.64-235.54c2-8.48,10.83-14.59,19.78-13.66l321.87,33.65c7.84.82,12.76,7.89,11,15.81L2959,932.73C2957.23,940.77,2949.34,946.94,2941.35,946.52Z"/><polygon class="cls-19" points="2974.3 863.82 2617.14 838.83 2615.55 845.67 2972.89 870.2 2974.3 863.82"/><polygon class="cls-19" points="2874.01 684.5 2834.86 858.78 2841.53 859.24 2880.58 685.2 2874.01 684.5"/><path class="cls-20" d="M2782,890.93l-129.14-8a.9.9,0,0,1-.87-1.12l2.66-11.52a1.33,1.33,0,0,1,1.35-1l129,8.32a.86.86,0,0,1,.81,1.09L2783.28,890A1.27,1.27,0,0,1,2782,890.93Z"/><path class="cls-17" d="M2810.3,918.14l-163.42-9.27a.88.88,0,0,1-.86-1.11l2.66-11.54a1.35,1.35,0,0,1,1.35-1l163.24,9.7a.85.85,0,0,1,.81,1.08l-2.51,11.17A1.29,1.29,0,0,1,2810.3,918.14Z"/><polygon class="cls-17" points="2979.95 754.7 2885.31 745.96 2893.66 708.66 2988.02 718.11 2979.95 754.7"/><polygon class="cls-17" points="2960.42 843.16 2865.13 836.13 2881.75 761.87 2976.5 770.32 2960.42 843.16"/><path class="cls-19" d="M2751.68,735.65c15.29,1.4,24.94,14.49,21.59,29.19a29.78,29.78,0,0,1-5.36,11.3l28.87,17.26a67.75,67.75,0,0,0,11.89-25.49c7.57-33.47-14.26-63.41-49.09-66.85l-.27,0-7.9,34.6Z"/><path class="cls-77" d="M2767.91,776.14c-6.51,8.59-17.43,14.05-28.48,13.15C2724,788,2714.13,774.9,2717.54,760s18.58-25.64,33.87-24.38l7.9-34.6c-35.23-3.34-70.58,21.59-78.47,55.8-7.92,34.38,15,64.59,50.65,67.24C2757,826,2782,813.25,2796.78,793.4Z"/><g class="cls-78"><path class="cls-79" d="M2623.43,784.9c-4.52,4.06,11.82,39.54,41.25,67.38,29.83,28.21,52.29,28.86,75.64,62.4,11.28,16.2,7.21,17.74,16,29.39,34.38,45.65,124.94,59.45,161.41,24.24,3.82-3.68,12.34-20,29.4-52.6a387.66,387.66,0,0,0,19.42-44.18c7.51-20.33,11.65-31.8,7.57-35.07-8.35-6.66-37.22,29.66-56.39,21.32-12.12-5.28-5.95-25.13-22-39.19-13-11.37-30.65-10.81-35.24-10.66-40,1.27-44.5,45.34-82,53.63-31.18,6.89-64.17-15.59-112.42-48.47C2640.3,795.53,2626.73,781.92,2623.43,784.9Z"/></g><path class="cls-80" d="M2630,799.68l-8.25-8.25a21,21,0,0,1-2.06-19.34c4.12-11.35,9.79-8.25,9.79-8.25l-1.54,8s-1,5.16,3.86,11.6a41.64,41.64,0,0,1,5.16,13.67Z"/><path class="cls-81" d="M2973.41,831.82l9.28-8.42,4.13-15.3s11.34,4.47,5.15,18.91c-3.95,4.81-13.66,12-17.79,19.08S2973.41,831.82,2973.41,831.82Z"/><path class="cls-82" d="M2882,934.44s44.52-27.5,55.35-37.3c11.29-10.21,41-49.5,43.58-54.14s-8-13.93-8-13.93-51.74,64.64-116.71,45.55C2866.49,897.83,2882,934.44,2882,934.44Z"/><path class="cls-83" d="M2888.41,1314.25s8.16,20.54,6,29.65a91.33,91.33,0,0,0,14.44-1.29s-3.52-9.37-4.21-14a137.57,137.57,0,0,1-.86-16.41Z"/><path class="cls-62" d="M2798.4,1362.29a6.52,6.52,0,0,1,1.54,3.78,6.24,6.24,0,0,1-.46,2.53c-1.4,3.66-3.58,4.14-5.94,8-1.44,2.38-1.17,3.09-2.49,4.16-1.74,1.42-3.85,1.5-5.67,1.52a102.92,102.92,0,0,1-13.12-.74q4.39-5.67,9.36-11.49,2.18-2.55,4.35-5l8.62-2.91Z"/><path class="cls-84" d="M2791.23,1320.46s-4.92,25.7,1.34,32.9c5.34,7.19-2.57,2.06-2.57,2.06l-9.46,8.25-5.67,9.8s5.22-25.15,3.83-35.13-2.09-16.72-2.09-16.72Z"/><path class="cls-85" d="M2815.61,874.45c-24-4-58.3,8.1-98-12.89-39.05-20.65-62.11-51.12-75.55-70.65l-17.52,8.67c9.92,17.12,33.29,53.82,64.26,79.37,39,32.16,77.13,34,97.91,60.31C2796.5,929.58,2827.31,876.43,2815.61,874.45Z"/><path class="cls-86" d="M2772.66,1039.37s-13.23,11.84-13.23,60.59,6.27,154.58,6.27,154.58l10,75.78s10.4.37,17.36-1.72c6.27-28.55,16.48-76.84,11.6-117.23-2.09-43.87,17.41-98.88,17.41-98.88s16.71,55.71,28.55,83.56,34.38,115.11,36.47,121.38c13.85,1.26,19.76-2.41,19.76-2.41s-8.88-93.9-17.23-129.41-7.66-121.17-21.59-145.54C2836.73,1027.54,2772.66,1039.37,2772.66,1039.37Z"/><path class="cls-87" d="M2772.66,1039.37s-13.23,11.84-13.23,60.59,6.27,154.58,6.27,154.58l10,75.78s10.4.37,17.36-1.72c6.27-28.55,16.48-76.84,11.6-117.23-2.08-43.87,17.41-98.88,17.41-98.88s16.71,55.71,28.55,83.56,34.38,115.11,36.47,121.38c13.85,1.26,19.76-2.41,19.76-2.41s-8.88-93.9-17.23-129.41-7.66-121.17-21.59-145.54C2836.73,1027.54,2772.66,1039.37,2772.66,1039.37Z"/><path class="cls-88" d="M2841.39,1128.69c4.13,26.81,12.38,41.25,33,59.82,16.5,12.37,4.12,39.19,10.31,59.82,2.06,6.19,8.25,12.37,10.31,18.56,7.68,15.35.51,34.13,4,50.39,5.42-.75,7.87-2.26,7.87-2.26s-8.88-93.9-17.23-129.41-7.66-121.17-21.59-145.54c-31.33-12.53-95.4-.7-95.4-.7s-13.23,11.84-13.23,60.59c0,4,0,8.29.12,12.91,13.73,12.15,41.83,14.85,59.15,1.38a8.08,8.08,0,0,1,3.31-1.5c.06-.16.09-.26.09-.26l.08.24C2830.06,1111.29,2839.6,1121.53,2841.39,1128.69Z"/><path class="cls-62" d="M2892.27,1351.7s-2,0-1.86,2.62-.92,11.68,9.43,12.1,11.94-.73,12.28-.73-2.72-8.65-2.72-8.65l-3.3-4.24-8.91-.93Z"/><path class="cls-63" d="M2915.21,1360.77a32.77,32.77,0,0,0-2.67-8.38c-1.83-4.11-.33-5.65-2.07-9.39a11.19,11.19,0,0,0-2.47-3.74,10.66,10.66,0,0,0-7.3-2.78,7.38,7.38,0,0,0-3.44.8,8,8,0,0,0-3.1,3.27c-1.07,1.77-.83,2.31-2.49,7.39a19.77,19.77,0,0,0-.65,2.52,18.41,18.41,0,0,0-.27,2.25c2.71,0,13.14.43,15.35,2a8.64,8.64,0,0,1,3.3,7c0,2.71,1.36,4,2.72,3.9S2915.74,1363.37,2915.21,1360.77Z"/><path class="cls-63" d="M2789.91,1349.75c2.33,0,4,1.89,5.33,6.36s7.48,8.42.26,7.47-12.47,9.29-15.05,13.07-9.5,7.14-9.32,3.44,3.22-5.42,4.08-9.2S2784.59,1349.66,2789.91,1349.75Z"/><path class="cls-89" d="M2839,872.91c-11.69-.35-41.44-3.6-55.36,10.31-14.22,14.22.19,31.29-2.38,54.72-1.74,15.89-1.11,25.25-4.13,51.22a160.42,160.42,0,0,1-3.3,18.42c-4,16.93-10.88,50.22-14.59,58.54,11.9,6.11,42.59,17.06,79.14,11.62a123.37,123.37,0,0,0,39.46-13c-9.48-28.72-7.71-68.07-4.2-82.23,6.93-28,8.5-39,28.1-79.18,5.4-11.09-7.43-4.88-15.65-14.61C2873.48,873.79,2850.78,873.25,2839,872.91Z"/><path class="cls-90" d="M2804.26,946.13c.6-5.16,1.57-14.6-3.09-24.49a37.75,37.75,0,0,0-8.25-11.35c-10.37-9.52-23.75-8.89-39-10A237.25,237.25,0,0,1,2707,892c29.33,18.4,56.65,24.08,74.55,41.52,0,1.44-.13,2.91-.29,4.4-1.74,15.89-1.11,25.25-4.13,51.22a160.42,160.42,0,0,1-3.3,18.42c-4,16.93-10.88,50.22-14.59,58.54,11.9,6.11,42.59,17.06,79.14,11.62a123.37,123.37,0,0,0,39.46-13,140.75,140.75,0,0,1-5.8-28.26A118.78,118.78,0,0,1,2818.7,1024c-11.33-5.74-17-8.61-20.37-15C2791.85,996.88,2799.72,985.54,2804.26,946.13Z"/><path class="cls-91" d="M2822,838.3c1.69-13,12-21.42,14.27-23.21,9.43-7.5,11.35-8.25,14.59-8.87l4.42-.67.48,0c2.59.16,10.35,3.19,11.76,4.18,4.51,3.17,1.19,25.62-12.47,53.54l-1.62,7.1c11.92,2.09,14.87,4.24,15,6,.2,3.72-12.84,8.46-24.93,8.77-15.15.39-31.24-6.13-30.94-11,.13-2,3-4.4,14-6.79l5.16-7.25C2830.1,858.18,2820.74,847.92,2822,838.3Z"/><path class="cls-92" d="M2850.85,797c-4.76,4.65-5.92,12.72-4.52,18.54.84,3.48,1.93,3.85,1.77,6.13-.43,6.4-12.09,9.19-11.44,12.41.46,2.31,6.53,1.46,7.58,4.36,1.14,3.16-5.52,5.89-8.39,13.86-.44,1.24-3.15,8.78.32,13.22,3.25,4.14,10.51,3.16,18.71,2.1a65.91,65.91,0,0,0,17.41-4.68c6-2.62,12.4-5.45,17.73-11.93,1.26-1.54,8.68-10.85,8.06-23.86-.82-17.1-15.11-31.7-29.82-34C2865.87,792.79,2856.68,791.34,2850.85,797Z"/><path class="cls-93" d="M2840.72,833.39c3.44-2.06,6.06,2.36,4.44,6.23s-7.06,6.28-10.36,4S2836.1,836.16,2840.72,833.39Z"/><path class="cls-94" d="M2806.07,873.42l8.38-2.58s2.19,11.35,29.13,12.77a40.27,40.27,0,0,0,24.63-8.38l6.44,3s-13.28,16.9-33.26,16.5A40.07,40.07,0,0,1,2806.07,873.42Z"/><g class="cls-95"><polygon class="cls-96" points="2207.08 1095.4 1967.28 1493.16 2610.57 1493.16 2382.2 1103.62 2207.08 1095.4"/></g><path class="cls-97" d="M2291.78,572.26a1.12,1.12,0,0,1-1.12-1.12v-16.5a1.12,1.12,0,1,1,2.24,0v16.5A1.12,1.12,0,0,1,2291.78,572.26Z"/><path class="cls-97" d="M2291.78,1026.05a1.12,1.12,0,0,1-1.12-1.12V571.14a1.12,1.12,0,1,1,2.24,0v453.79A1.12,1.12,0,0,1,2291.78,1026.05Z"/><path class="cls-97" d="M2291.78,1042.55a1.12,1.12,0,0,1-1.12-1.12v-16.5a1.12,1.12,0,1,1,2.24,0v16.5A1.12,1.12,0,0,1,2291.78,1042.55Z"/><path class="cls-97" d="M2291.78,477.37a1.12,1.12,0,0,1-1.12-1.12v-16.5a1.12,1.12,0,1,1,2.24,0v16.5A1.12,1.12,0,0,1,2291.78,477.37Z"/><path class="cls-97" d="M2291.78,509a1.12,1.12,0,0,1-1.12-1.12V476.25a1.12,1.12,0,1,1,2.24,0v31.63A1.12,1.12,0,0,1,2291.78,509Z"/><path class="cls-97" d="M2291.78,525.5a1.12,1.12,0,0,1-1.12-1.12v-16.5a1.12,1.12,0,1,1,2.24,0v16.5A1.12,1.12,0,0,1,2291.78,525.5Z"/><path class="cls-97" d="M2291.78,434.31a1.12,1.12,0,0,1-1.12-1.12V406.12a1.12,1.12,0,1,1,2.24,0v27.07A1.12,1.12,0,0,1,2291.78,434.31Z"/><path class="cls-98" d="M2387.47,1113.67v-29.21a41.42,41.42,0,0,0-41.3-41.29H2237.39a41.41,41.41,0,0,0-41.29,41.29v29.21Z"/><ellipse class="cls-99" cx="2291.92" cy="1112.67" rx="95.82" ry="18.97"/><path class="cls-100" d="M2291.92,1088.07c-40.57,0-76-5.76-84.17-13.69a.66.66,0,1,1,.93-1c8,7.71,43,13.31,83.24,13.31,37.41,0,70.94-4.92,81.53-12a.65.65,0,0,1,.92.19.66.66,0,0,1-.18.92C2363.23,1083.17,2330.16,1088.07,2291.92,1088.07Z"/><path class="cls-101" d="M2329.56,1044.64a16.36,16.36,0,0,0-16.3-16.06h-43a16.36,16.36,0,0,0-16.31,16.31h0s0,0,0,.08c0,4.13,16.94,7.48,37.83,7.48s37.82-3.35,37.82-7.48A2,2,0,0,0,2329.56,1044.64Z"/><path class="cls-102" d="M3152.76,1585.39c12.27,18.32,76-.34,117.3-20.4,66.66-32.41,64.11-63.36,119.86-90.53,80.61-39.29,159.83-10.58,163.21-27.41,2.22-11.07-30.43-31.49-65-38.25-40.2-7.86-59.56,7.32-153,36.33-75.47,23.44-83.07,19.82-108.74,36.66C3179.11,1512.79,3140.59,1567.23,3152.76,1585.39Z"/><path class="cls-62" d="M3532.73,1345c2.13-2.73,6.91-3.75,10.35-2.71,6.75,2.05,6.7,15.16,8.29,29.17,1.81,15.89,4.41,32.76-2.71,32.67-3.16,0-8.89-9.69-10-18.64a89.7,89.7,0,0,0-5.34-20.64,56.63,56.63,0,0,1-1.52-8.82C3531.24,1350.49,3531,1347.32,3532.73,1345Z"/><path class="cls-103" d="M3541.41,1356.44c0,6.86-11.57,9.64-18.57,9.64s-6.77-2.78-6.77-9.64.25-11.88,7.25-11.88S3541.41,1349.57,3541.41,1356.44Z"/><path class="cls-104" d="M3236.43,1476.71l-11.4,45.17c.88,1.51,3.07,4.72,6.82,5.41,4.19.77,7.84-2.08,9.2-3.27,3-21.32,8.14-34.8,13.22-43.65,3.57-6.22,7.07-10.13,6.8-12.35C3260.59,1464,3248.27,1470,3236.43,1476.71Z"/><path class="cls-105" d="M3209.16,1203.52l-7,1s-12.39-.52-19.61.77-11.35,4.9-11.35,12.39,9.13,8.4,17,9.28c4.8.54,11.35-3.51,16.34-7.26,3.51-2.63,12.48-5,12.48-5Z"/><path class="cls-106" d="M3257.74,952.62c-8.79,5.86-10.4,22.69-8.06,32.86a74.65,74.65,0,0,0,7.94,20.24c1.76,4.48,3.28,8.69,4.49,12.45.9,2.76,1.53,5,2.1,7.33a93.77,93.77,0,0,1,2.21,13.36.56.56,0,0,0,.56.52h.06a.57.57,0,0,0,.51-.62,94.72,94.72,0,0,0-2.23-13.53c-.58-2.4-1.22-4.62-2.12-7.41-.64-2-1.37-4.1-2.17-6.3a61.43,61.43,0,0,1,7.43,20.78c4.84,27.91,31.65,36.07,47.41,30.06,13.94-5.33,24.05-19.17,25.89-32.54C3347.51,988,3277.08,939.73,3257.74,952.62Z"/><path class="cls-107" d="M3313,1192.7c-20.52,35.7-33.8,88.79-51,148.91-15.45,54-28.87,102.34-35.66,140.18a74.82,74.82,0,0,0,11.88,8c17.65,9.55,35.14,9.67,44.91,8.87a360.6,360.6,0,0,1,5.06-42.08c4.46-24.78,12.41-70.78,31.38-112.45,13.15-28.92,19.73-43.38,30.85-53.25,6.83-6.08,22.67-18.93,25.39-38.51a18,18,0,0,0,.15-2.47C3375.89,1222.51,3325.05,1198.14,3313,1192.7Z"/><path class="cls-108" d="M3313,1192.7c-11.21,19.5-20.26,44.23-29,72.44,20.52,11,38,29.41,30,51.85-7.65,23-36.34,32.52-42.08,59.29-5.73,28.69,7.65,53.55,1.92,82.24-2.83,13.44-3.83,26.89-4.35,40.23a88.67,88.67,0,0,0,13.6-.08,360.6,360.6,0,0,1,5.06-42.08c4.46-24.78,12.41-70.78,31.38-112.45,13.15-28.92,19.73-43.38,30.85-53.25,6.83-6.08,22.67-18.93,25.39-38.51a18,18,0,0,0,.15-2.47C3375.89,1222.51,3325.05,1198.14,3313,1192.7Z"/><path class="cls-109" d="M3332.17,1243.15a8.76,8.76,0,0,0-.68,3c-.4,10.16,18.37,23.46,59.17,88.54,7.2,11.49,19.49,31.61,39.39,37.58a39.38,39.38,0,0,0,6.4,1.36,41,41,0,0,0,11.41-.11c4.94-.69,24.07,0,78.56,4.88.44-1,9.74-22.58-2.17-37.54a28.81,28.81,0,0,0-10.85-8.24c-12.79-1.92-23.51-2.91-31.62-3.45a136.48,136.48,0,0,0-22.9-.07c-4.75.42-8.68,1-11.44,1.56-19.48-56.18-9.93-105-33.35-106C3409.41,1224.41,3337,1229,3332.17,1243.15Z"/><path class="cls-110" d="M3269.1,1092.26c-11.89,4.13,6,46.64-18.38,79.23-12.32,16.47-30.87,24.31-47.07,28.33,3.29,10.56,2.74,10.59,6,21.15,8.49.35,40.19.65,67-22.38,6.83-5.87,28-24,29.36-52.31C3307.79,1110.29,3280.32,1088.37,3269.1,1092.26Z"/><path class="cls-111" d="M3283.75,1050.62c-6,7.12-8.47,13.68-11.62,22.22-5,13.55-7.86,21.28-7.49,30.88.72,18.45,12.89,31.85,18.72,37.42,12.73,40.87,15.67,50.44,15.68,50.56v.26a116,116,0,0,1-3.75,20.87c-6.31,22.9-15.13,27.19-12.88,35.44,3.95,14.47,36.25,20.39,60.82,17.78,13-1.39,14.21-4.15,25.26-6.08,46.38-8.15,67.74,33,98.08,22.45,21.56-7.51,21.87-32.49,49.9-37.42,9.78-1.73,20.6-.65,21.52-4.37s-8.22-9.44-15.91-12.47c-16.58-6.56-31.9-2.32-38.67-1.25-30.34,4.79-61.24-26.76-79.77-45.7-52.41-53.53-50.94-128-50.32-143.53-4.16-2.23-19.34-9.7-52.73-.71A56.86,56.86,0,0,0,3283.75,1050.62Z"/><path class="cls-112" d="M3538,1240.63c.89-3.63-8.22-9.44-15.91-12.47-16.58-6.56-31.9-2.32-38.67-1.25-30.34,4.79-61.24-26.76-79.77-45.7-26.32-26.88-39.05-59-45.12-86.38-4.13,30.46-15.08,61.34-2.4,88.28,9.56,24.86,45.9,23,59.29,51.64,5.74,11.47,21,9.56,34.43,11.47,9.56,0,13.38,15.31,26.77,13.39,5.74-1.91,9.57-11.47,13.39-11.47,4.86,0,10.11.06,15.51.34a40.68,40.68,0,0,1,11-3.48C3526.26,1243.27,3537.08,1244.35,3538,1240.63Z"/><path class="cls-113" d="M3380.19,1245.3c-3.51,2.8-11.43,8.35-21.05,8.5a22.39,22.39,0,0,1-7.89-1.15,24.9,24.9,0,0,1-10.35-7,173.6,173.6,0,0,1,22.61-9.57l7.33-1.94Z"/><path class="cls-114" d="M3490.14,1186.87l-174.34,70.2a8.85,8.85,0,0,1-11.52-4.9l-39.45-99.07a8.85,8.85,0,0,1,4.91-11.51l174.34-70.2a8.85,8.85,0,0,1,11.52,4.9l39.45,99.06A8.86,8.86,0,0,1,3490.14,1186.87Z"/><path class="cls-115" d="M3493.41,1187.9l-174.35,70.2a8.84,8.84,0,0,1-11.51-4.9l-39.45-99.06a8.85,8.85,0,0,1,4.9-11.52l174.35-70.2a8.86,8.86,0,0,1,11.52,4.9l39.44,99.07A8.84,8.84,0,0,1,3493.41,1187.9Z"/><path class="cls-19" d="M3344.28,1164.74c9.45.17,18,8.08,19.12,17.63a16.38,16.38,0,0,1-.83,7.46l21,9.73a37.56,37.56,0,0,0,1.79-16.87c-2.51-21.83-22-40-43.71-40.44h-.17l2.6,22.49Z"/><path class="cls-116" d="M3362.57,1189.83a14.64,14.64,0,0,1-14.28,9.67c-9.49-.11-18.13-8-19.24-17.63s5.66-17.2,15.06-17.13l-2.6-22.49c-21.73-.37-37.45,17.21-34.89,39.3s22.48,40.26,44.26,40.42c15.64.12,28-9.07,32.72-22.41Z"/><path class="cls-117" d="M3469,1132.14l-72.71,29.77a.68.68,0,0,1-.88-.38l-2.8-6.93a.67.67,0,0,1,.37-.88l72.76-29.67a.66.66,0,0,1,.85.38l2.76,6.84A.67.67,0,0,1,3469,1132.14Z"/><path class="cls-117" d="M3462.83,1117.42l-72.71,29.77a.67.67,0,0,1-.88-.38l-2.8-6.93a.67.67,0,0,1,.37-.88l72.75-29.66a.66.66,0,0,1,.86.37l2.76,6.84A.67.67,0,0,1,3462.83,1117.42Z"/><path class="cls-117" d="M3480.92,1162.49l-72.71,29.78a.67.67,0,0,1-.88-.38l-2.8-6.93a.67.67,0,0,1,.37-.88l72.76-29.67a.66.66,0,0,1,.85.38l2.76,6.83A.66.66,0,0,1,3480.92,1162.49Z"/><path class="cls-117" d="M3474.79,1147.78l-72.71,29.77a.67.67,0,0,1-.88-.38l-2.8-6.93a.67.67,0,0,1,.37-.88l72.75-29.67a.66.66,0,0,1,.86.38l2.76,6.84A.67.67,0,0,1,3474.79,1147.78Z"/><path class="cls-118" d="M3332.22,1053.62c17.77-17.24,73,2.32,93.86,47.45,17.91,38.83,23.15,68.6,5,106.78a94.42,94.42,0,0,1-46.82,45.65c-1.45-2.54-6.77-7-13.77-17.59,17.63-6.61,34.23-38.44,36.09-58,2.48-26-11.26-51-24.08-60.14-12-8.58-48.42,1.22-59.87-6.85C3307.46,1100.19,3318.57,1066.88,3332.22,1053.62Z"/><path class="cls-119" d="M3302.18,983.16c-3.08,14.61-4.34,32.23,5.48,41.32,8.65,8,21.05,4.93,21.93,9.12,1.73,8.29-45.29,26.8-48.83,20.91-1.74-2.9,13-9.57,12.72-20.21-.12-4.42-2.13-7.49-13.53-23.2l-3.81,1.34Z"/><path class="cls-120" d="M3451.71,998.57c-7.48-22.79-30.51-34.33-34.86-36.3-27.07-12.25-37.55,4.28-69.47-7.24-1.39-.5-2.71-1-4-1.55a80.73,80.73,0,0,0,25.45,4.09l2,0h.6a90.41,90.41,0,0,0,12.79-1.52c3-.5,5.85-1,8-1.14a39,39,0,0,1,13.39,1l1.91.41a.46.46,0,0,0,.55-.36.45.45,0,0,0-.36-.55l-1.9-.41a39.73,39.73,0,0,0-13.67-1c-2.21.18-5.07.65-8.1,1.14-4.56.75-9.74,1.58-13.21,1.5l-2,0c-7.15-.14-15.93-.32-33.29-6.83-2.11-1.1-4.1-2.22-6.07-3.33l2,.77c5.1,2,10.37,4,15.61,4.89a38,38,0,0,0,6,.47l1.58,0a.56.56,0,0,0,.54-.59.55.55,0,0,0-.59-.55,37,37,0,0,1-7.31-.42c-5.12-.83-10.34-2.87-15.38-4.83-2-.78-4.05-1.58-6-2.28-.85-.3-1.67-.58-2.5-.84a80.4,80.4,0,0,0-26.09-8.87c-10.59-1.81-30.3-1.54-35.31,3.91-5.53,6,18.33,12.37,26.86,52.82,2.17,10.3,7.78,35.1,30.73,55.58,5.3,4.73,48.64,42.34,91.7,24.17C3439.91,1058.58,3460.44,1025.18,3451.71,998.57Z"/><g class="cls-51"><path class="cls-121" d="M3451.71,998.57c-7.48-22.79-30.51-34.33-34.86-36.3a56.89,56.89,0,0,0-8.19-3,36.85,36.85,0,0,1,8,8.17c2.17,3.07,7.46,10.53,6.24,19.34-1.13,8.2-6.9,10.4-12.48,19.34-9.35,15-2.64,24-8.73,32.43-10.75,14.88-47.75,9-71.11-1.25a107.14,107.14,0,0,1-35.61-25.73,94.16,94.16,0,0,0,24.58,34.94c5.3,4.73,48.64,42.34,91.7,24.17C3439.91,1058.58,3460.44,1025.18,3451.71,998.57Z"/></g><path class="cls-122" d="M3295.77,998.58s.82,17.22-16,19.79c-20.69,3.17-31.05-51.13-26.48-55,5.31-4.49,11.72,3.63,24.85-1.47,5.54-2.15,9.39-10.24,13.47-2.73,4.63,8.53,4.2,24.92,4.2,24.92s4.32-4.79,5.79,0C3303.56,990.33,3299.36,995,3295.77,998.58Z"/><path class="cls-123" d="M3254.26,944.05c-5.58,7.67-7.29,21.21-1.77,27.07,7.93,8.42,25.83-4.23,35.44,6.08,4.21,4.52,5,11.54,6.83,11.16,1.47-.31,1.64-5.28,1.91-9.39,1.49-22.66,6.6-25.94,4-32C3295.4,934.71,3265.72,928.3,3254.26,944.05Z"/><path class="cls-62" d="M3200.25,1508.25c1.47-2,11.14-1,16,1.67,8.19,4.5,13,12.53,15.06,13.63,4.78,2.51,9.31.36,9.72.47,0,0,3.19,6.46-2.55,9.57S3191.17,1520.92,3200.25,1508.25Z"/></g></g></svg>