<svg xmlns="http://www.w3.org/2000/svg" xmlns:xlink="http://www.w3.org/1999/xlink" viewBox="0 0 750 500"><defs><style>.cls-1{isolation:isolate;}.cls-2{fill:url(#linear-gradient);}.cls-3,.cls-4,.cls-5{mix-blend-mode:screen;}.cls-3{fill:url(#linear-gradient-2);}.cls-4{fill:url(#linear-gradient-3);}.cls-5{fill:url(#linear-gradient-4);}</style><linearGradient id="linear-gradient" x1="62.5" y1="562.5" x2="687.5" y2="-62.5" gradientUnits="userSpaceOnUse"><stop offset="0" stop-color="#924ab2"/><stop offset="1" stop-color="#4c29cc"/></linearGradient><linearGradient id="linear-gradient-2" x1="138.94" y1="439.94" x2="412.97" y2="439.94" xlink:href="#linear-gradient"/><linearGradient id="linear-gradient-3" x1="0" y1="82.27" x2="234.96" y2="82.27" xlink:href="#linear-gradient"/><linearGradient id="linear-gradient-4" x1="335.14" y1="250" x2="750" y2="250" xlink:href="#linear-gradient"/></defs><title>4104300</title><g class="cls-1"><g id="BACKGROUND"><rect class="cls-2" width="750" height="500"/><path class="cls-3" d="M170.73,439.21c-11.86,17.62-19.37,37.75-29.4,56.47q-1.16,2.18-2.39,4.32H413c-25.38-24.6-32.8-68.08-59.26-94-17.33-17-41.95-25.06-66.18-26C242,378.17,196.19,401.38,170.73,439.21Z"/><path class="cls-4" d="M0,0V134.84c6.56,3.9,13.35,7.44,20.24,10.66,25.72,12,53.82,20.29,82.18,18.89s57-13.47,74.2-36.06c21.56-28.35,22-67.39,37.62-99.42A107.78,107.78,0,0,1,235,0Z"/><path class="cls-5" d="M750,0H668.33c-9.06,39.18-26.61,72.88-59.23,100.29-42,35.25-96,53-149.76,63.35-24.59,4.76-49.77,8.26-72.64,18.46S343,210.63,336.94,234.92c-7.74,30.87,10.46,63.47,35.88,82.62s56.92,27.88,87.37,37.15,61.7,20.07,84.65,42.12c22.77,21.87,34.77,52.26,48.5,80.69,3.66,7.56,7.6,15.16,11.95,22.5H750Z"/></g></g></svg>