<svg xmlns="http://www.w3.org/2000/svg" xmlns:xlink="http://www.w3.org/1999/xlink" viewBox="0 0 2475 1650"><defs><style>.cls-1,.cls-2{opacity:0.5;}.cls-1{fill:url(#linear-gradient);}.cls-2{fill:url(#linear-gradient-2);}.cls-3{opacity:0.53;}.cls-4{fill:url(#linear-gradient-3);}.cls-11,.cls-23,.cls-5,.cls-50,.cls-8{fill:#fff;}.cls-5{opacity:0.43;}.cls-6{opacity:0.76;}.cls-7{fill:url(#linear-gradient-4);}.cls-8{opacity:0.45;}.cls-9{opacity:0.37;}.cls-10{fill:url(#linear-gradient-5);}.cls-11{opacity:0.86;}.cls-12{fill:url(#linear-gradient-6);}.cls-13{opacity:0.61;}.cls-14{fill:url(#linear-gradient-7);}.cls-15{fill:url(#linear-gradient-8);}.cls-16{fill:url(#linear-gradient-9);}.cls-17{fill:url(#linear-gradient-10);}.cls-18{fill:url(#linear-gradient-11);}.cls-19{fill:url(#linear-gradient-12);}.cls-20{fill:url(#linear-gradient-13);}.cls-21{fill:url(#linear-gradient-14);}.cls-22{fill:url(#linear-gradient-15);}.cls-24{fill:url(#linear-gradient-16);}.cls-25{fill:url(#linear-gradient-17);}.cls-26{opacity:0.7;}.cls-27{fill:url(#linear-gradient-18);}.cls-28{fill:url(#linear-gradient-19);}.cls-29{fill:url(#linear-gradient-20);}.cls-30{fill:url(#linear-gradient-21);}.cls-31{fill:url(#linear-gradient-22);}.cls-32{fill:url(#linear-gradient-23);}.cls-33{fill:url(#linear-gradient-24);}.cls-34{fill:url(#linear-gradient-25);}.cls-35{fill:url(#linear-gradient-26);}.cls-36{fill:url(#linear-gradient-27);}.cls-37{fill:url(#linear-gradient-28);}.cls-38{fill:url(#linear-gradient-29);}.cls-39{fill:#e78456;}.cls-40{fill:url(#linear-gradient-30);}.cls-41{fill:url(#linear-gradient-31);}.cls-42{fill:url(#linear-gradient-32);}.cls-43{fill:url(#linear-gradient-33);}.cls-44{fill:url(#linear-gradient-34);}.cls-45{fill:url(#linear-gradient-35);}.cls-46{fill:url(#linear-gradient-36);}.cls-47{fill:url(#linear-gradient-37);}.cls-48{fill:url(#linear-gradient-38);}.cls-49{fill:url(#linear-gradient-39);}.cls-50{opacity:0.97;}.cls-51{fill:url(#linear-gradient-40);}.cls-52{fill:url(#linear-gradient-41);}.cls-53{fill:url(#linear-gradient-42);}.cls-54{fill:url(#linear-gradient-43);}.cls-55{fill:url(#linear-gradient-44);}.cls-56{fill:url(#linear-gradient-45);}.cls-57{fill:url(#linear-gradient-46);}.cls-58{fill:url(#linear-gradient-47);}.cls-59{fill:url(#linear-gradient-48);}.cls-60{fill:url(#linear-gradient-49);}.cls-61{fill:url(#linear-gradient-50);}.cls-62{fill:url(#linear-gradient-51);}.cls-63{fill:url(#linear-gradient-52);}.cls-64{fill:url(#linear-gradient-53);}.cls-65{fill:url(#linear-gradient-54);}.cls-66{fill:url(#linear-gradient-55);}.cls-67{fill:url(#linear-gradient-56);}.cls-68{fill:url(#linear-gradient-57);}.cls-69{fill:url(#linear-gradient-58);}.cls-70{fill:url(#linear-gradient-59);}.cls-71{fill:url(#linear-gradient-60);}.cls-72{fill:url(#linear-gradient-61);}.cls-73{fill:url(#linear-gradient-62);}.cls-74{fill:url(#linear-gradient-63);}.cls-75{fill:url(#linear-gradient-64);}.cls-76{fill:url(#linear-gradient-65);}.cls-77{fill:url(#linear-gradient-66);}.cls-78{fill:url(#linear-gradient-67);}.cls-79{fill:url(#linear-gradient-68);}.cls-80{fill:url(#linear-gradient-69);}.cls-81{fill:url(#linear-gradient-70);}.cls-82{fill:url(#linear-gradient-71);}.cls-83{fill:url(#linear-gradient-72);}.cls-84{fill:url(#linear-gradient-73);}.cls-85{fill:url(#linear-gradient-74);}.cls-86{fill:url(#linear-gradient-75);}.cls-87{fill:url(#linear-gradient-76);}.cls-88{fill:url(#linear-gradient-77);}.cls-89{fill:url(#linear-gradient-78);}.cls-90{fill:url(#linear-gradient-79);}.cls-91{fill:url(#linear-gradient-80);}.cls-92{fill:url(#linear-gradient-81);}.cls-93{fill:url(#linear-gradient-82);}.cls-94{fill:url(#linear-gradient-83);}.cls-95{fill:url(#linear-gradient-84);}.cls-96{fill:url(#linear-gradient-85);}.cls-97{fill:url(#linear-gradient-86);}.cls-98{fill:url(#linear-gradient-87);}.cls-99{fill:url(#linear-gradient-88);}.cls-100{fill:url(#linear-gradient-89);}.cls-101{fill:url(#linear-gradient-90);}.cls-102{fill:url(#linear-gradient-91);}.cls-103{fill:url(#linear-gradient-92);}.cls-104{fill:url(#linear-gradient-93);}.cls-105{fill:url(#linear-gradient-94);}.cls-106{fill:url(#linear-gradient-95);}.cls-107{fill:url(#linear-gradient-96);}.cls-108{fill:url(#linear-gradient-97);}.cls-109{fill:url(#linear-gradient-98);}.cls-110{fill:url(#linear-gradient-99);}.cls-111{fill:url(#linear-gradient-100);}.cls-112{fill:url(#linear-gradient-101);}.cls-113{fill:url(#linear-gradient-102);}.cls-114{fill:url(#linear-gradient-103);}.cls-115{fill:url(#linear-gradient-104);}.cls-116{fill:url(#linear-gradient-105);}.cls-117{fill:url(#linear-gradient-106);}.cls-118{fill:url(#linear-gradient-107);}.cls-119{fill:url(#linear-gradient-108);}.cls-120{fill:url(#linear-gradient-109);}.cls-121{fill:url(#linear-gradient-110);}.cls-122{fill:url(#linear-gradient-111);}.cls-123{fill:url(#linear-gradient-112);}.cls-124{fill:url(#linear-gradient-113);}.cls-125{fill:url(#linear-gradient-114);}.cls-126{fill:url(#linear-gradient-115);}.cls-127{fill:url(#linear-gradient-116);}.cls-128{fill:url(#linear-gradient-117);}.cls-129{fill:url(#linear-gradient-118);}.cls-130{fill:url(#linear-gradient-119);}.cls-131{fill:url(#linear-gradient-120);}.cls-132{fill:url(#_35);}.cls-133{fill:url(#linear-gradient-121);}.cls-134{fill:url(#linear-gradient-122);}.cls-135{fill:url(#linear-gradient-123);}.cls-136{fill:url(#linear-gradient-124);}.cls-137{fill:url(#linear-gradient-125);}.cls-138{fill:url(#linear-gradient-126);}.cls-139{fill:url(#linear-gradient-127);}.cls-140{fill:url(#linear-gradient-128);}.cls-141{fill:url(#linear-gradient-129);}.cls-142{fill:url(#linear-gradient-130);}.cls-143{fill:url(#linear-gradient-131);}.cls-144{fill:url(#linear-gradient-132);}.cls-145{fill:url(#linear-gradient-133);}.cls-146{fill:url(#linear-gradient-134);}.cls-147{fill:url(#linear-gradient-135);}.cls-148{fill:url(#linear-gradient-136);}.cls-149{fill:url(#linear-gradient-137);}.cls-150{fill:url(#linear-gradient-138);}.cls-151{fill:url(#linear-gradient-139);}.cls-152{fill:url(#linear-gradient-140);}.cls-153{fill:url(#linear-gradient-141);}.cls-154{fill:url(#linear-gradient-142);}.cls-155{fill:url(#linear-gradient-143);}.cls-156{fill:url(#linear-gradient-144);}.cls-157{fill:url(#linear-gradient-145);}.cls-158{fill:url(#linear-gradient-146);}.cls-159{fill:url(#linear-gradient-147);}.cls-160{fill:url(#linear-gradient-148);}.cls-161{fill:url(#linear-gradient-149);}.cls-162{fill:url(#linear-gradient-150);}.cls-163{fill:url(#linear-gradient-151);}.cls-164{fill:url(#linear-gradient-152);}.cls-165{fill:url(#linear-gradient-153);}.cls-166{fill:url(#linear-gradient-154);}.cls-167{fill:url(#linear-gradient-155);}.cls-168{fill:url(#linear-gradient-156);}.cls-169{fill:url(#linear-gradient-157);}.cls-170{fill:url(#linear-gradient-158);}.cls-171{fill:url(#linear-gradient-159);}.cls-172{fill:url(#linear-gradient-160);}.cls-173{fill:url(#linear-gradient-161);}.cls-174{fill:url(#linear-gradient-162);}.cls-175{fill:url(#linear-gradient-163);}.cls-176{fill:url(#linear-gradient-164);}.cls-177{fill:url(#linear-gradient-165);}.cls-178{fill:url(#linear-gradient-166);}.cls-179{fill:url(#linear-gradient-167);}.cls-180{fill:url(#linear-gradient-168);}.cls-181{fill:url(#linear-gradient-169);}</style><linearGradient id="linear-gradient" x1="198.79" y1="2164.07" x2="1752.14" y2="129.52" gradientUnits="userSpaceOnUse"><stop offset="0" stop-color="#b37cff"/><stop offset="1" stop-color="#f895e7"/></linearGradient><linearGradient id="linear-gradient-2" x1="3598.22" y1="723.43" x2="577.08" y2="685.66" gradientTransform="translate(227.66 -22.1) rotate(3.8)" xlink:href="#linear-gradient"/><linearGradient id="linear-gradient-3" x1="1662.39" y1="342.32" x2="1134.38" y2="1009.52" gradientTransform="translate(460.67 640.53) rotate(-23.1)" gradientUnits="userSpaceOnUse"><stop offset="0" stop-color="#a737d5"/><stop offset="1" stop-color="#ef497a"/></linearGradient><linearGradient id="linear-gradient-4" x1="5610.13" y1="3420.09" x2="5745.6" y2="3420.09" gradientTransform="matrix(0.66, 0.75, -0.6, 0.53, 467.69, -5194.3)" xlink:href="#linear-gradient-3"/><linearGradient id="linear-gradient-5" x1="3690.58" y1="-2861.35" x2="4223.83" y2="-2861.35" gradientTransform="matrix(-0.97, -0.26, -0.26, 0.97, 3741.12, 4486.24)" gradientUnits="userSpaceOnUse"><stop offset="0" stop-color="#53d8ff"/><stop offset="1" stop-color="#3840f7"/></linearGradient><linearGradient id="linear-gradient-6" x1="3211" y1="-3478.48" x2="3789.16" y2="-3478.48" gradientTransform="matrix(-0.74, -0.67, -0.67, 0.74, 1284.86, 5546.2)" xlink:href="#linear-gradient-3"/><linearGradient id="linear-gradient-7" x1="-1167.15" y1="884.8" x2="-730.59" y2="426.01" gradientTransform="matrix(-0.91, -0.42, -0.42, 0.91, -197.76, -263.57)" xlink:href="#linear-gradient-5"/><linearGradient id="linear-gradient-8" x1="2346.05" y1="713.16" x2="1769.91" y2="1068.92" gradientUnits="userSpaceOnUse"><stop offset="0" stop-color="#fdf53f"/><stop offset="1" stop-color="#d93c65"/></linearGradient><linearGradient id="linear-gradient-9" x1="2229.56" y1="397.35" x2="972.07" y2="2317.76" xlink:href="#linear-gradient-8"/><linearGradient id="linear-gradient-10" x1="1801.82" y1="707.69" x2="1313.29" y2="1212.29" gradientTransform="matrix(1, 0, 0, 1, 0, 0)" xlink:href="#linear-gradient-5"/><linearGradient id="linear-gradient-11" x1="1718.22" y1="549.8" x2="608.62" y2="2244.35" gradientTransform="matrix(1, 0, 0, 1, 0, 0)" xlink:href="#linear-gradient-5"/><linearGradient id="linear-gradient-12" x1="1506.24" y1="805.75" x2="667.15" y2="1423.51" xlink:href="#linear-gradient-8"/><linearGradient id="linear-gradient-13" x1="1245.28" y1="735.5" x2="375.01" y2="2064.55" xlink:href="#linear-gradient-8"/><linearGradient id="linear-gradient-14" x1="882.17" y1="849.11" x2="136.45" y2="1987.94" gradientTransform="matrix(1, 0, 0, 1, 0, 0)" xlink:href="#linear-gradient-3"/><linearGradient id="linear-gradient-15" x1="226.8" y1="1052.2" x2="818.47" y2="1297.92" gradientTransform="matrix(1, 0, 0, 1, 0, 0)" xlink:href="#linear-gradient-3"/><linearGradient id="linear-gradient-16" x1="858.48" y1="942.03" x2="728.92" y2="727.16" gradientTransform="translate(-18.11 -385.94) rotate(6.85)" xlink:href="#linear-gradient-3"/><linearGradient id="linear-gradient-17" x1="757.64" y1="436.39" x2="989.85" y2="744.42" gradientTransform="translate(-18.11 -385.94) rotate(6.85)" xlink:href="#linear-gradient-3"/><linearGradient id="linear-gradient-18" x1="-6486.67" y1="1248.46" x2="-6590.2" y2="1413.04" gradientTransform="translate(6903.59)" gradientUnits="userSpaceOnUse"><stop offset="0" stop-color="#cb236d"/><stop offset="1" stop-color="#4c246d"/></linearGradient><linearGradient id="linear-gradient-19" x1="-6390.15" y1="1365.51" x2="-6351.91" y2="1405.45" gradientTransform="translate(6903.59)" gradientUnits="userSpaceOnUse"><stop offset="0" stop-color="#2b3582"/><stop offset="1" stop-color="#150e42"/></linearGradient><linearGradient id="linear-gradient-20" x1="-6449.37" y1="1326.62" x2="-6410.35" y2="1179.64" gradientTransform="translate(6903.59)" xlink:href="#linear-gradient-5"/><linearGradient id="linear-gradient-21" x1="-6339.42" y1="1465.76" x2="-6267.09" y2="1518.85" xlink:href="#linear-gradient-19"/><linearGradient id="linear-gradient-22" x1="-6304.86" y1="1437.52" x2="-6457.05" y2="1313.2" gradientTransform="translate(6903.59)" gradientUnits="userSpaceOnUse"><stop offset="0" stop-color="#fdf53f"/><stop offset="0.66" stop-color="#e57a58"/><stop offset="1" stop-color="#d93c65"/></linearGradient><linearGradient id="linear-gradient-23" x1="-6263.57" y1="1526.66" x2="-6415.76" y2="1402.34" xlink:href="#linear-gradient-22"/><linearGradient id="linear-gradient-24" x1="-6338.38" y1="1365.06" x2="-6489.69" y2="1422.13" gradientTransform="translate(6903.59)" xlink:href="#linear-gradient-5"/><linearGradient id="linear-gradient-25" x1="-6594.39" y1="1161.34" x2="-6515.71" y2="1437.38" xlink:href="#linear-gradient-22"/><linearGradient id="linear-gradient-26" x1="-6573.59" y1="1211.4" x2="-6569.98" y2="1178.86" gradientTransform="translate(6903.59)" gradientUnits="userSpaceOnUse"><stop offset="0" stop-color="#f9b776"/><stop offset="1" stop-color="#f47960"/></linearGradient><linearGradient id="linear-gradient-27" x1="-6554.31" y1="1183.02" x2="-6570.25" y2="1130.46" xlink:href="#linear-gradient-26"/><linearGradient id="linear-gradient-28" x1="-6568.69" y1="1086.5" x2="-6553.87" y2="1171.01" xlink:href="#linear-gradient-19"/><linearGradient id="linear-gradient-29" x1="-6570.82" y1="1188.02" x2="-6586.75" y2="1135.46" xlink:href="#linear-gradient-26"/><linearGradient id="linear-gradient-30" x1="8247.38" y1="1274.09" x2="8347.05" y2="1274.09" gradientTransform="matrix(-1, 0, 0, 1, 8716.99, 0)" xlink:href="#linear-gradient-26"/><linearGradient id="linear-gradient-31" x1="8233.31" y1="1248.08" x2="8275.88" y2="1248.08" gradientTransform="matrix(-1, 0, 0, 1, 8716.99, 0)" xlink:href="#linear-gradient-19"/><linearGradient id="linear-gradient-32" x1="8341.59" y1="1240.45" x2="8313.17" y2="1343.37" gradientTransform="matrix(-1, 0, 0, 1, 8716.99, 0)" xlink:href="#linear-gradient-26"/><linearGradient id="linear-gradient-33" x1="8311.35" y1="1182.73" x2="8260.38" y2="1262.12" gradientTransform="matrix(-1, 0, 0, 1, 8716.99, 0)" xlink:href="#linear-gradient-22"/><linearGradient id="linear-gradient-34" x1="8242.81" y1="1236.5" x2="8217.81" y2="1277.18" gradientTransform="matrix(-1, 0, 0, 1, 8716.99, 0)" xlink:href="#linear-gradient-18"/><linearGradient id="linear-gradient-35" x1="8281.97" y1="1205.43" x2="8260.41" y2="1235.32" gradientTransform="matrix(-1, 0, 0, 1, 8716.99, 0)" xlink:href="#linear-gradient-5"/><linearGradient id="linear-gradient-36" x1="-6387.03" y1="394.6" x2="-6332.03" y2="394.6" gradientTransform="matrix(-1, 0, 0, 1, -4441.91, 0)" xlink:href="#linear-gradient-5"/><linearGradient id="linear-gradient-37" x1="-6239.12" y1="394.6" x2="-6144.44" y2="394.6" gradientTransform="matrix(-1, 0, 0, 1, -4441.91, 0)" xlink:href="#linear-gradient-5"/><linearGradient id="linear-gradient-38" x1="-6295.18" y1="486.52" x2="-6281.89" y2="486.52" gradientTransform="matrix(-1, 0, 0, 1, -4441.91, 0)" xlink:href="#linear-gradient-5"/><linearGradient id="linear-gradient-39" x1="-6111.7" y1="89.74" x2="-6541.94" y2="681.12" gradientTransform="matrix(-1, 0, 0, 1, -4441.91, 0)" xlink:href="#linear-gradient-18"/><linearGradient id="linear-gradient-40" x1="1710.57" y1="-223.57" x2="1817.57" y2="-223.57" gradientTransform="matrix(1, 0.09, -0.09, 1, 127.7, 263.23)" xlink:href="#linear-gradient-5"/><linearGradient id="linear-gradient-41" x1="1710.57" y1="-213.02" x2="1817.57" y2="-213.02" gradientTransform="translate(1690.4 -1562.17) rotate(90)" xlink:href="#linear-gradient-5"/><linearGradient id="linear-gradient-42" x1="1741.91" y1="-204.54" x2="1817.57" y2="-204.54" gradientTransform="matrix(1, 0.09, -0.09, 1, 127.7, 263.23)" xlink:href="#linear-gradient-5"/><linearGradient id="linear-gradient-43" x1="1861.94" y1="298.7" x2="1648.85" y2="603.1" xlink:href="#linear-gradient-8"/><linearGradient id="linear-gradient-44" x1="629.23" y1="-42.07" x2="723.84" y2="-179.46" gradientTransform="translate(1252.26 315.8) rotate(1.04)" xlink:href="#linear-gradient-5"/><linearGradient id="linear-gradient-45" x1="7824.88" y1="571.1" x2="7852.57" y2="571.1" gradientTransform="translate(-6108.89)" xlink:href="#linear-gradient-19"/><linearGradient id="linear-gradient-46" x1="7894.2" y1="538.44" x2="7793.47" y2="617.53" gradientTransform="translate(-6108.89)" xlink:href="#linear-gradient-5"/><linearGradient id="linear-gradient-47" x1="8332.93" y1="-116.92" x2="8226.2" y2="-6.34" gradientTransform="translate(-6316.84 -847.73) rotate(7.4)" xlink:href="#linear-gradient-5"/><linearGradient id="linear-gradient-48" x1="8278.98" y1="-48.06" x2="8226.1" y2="12.52" gradientTransform="translate(-6316.84 -847.73) rotate(7.4)" xlink:href="#linear-gradient-8"/><linearGradient id="linear-gradient-49" x1="8295.17" y1="-64.38" x2="8267.29" y2="-28.32" gradientTransform="translate(-6316.84 -847.73) rotate(7.4)" xlink:href="#linear-gradient-5"/><linearGradient id="linear-gradient-50" x1="8089.75" y1="183.65" x2="8126.67" y2="183.65" gradientTransform="translate(-6316.84 -847.73) rotate(7.4)" xlink:href="#linear-gradient-26"/><linearGradient id="linear-gradient-51" x1="7832.58" y1="539.58" x2="7827.29" y2="585.74" gradientTransform="translate(-6108.89)" xlink:href="#linear-gradient-26"/><linearGradient id="linear-gradient-52" x1="7912.09" y1="561.23" x2="7811.36" y2="640.32" gradientTransform="translate(-6108.89)" xlink:href="#linear-gradient-5"/><linearGradient id="linear-gradient-53" x1="7867.04" y1="571.84" x2="7906.9" y2="571.84" gradientTransform="translate(-6108.89)" xlink:href="#linear-gradient-19"/><linearGradient id="linear-gradient-54" x1="7875.66" y1="544.52" x2="7870.37" y2="590.67" gradientTransform="translate(-6108.89)" xlink:href="#linear-gradient-26"/><linearGradient id="linear-gradient-55" x1="7938.5" y1="333.46" x2="7769.35" y2="595.93" gradientTransform="translate(-6108.89)" xlink:href="#linear-gradient-19"/><linearGradient id="linear-gradient-56" x1="8187.34" y1="24.19" x2="8029.86" y2="369.78" gradientTransform="translate(-6316.84 -847.73) rotate(7.4)" xlink:href="#linear-gradient-18"/><linearGradient id="linear-gradient-57" x1="8262.37" y1="-8.44" x2="8225.56" y2="43.51" gradientTransform="translate(-6316.84 -847.73) rotate(7.4)" xlink:href="#linear-gradient-26"/><linearGradient id="linear-gradient-58" x1="8246.79" y1="-19.48" x2="8209.97" y2="32.46" gradientTransform="translate(-6316.84 -847.73) rotate(7.4)" xlink:href="#linear-gradient-26"/><linearGradient id="linear-gradient-59" x1="8146.26" y1="43.48" x2="8126.06" y2="130.74" gradientTransform="translate(-6316.84 -847.73) rotate(7.4)" xlink:href="#linear-gradient-26"/><linearGradient id="linear-gradient-60" x1="4651.54" y1="4185.87" x2="4615.71" y2="4233.26" gradientTransform="matrix(0.77, -0.63, 0.63, 0.77, -4495.91, -62.18)" xlink:href="#linear-gradient-26"/><linearGradient id="linear-gradient-61" x1="4624.18" y1="4197.25" x2="4666.97" y2="4197.25" gradientTransform="matrix(0.77, -0.63, 0.63, 0.77, -4495.91, -62.18)" xlink:href="#linear-gradient-19"/><linearGradient id="linear-gradient-62" x1="4599.07" y1="4223.4" x2="4627.8" y2="4193.92" gradientTransform="matrix(0.77, -0.63, 0.63, 0.77, -4495.91, -62.18)" xlink:href="#linear-gradient-26"/><linearGradient id="linear-gradient-63" x1="8129.25" y1="63.48" x2="8087.45" y2="140.27" gradientTransform="translate(-6316.84 -847.73) rotate(7.4)" xlink:href="#linear-gradient-18"/><linearGradient id="linear-gradient-64" x1="7843.64" y1="403.93" x2="7829.45" y2="429.18" gradientTransform="translate(-6108.89)" xlink:href="#linear-gradient-19"/><linearGradient id="linear-gradient-65" x1="1928.31" y1="1256.96" x2="2088.28" y2="1366.88" gradientTransform="matrix(1, 0, 0, 1, 0, 0)" xlink:href="#linear-gradient-3"/><linearGradient id="linear-gradient-66" x1="1934.74" y1="1090.09" x2="2149.34" y2="1237.55" gradientTransform="matrix(1, 0, 0, 1, 0, 0)" xlink:href="#linear-gradient-3"/><linearGradient id="linear-gradient-67" x1="2180.87" y1="1109.96" x2="2096" y2="1359.42" gradientTransform="matrix(1, 0, 0, 1, 0, 0)" xlink:href="#linear-gradient-3"/><linearGradient id="linear-gradient-68" x1="12569.8" y1="1495.47" x2="12593.51" y2="1346.29" gradientTransform="translate(-10487.12)" xlink:href="#linear-gradient-18"/><linearGradient id="linear-gradient-69" x1="12579.06" y1="1496.55" x2="12603.44" y2="1343.22" gradientTransform="translate(-10487.12)" xlink:href="#linear-gradient-18"/><linearGradient id="linear-gradient-70" x1="-53.85" y1="1461.85" x2="-73.22" y2="1499.94" gradientTransform="matrix(-1, 0, 0, 1, 1952.51, 0)" xlink:href="#linear-gradient-19"/><linearGradient id="linear-gradient-71" x1="-90.69" y1="1477.01" x2="-71.39" y2="1477.01" gradientTransform="matrix(-1, 0, 0, 1, 1952.51, 0)" xlink:href="#linear-gradient-26"/><linearGradient id="linear-gradient-72" x1="-117.39" y1="1425.95" x2="-35.39" y2="1311.02" gradientTransform="matrix(-1, 0, 0, 1, 1952.51, 0)" gradientUnits="userSpaceOnUse"><stop offset="0" stop-color="#2b3582"/><stop offset="0.23" stop-color="#252a70"/><stop offset="0.73" stop-color="#19164f"/><stop offset="1" stop-color="#150e42"/></linearGradient><linearGradient id="linear-gradient-73" x1="-65.09" y1="1500.36" x2="-132.24" y2="1588.17" gradientTransform="matrix(-1, 0, 0, 1, 1952.51, 0)" xlink:href="#linear-gradient-19"/><linearGradient id="linear-gradient-74" x1="-98.7" y1="1519.38" x2="-46.81" y2="1519.38" gradientTransform="matrix(-1, 0, 0, 1, 1952.51, 0)" xlink:href="#linear-gradient-5"/><linearGradient id="linear-gradient-75" x1="-104.64" y1="1494.81" x2="-86.53" y2="1494.81" gradientTransform="matrix(-1, 0, 0, 1, 1952.51, 0)" xlink:href="#linear-gradient-26"/><linearGradient id="linear-gradient-76" x1="-146.94" y1="1483.22" x2="-142.42" y2="1329.55" gradientTransform="matrix(-1, 0, 0, 1, 1952.51, 0)" xlink:href="#linear-gradient-19"/><linearGradient id="linear-gradient-77" x1="542.07" y1="666.33" x2="726.95" y2="480.12" gradientTransform="matrix(-1, 0, 0, 1, 1952.51, 0)" xlink:href="#linear-gradient-5"/><linearGradient id="linear-gradient-78" x1="-49.3" y1="1285.98" x2="13.87" y2="1285.98" gradientTransform="matrix(-1, 0, 0, 1, 1952.51, 0)" xlink:href="#linear-gradient-26"/><linearGradient id="linear-gradient-79" x1="-78.44" y1="1210.32" x2="-220.49" y2="1313.63" gradientTransform="matrix(-1, 0, 0, 1, 1952.51, 0)" xlink:href="#linear-gradient-5"/><linearGradient id="linear-gradient-80" x1="-109.58" y1="1192.75" x2="-67.66" y2="1192.75" gradientTransform="matrix(-1, 0, 0, 1, 1952.51, 0)" xlink:href="#linear-gradient-26"/><linearGradient id="linear-gradient-81" x1="-98.81" y1="1182.31" x2="-240.86" y2="1285.62" gradientTransform="matrix(-1, 0, 0, 1, 1952.51, 0)" xlink:href="#linear-gradient-5"/><linearGradient id="linear-gradient-82" x1="230.82" y1="571.22" x2="274.04" y2="498.73" gradientTransform="matrix(-1, 0, 0, 1, 1952.51, 0)" xlink:href="#linear-gradient-5"/><linearGradient id="linear-gradient-83" x1="-138.16" y1="1286.74" x2="-298.63" y2="1565.59" gradientTransform="matrix(-1, 0, 0, 1, 1952.51, 0)" xlink:href="#linear-gradient-26"/><linearGradient id="linear-gradient-84" x1="189.71" y1="-454.66" x2="137.32" y2="-385.34" gradientTransform="matrix(-0.97, -0.25, -0.25, 0.97, 2085.95, 1633.11)" xlink:href="#linear-gradient-26"/><linearGradient id="linear-gradient-85" x1="149.7" y1="-437.94" x2="212.29" y2="-437.94" gradientTransform="matrix(-0.97, -0.25, -0.25, 0.97, 2085.95, 1633.11)" xlink:href="#linear-gradient-19"/><linearGradient id="linear-gradient-86" x1="112.97" y1="-399.77" x2="155" y2="-442.88" gradientTransform="matrix(-0.97, -0.25, -0.25, 0.97, 2085.95, 1633.11)" xlink:href="#linear-gradient-26"/><linearGradient id="linear-gradient-87" x1="12464.74" y1="1988.36" x2="12382.58" y2="2010.88" gradientTransform="translate(-10478.45 -86.8) rotate(-2.83)" xlink:href="#linear-gradient-19"/><linearGradient id="linear-gradient-88" x1="12445.47" y1="1230.33" x2="12387.17" y2="1291.95" gradientTransform="translate(-10487.12)" xlink:href="#linear-gradient-19"/><linearGradient id="linear-gradient-89" x1="12410.23" y1="1245.68" x2="12383.77" y2="1285.51" gradientTransform="translate(-10487.12)" xlink:href="#linear-gradient-5"/><linearGradient id="linear-gradient-90" x1="12354.97" y1="1423.95" x2="12453.42" y2="1423.95" gradientTransform="translate(-10487.12)" gradientUnits="userSpaceOnUse"><stop offset="0" stop-color="#9cfffb"/><stop offset="1" stop-color="#9bfffa"/></linearGradient><linearGradient id="linear-gradient-91" x1="12366.34" y1="1423.95" x2="12464.79" y2="1423.95" xlink:href="#linear-gradient-90"/><linearGradient id="linear-gradient-92" x1="12633.18" y1="1423.95" x2="12731.63" y2="1423.95" xlink:href="#linear-gradient-90"/><linearGradient id="linear-gradient-93" x1="12644.55" y1="1423.95" x2="12743" y2="1423.95" xlink:href="#linear-gradient-90"/><linearGradient id="linear-gradient-94" x1="12331.76" y1="1320.62" x2="12749.33" y2="1320.62" xlink:href="#linear-gradient-90"/><linearGradient id="linear-gradient-95" x1="1828.4" y1="1168.22" x2="1917.82" y2="1168.22" gradientTransform="translate(-73.68 -45.34) rotate(2.42)" gradientUnits="userSpaceOnUse"><stop offset="0" stop-color="#7a2ddb"/><stop offset="1" stop-color="#7077ff"/></linearGradient><linearGradient id="linear-gradient-96" x1="6371.45" y1="778.07" x2="6472.35" y2="778.07" gradientTransform="matrix(-0.97, 0.23, 0.23, 0.97, 7710.87, -926.83)" gradientUnits="userSpaceOnUse"><stop offset="0" stop-color="#ce1567"/><stop offset="1" stop-color="#7a1dbc"/></linearGradient><linearGradient id="linear-gradient-97" x1="1759.39" y1="1192.77" x2="1697.02" y2="1469.24" gradientUnits="userSpaceOnUse"><stop offset="0" stop-color="#233894"/><stop offset="1" stop-color="#dd397a"/></linearGradient><linearGradient id="linear-gradient-98" x1="1717.74" y1="1295.7" x2="1712.08" y2="1481.29" xlink:href="#linear-gradient-97"/><linearGradient id="linear-gradient-99" x1="1764.86" y1="1245.97" x2="1865.73" y2="1245.97" gradientTransform="matrix(1, 0, 0, 1, 0, 0)" xlink:href="#linear-gradient-96"/><linearGradient id="linear-gradient-100" x1="1733.77" y1="1262.82" x2="1780.85" y2="1471.56" xlink:href="#linear-gradient-97"/><linearGradient id="linear-gradient-101" x1="1711.32" y1="1603.94" x2="1737.47" y2="1476.09" gradientUnits="userSpaceOnUse"><stop offset="0" stop-color="#c32b78"/><stop offset="1" stop-color="#593092"/></linearGradient><linearGradient id="linear-gradient-102" x1="1356.44" y1="569.18" x2="1316.13" y2="788.87" gradientTransform="matrix(1, 0, 0, 1, 0, 0)" xlink:href="#linear-gradient-3"/><linearGradient id="linear-gradient-103" x1="1393.69" y1="548.95" x2="1081.3" y2="1000.42" gradientTransform="matrix(1, 0, 0, 1, 0, 0)" xlink:href="#linear-gradient-22"/><linearGradient id="linear-gradient-104" x1="1044.41" y1="-6109.52" x2="935.51" y2="-6004.23" gradientTransform="matrix(-1.39, -0.07, -0.07, 1.39, -6236.51, -215.95)" xlink:href="#linear-gradient-90"/><linearGradient id="linear-gradient-105" x1="-695.79" y1="-5574.31" x2="-804.69" y2="-5469.02" gradientTransform="matrix(0.65, -1.23, -1.23, -0.65, 7293.9, -7927.84)" xlink:href="#linear-gradient-90"/><linearGradient id="linear-gradient-106" x1="1409.78" y1="741.63" x2="1464.36" y2="741.63" gradientTransform="matrix(1, 0, 0, 1, 0, 0)" xlink:href="#linear-gradient-18"/><linearGradient id="linear-gradient-107" x1="1451.83" y1="636.69" x2="1436.92" y2="739.71" gradientTransform="matrix(1, 0, 0, 1, 0, 0)" xlink:href="#linear-gradient-18"/><linearGradient id="linear-gradient-108" x1="1412.51" y1="725.18" x2="1427.28" y2="725.18" gradientTransform="matrix(1, 0, 0, 1, 0, 0)" xlink:href="#linear-gradient-26"/><linearGradient id="linear-gradient-109" x1="1495.38" y1="730.81" x2="1539.45" y2="730.81" gradientTransform="matrix(1, 0, 0, 1, 0, 0)" xlink:href="#linear-gradient-18"/><linearGradient id="linear-gradient-110" x1="1525.69" y1="647.38" x2="1510.78" y2="750.4" gradientTransform="matrix(1, 0, 0, 1, 0, 0)" xlink:href="#linear-gradient-18"/><linearGradient id="linear-gradient-111" x1="1330.86" y1="658.55" x2="1447.75" y2="658.55" gradientTransform="matrix(1, 0, 0, 1, 0, 0)" xlink:href="#linear-gradient-19"/><linearGradient id="linear-gradient-112" x1="1482.45" y1="726.43" x2="1500.08" y2="726.43" gradientTransform="matrix(1, 0, 0, 1, 0, 0)" xlink:href="#linear-gradient-26"/><linearGradient id="linear-gradient-113" x1="1437.04" y1="609.85" x2="1308.71" y2="755.35" gradientTransform="matrix(1, 0, 0, 1, 0, 0)" xlink:href="#linear-gradient-19"/><linearGradient id="linear-gradient-114" x1="1384.53" y1="478" x2="1393.22" y2="456.09" gradientTransform="matrix(1, 0, 0, 1, 0, 0)" xlink:href="#linear-gradient-26"/><linearGradient id="linear-gradient-115" x1="1381.21" y1="600.86" x2="1371.76" y2="389.94" gradientTransform="matrix(1, 0, 0, 1, 0, 0)" xlink:href="#linear-gradient-18"/><linearGradient id="linear-gradient-116" x1="1417.78" y1="457.39" x2="1403.92" y2="485.12" gradientTransform="matrix(1, 0, 0, 1, 0, 0)" xlink:href="#linear-gradient-18"/><linearGradient id="linear-gradient-117" x1="1458.78" y1="563.24" x2="1499.5" y2="563.24" gradientTransform="matrix(1, 0, 0, 1, 0, 0)" xlink:href="#linear-gradient-26"/><linearGradient id="linear-gradient-118" x1="3374.84" y1="1034.03" x2="3331.2" y2="1067.42" gradientTransform="translate(-2069.8 -150.95) rotate(-7.5)" xlink:href="#linear-gradient-26"/><linearGradient id="linear-gradient-119" x1="3344.18" y1="1007.67" x2="3383.7" y2="1058.55" gradientTransform="translate(-2069.8 -150.95) rotate(-7.5)" xlink:href="#linear-gradient-19"/><linearGradient id="linear-gradient-120" x1="3369.42" y1="1026.95" x2="3325.79" y2="1060.34" gradientTransform="translate(-2069.8 -150.95) rotate(-7.5)" xlink:href="#linear-gradient-26"/><linearGradient id="_35" x1="1340.48" y1="512.13" x2="1028.08" y2="963.6" gradientUnits="userSpaceOnUse"><stop offset="0" stop-color="#fdf53f"/><stop offset="0.66" stop-color="#e57a58"/><stop offset="0.75" stop-color="#e26a5b"/><stop offset="1" stop-color="#d93c65"/></linearGradient><linearGradient id="linear-gradient-121" x1="1290.62" y1="557.1" x2="1250.31" y2="776.79" gradientTransform="matrix(1, 0, 0, 1, 0, 0)" xlink:href="#linear-gradient-3"/><linearGradient id="linear-gradient-122" x1="1465.61" y1="758.4" x2="1473.75" y2="950.21" gradientTransform="matrix(1, 0, 0, 1, 0, 0)" xlink:href="#linear-gradient-5"/><linearGradient id="linear-gradient-123" x1="1521.21" y1="756.04" x2="1529.34" y2="947.86" gradientTransform="matrix(1, 0, 0, 1, 0, 0)" xlink:href="#linear-gradient-5"/><linearGradient id="linear-gradient-124" x1="1497.04" y1="757.06" x2="1505.17" y2="948.88" gradientTransform="matrix(1, 0, 0, 1, 0, 0)" xlink:href="#linear-gradient-5"/><linearGradient id="linear-gradient-125" x1="1487.71" y1="570.7" x2="1472.72" y2="681.55" gradientTransform="matrix(1, 0, 0, 1, 0, 0)" xlink:href="#linear-gradient-19"/><linearGradient id="linear-gradient-126" x1="2125.85" y1="705.71" x2="2084.51" y2="931" gradientTransform="translate(-1181.67)" xlink:href="#linear-gradient-3"/><linearGradient id="linear-gradient-127" x1="2110.98" y1="651.62" x2="2099.56" y2="861.23" gradientTransform="translate(-1181.67)" xlink:href="#linear-gradient-18"/><linearGradient id="linear-gradient-128" x1="10910.95" y1="753.06" x2="10790.88" y2="821.59" gradientTransform="matrix(-1, 0, 0, 1, 11648.98, 0)" xlink:href="#linear-gradient-26"/><linearGradient id="linear-gradient-129" x1="-2471.86" y1="-2286.39" x2="-2481.08" y2="-2145.06" gradientTransform="translate(3980.73 1782.81) rotate(-26.18)" xlink:href="#linear-gradient-18"/><linearGradient id="linear-gradient-130" x1="10899.33" y1="770.15" x2="11310.15" y2="512.98" gradientTransform="matrix(-1, 0, 0, 1, 11648.98, 0)" xlink:href="#linear-gradient-26"/><linearGradient id="linear-gradient-131" x1="-1565.37" y1="-3419.83" x2="-1574.59" y2="-3278.51" gradientTransform="matrix(0.79, -0.61, 0.61, 0.79, 4109.31, 2595.02)" xlink:href="#linear-gradient-18"/><linearGradient id="linear-gradient-132" x1="2966.78" y1="667.01" x2="2868.03" y2="775.23" gradientTransform="matrix(-1, 0, 0, 1, 3817.28, 0)" xlink:href="#linear-gradient-19"/><linearGradient id="linear-gradient-133" x1="-5708.69" y1="640.65" x2="-5679.16" y2="714.71" gradientTransform="translate(6053.35 -1959.12) rotate(-19.17)" xlink:href="#linear-gradient-19"/><linearGradient id="linear-gradient-134" x1="10773.76" y1="622.18" x2="10490.71" y2="895.21" gradientTransform="matrix(-1, 0, 0, 1, 11648.98, 0)" gradientUnits="userSpaceOnUse"><stop offset="0" stop-color="#2c50ff"/><stop offset="1" stop-color="#1a1b80"/></linearGradient><linearGradient id="linear-gradient-135" x1="-3540.19" y1="713.56" x2="-3420.58" y2="713.56" gradientTransform="translate(4488.51)" xlink:href="#linear-gradient-26"/><linearGradient id="linear-gradient-136" x1="-5356.32" y1="214.88" x2="-5350.47" y2="172.11" gradientTransform="translate(6226.63 58.02) rotate(-4.11)" xlink:href="#linear-gradient-26"/><linearGradient id="linear-gradient-137" x1="-7125.02" y1="-1251.15" x2="-7069.97" y2="-1349.13" gradientTransform="matrix(0.97, -0.25, 0.25, 0.97, 8091.35, 23.18)" xlink:href="#linear-gradient-26"/><linearGradient id="linear-gradient-138" x1="-7113.18" y1="-1336.48" x2="-7085.66" y2="-1267.42" gradientTransform="matrix(0.97, -0.25, 0.25, 0.97, 8091.35, 23.18)" xlink:href="#linear-gradient-19"/><linearGradient id="linear-gradient-139" x1="-7113.3" y1="-1244.57" x2="-7058.25" y2="-1342.55" gradientTransform="matrix(0.97, -0.25, 0.25, 0.97, 8091.35, 23.18)" xlink:href="#linear-gradient-26"/><linearGradient id="linear-gradient-140" x1="-3589.4" y1="622.4" x2="-3651.97" y2="639.55" gradientTransform="translate(4497.19 -86.8) rotate(-2.83)" xlink:href="#linear-gradient-5"/><linearGradient id="linear-gradient-141" x1="7843.04" y1="702.1" x2="8405.79" y2="654.76" gradientTransform="translate(-7062.6)" xlink:href="#linear-gradient-19"/><linearGradient id="linear-gradient-142" x1="-3657.2" y1="683.44" x2="-3677.34" y2="713.77" gradientTransform="translate(4488.51)" xlink:href="#linear-gradient-5"/><linearGradient id="linear-gradient-143" x1="-5874.99" y1="1486.73" x2="-5779.59" y2="1697.12" gradientTransform="matrix(-1, 0.06, 0.04, 0.67, -4793.53, 99.84)" xlink:href="#linear-gradient-18"/><linearGradient id="linear-gradient-144" x1="-5746.34" y1="1490.97" x2="-5652.32" y2="1698.3" gradientTransform="matrix(-0.99, 0.15, 0.13, 0.81, -4763.4, 385.28)" xlink:href="#linear-gradient-18"/><linearGradient id="linear-gradient-145" x1="-5513.7" y1="2347.61" x2="-5420.2" y2="2553.78" gradientTransform="matrix(-0.96, 0.29, 0.2, 0.66, -4665.73, 800.62)" xlink:href="#linear-gradient-18"/><linearGradient id="linear-gradient-146" x1="1080.13" y1="930.92" x2="1097.54" y2="845.79" gradientTransform="matrix(1, 0, 0, 1, 0, 0)" xlink:href="#linear-gradient-3"/><linearGradient id="linear-gradient-147" x1="5929.06" y1="893.95" x2="5884.67" y2="1135.87" gradientTransform="matrix(-1, 0, 0, 1, 6423.69, 0)" xlink:href="#linear-gradient-8"/><linearGradient id="linear-gradient-148" x1="488.43" y1="735.97" x2="516.65" y2="1052.4" xlink:href="#linear-gradient-8"/><linearGradient id="linear-gradient-149" x1="-7264.77" y1="995.23" x2="-7206.46" y2="995.23" gradientTransform="translate(7828.55)" xlink:href="#linear-gradient-18"/><linearGradient id="linear-gradient-150" x1="-7219.84" y1="883.1" x2="-7235.78" y2="993.18" gradientTransform="translate(7828.55)" xlink:href="#linear-gradient-18"/><linearGradient id="linear-gradient-151" x1="-7261.86" y1="977.66" x2="-7246.08" y2="977.66" gradientTransform="translate(7828.55)" gradientUnits="userSpaceOnUse"><stop offset="0" stop-color="#c4421b"/><stop offset="1" stop-color="#5c0e16"/></linearGradient><linearGradient id="linear-gradient-152" x1="-7173.31" y1="983.67" x2="-7126.23" y2="983.67" gradientTransform="translate(7828.55)" xlink:href="#linear-gradient-18"/><linearGradient id="linear-gradient-153" x1="-7140.92" y1="894.52" x2="-7156.86" y2="1004.6" gradientTransform="translate(7828.55)" xlink:href="#linear-gradient-18"/><linearGradient id="linear-gradient-154" x1="-7349.1" y1="906.46" x2="-7224.2" y2="906.46" gradientTransform="translate(7828.55)" xlink:href="#linear-gradient-19"/><linearGradient id="linear-gradient-155" x1="-7187.13" y1="978.98" x2="-7168.29" y2="978.98" xlink:href="#linear-gradient-151"/><linearGradient id="linear-gradient-156" x1="-7235.65" y1="854.42" x2="-7372.77" y2="1009.89" gradientTransform="translate(7828.55)" xlink:href="#linear-gradient-19"/><linearGradient id="linear-gradient-157" x1="-7306.35" y1="700.25" x2="-7259.41" y2="700.25" xlink:href="#linear-gradient-151"/><linearGradient id="linear-gradient-158" x1="-7386.01" y1="771.56" x2="-7206.61" y2="771.56" gradientTransform="translate(7828.55)" xlink:href="#linear-gradient-3"/><linearGradient id="linear-gradient-159" x1="-7297.01" y1="759.59" x2="-7283.51" y2="759.59" gradientTransform="translate(7828.55)" xlink:href="#linear-gradient-18"/><linearGradient id="linear-gradient-160" x1="-7212.42" y1="804.62" x2="-7168.91" y2="804.62" xlink:href="#linear-gradient-151"/><linearGradient id="linear-gradient-161" x1="-8359.03" y1="872.98" x2="-8325.24" y2="872.98" gradientTransform="translate(8706.72 -1368.42) rotate(-8.21)" xlink:href="#linear-gradient-151"/><linearGradient id="linear-gradient-162" x1="-7528.51" y1="1186.81" x2="-7477.93" y2="1186.81" gradientTransform="translate(7830.22 -1579.8) rotate(-8.21)" xlink:href="#linear-gradient-19"/><linearGradient id="linear-gradient-163" x1="-8362.41" y1="867.46" x2="-8352" y2="867.46" gradientTransform="translate(8706.72 -1368.42) rotate(-8.21)" xlink:href="#linear-gradient-151"/><linearGradient id="linear-gradient-164" x1="7720.12" y1="-6065.3" x2="7603.76" y2="-5952.8" gradientTransform="matrix(-1.39, -0.07, -0.07, 1.39, 1592.04, -215.95)" xlink:href="#linear-gradient-90"/><linearGradient id="linear-gradient-165" x1="-3299.85" y1="-565.68" x2="-3416.21" y2="-453.18" gradientTransform="matrix(0.65, -1.23, -1.23, -0.65, 15122.46, -7927.84)" xlink:href="#linear-gradient-90"/><linearGradient id="linear-gradient-166" x1="-7205.12" y1="1013.14" x2="-7196.43" y2="1218.1" gradientTransform="translate(7828.55)" xlink:href="#linear-gradient-5"/><linearGradient id="linear-gradient-167" x1="-7145.71" y1="1010.63" x2="-7137.02" y2="1215.58" gradientTransform="translate(7828.55)" xlink:href="#linear-gradient-5"/><linearGradient id="linear-gradient-168" x1="-7171.54" y1="1011.72" x2="-7162.85" y2="1216.68" gradientTransform="translate(7828.55)" xlink:href="#linear-gradient-5"/><linearGradient id="linear-gradient-169" x1="-7181.51" y1="812.59" x2="-7197.52" y2="931.03" gradientTransform="translate(7828.55)" xlink:href="#linear-gradient-19"/></defs><title>88</title><g id="Illustration"><path class="cls-1" d="M2229.29,915.06c-33.08-13.81-70.94-13-107.08-17.14S2047,882,2029.32,853.18c-16.26-26.44-9.44-60.4,7.74-86.36s43.23-45.89,67.71-66.5c55.61-46.81,106.14-100.7,133.9-164.69s30.23-139.45-6.85-199.44-118.26-98.88-191.65-81.2c-36.57,8.81-67.88,29.83-102.32,44s-77.31,20.76-108.44,1.29c-30.86-19.31-39.16-56.44-56.83-86.39-30.36-51.49-91.46-83.34-154.2-96.84-91.49-19.68-191.51-4.44-270.84,41.27s-180.11,85.5-180.11,85.5c-84.89,25.74-140.8,66.37-215.16,21.23-98.67-59.9-213.8-102.38-332.61-101.94S378.83,211.94,314,302.07s-59.14,222.12,26.75,296.42c30.58,26.46,69,44.81,98.49,72.27s49,69.89,30,104.1C442.68,822.65,368.53,820,311.56,834.31,228.91,855,166.62,929.36,166.88,1007s63.05,151.61,145.84,171.86c29.82,7.29,61.88,8.37,89.44,21s49.18,43.26,35.59,68.38c-5.68,10.49-16.44,18.09-22.55,28.38-14.61,24.63,3.24,56.76,30,70.75s59.19,14.65,90.08,14.94l1307.4,12.53c64.67.62,131.12,1,191.52-19.95,81-28.07,140.8-90.73,191.39-154.52,37.66-47.49,73.18-99.16,81.17-157.17S2288,939.53,2229.29,915.06Z"/><path class="cls-2" d="M456,137.3c-148.84,56.32-267.55,226.11-250.3,357.43,15.83,120.39,137.28,142.66,155.7,279,21,155.59-125.25,214.62-93.57,306.64,46.61,135.4,372.65,34.81,835.8,218.81C1209,1341,1258.4,1372.57,1366.08,1388c178.54,25.66,226.56-34.61,470.34-50.34,254.79-16.44,362.62,39,409.56-27.18,41.86-59.06-34.54-116.39-32.91-291.25,1.33-143.51,53.33-161.22,58.43-302.17,1.65-45.84,7-194.69-85.73-335.57-83.14-126.26-231-224.66-388.3-240.06C1568,119,1518.36,266.49,1271,304.37,898.84,361.36,730.14,33.55,456,137.3Z"/><g class="cls-3"><path class="cls-4" d="M2168.64,251.15a5.52,5.52,0,0,0-10.67-.9c-17.71,52.57-68.46,189-139.37,259.08-115.45,114.16-198.19,304.93-133.36,409.27C1885.24,918.6,2268.79,868.23,2168.64,251.15Z"/><path class="cls-5" d="M2153.85,326.7c-.23,1.66-.56,3.1-.85,4.62l-1,4.5-2,9c-1.38,6-2.82,11.93-4.28,17.89q-4.42,17.85-9.26,35.6C2130,422,2123,445.44,2115.54,468.82s-15.43,46.57-23.92,69.59l-3.17,8.64-3.28,8.59c-2.21,5.72-4.32,11.48-6.63,17.17l-6.81,17.09-7.06,17a1193.41,1193.41,0,0,1-65.06,132c-1.49,2.68-3.07,5.31-4.68,7.93l-4.76,7.88-4.77,7.87c-1.62,2.61-3.31,5.17-5,7.76-3.35,5.14-6.58,10.36-10,15.44L1960,801a649.88,649.88,0,0,1-45.9,57.52.62.62,0,0,1-.94-.82h0a697,697,0,0,0,44.72-58.16l10.24-15.23c3.38-5.09,6.55-10.33,9.83-15.49,1.62-2.59,3.28-5.16,4.87-7.78l4.66-7.9,4.67-7.89c1.57-2.63,3.12-5.27,4.58-8l9-16c3-5.35,5.76-10.79,8.64-16.18,1.43-2.71,2.89-5.4,4.29-8.12l4.12-8.19,4.12-8.2c1.39-2.73,2.76-5.46,4.06-8.23,10.75-22,20.63-44.38,30.3-66.87,19.15-45.06,36-91.08,51.36-137.57Q2124,433,2134.16,397.64q5.09-17.65,9.81-35.4c1.55-5.93,3.08-11.85,4.56-17.8l2.15-8.92,1-4.47c.31-1.48.67-3,.9-4.4l0-.13a.62.62,0,0,1,1.22.18Z"/></g><g class="cls-6"><path class="cls-7" d="M2011,1021.47s-2-60.11,54.39-111.06c52.36-47.27,181.51-155.29,209-222.54,1.22-3,6-1.24,6.19,2.28,2.44,37.73,1.24,131.07-57.69,214.11C2146.82,1011.34,2011,1021.47,2011,1021.47Z"/><path class="cls-8" d="M2256.4,751.64a117.73,117.73,0,0,1-3.67,22A191.65,191.65,0,0,1,2246,795a214.17,214.17,0,0,1-20.58,39.85c-16.08,25.36-37.84,46.75-60.69,65.72-5.7,4.79-11.46,9.51-17.22,14.21s-11.64,9.29-17.54,13.82-11.81,9-17.74,13.54l-18,13.22c-12,8.78-24,17.53-35.56,26.71q-8.76,6.81-16.8,14.41c-2.56,2.64-5.26,5.17-7.58,8a96.83,96.83,0,0,0-6.79,8.68l0,0a.71.71,0,0,1-1.18-.78,105.29,105.29,0,0,1,13.81-17.72c5.24-5.33,10.72-10.45,16.41-15.26,11.37-9.67,23.26-18.61,35-27.7l17.63-13.61c5.86-4.54,11.75-9.06,17.54-13.67q17.46-13.78,34.49-28.07c5.6-4.84,11.39-9.53,16.73-14.56l8.16-7.44c2.62-2.58,5.14-5.27,7.71-7.89l3.84-4c1.33-1.29,2.43-2.77,3.66-4.13l7.23-8.34c2.32-2.85,4.5-5.82,6.76-8.72,1.1-1.48,2.27-2.9,3.33-4.41l3.1-4.56A228.48,228.48,0,0,0,2243.38,794c1.35-3.43,2.91-6.79,4.18-10.25s2.58-6.93,3.61-10.48,2.07-7.1,3-10.7a105.82,105.82,0,0,0,2.09-10.9.11.11,0,0,1,.1-.09A.11.11,0,0,1,2256.4,751.64Z"/></g><g class="cls-9"><path class="cls-10" d="M500.18,301.55a7.59,7.59,0,0,1,11.46-6.48c77.13,45.66,515.12,329.71,322.4,788.59C834,1083.66,497.56,970.89,500.18,301.55Z"/><path class="cls-11" d="M544.69,377.8a1.31,1.31,0,0,1,1.83.28c17,23.06,33.52,46.45,49.83,70s32.33,47.27,48.08,71.19c31.5,47.82,61.94,96.36,90.86,145.81s56.36,99.82,81,151.59Q835,855.41,850.7,895.53c10.43,26.73,19.83,53.93,27,81.82a3.11,3.11,0,1,1-6,1.56v0h0c-7-27.6-16.16-54.64-26.39-81.27s-21.57-52.87-33.8-78.69c-24.32-51.71-51.47-102.1-80-151.63s-58.77-98.17-90-146.11q-23.41-36-47.67-71.37c-16.17-23.6-32.56-47.07-49.4-70.16h0A1.31,1.31,0,0,1,544.69,377.8Z"/></g><g class="cls-9"><path class="cls-12" d="M1035,160.82a8.22,8.22,0,0,1,14.24-.66c52.3,81.91,337.18,571-73.72,920.72C975.55,1080.88,705.12,807.2,1035,160.82Z"/><path class="cls-11" d="M1042.32,257.56c5.17,30.63,9.7,61.33,14,92.08s8.15,61.55,11.69,92.39,6.71,61.73,9.52,92.65,5.11,61.89,7,92.88c3.75,62,5.69,124.14,4.23,186.29q-.94,46.6-5.33,93.11c-3,31-7.21,61.87-13.88,92.37a3.11,3.11,0,0,1-6.07-1.33v0h0c6.74-30.12,11.08-60.8,14.2-91.57s5-61.72,5.75-92.69c1.76-61.94.12-124-3.32-185.89q-2.67-46.43-6.59-92.79t-9.07-92.6q-5.07-46.24-11.23-92.37c-4.12-30.74-8.5-61.47-13.51-92.06h0a1.31,1.31,0,1,1,2.59-.43Z"/></g><g class="cls-13"><path class="cls-14" d="M255.87,416.66a6,6,0,0,1,11.48-1.34c21,56.11,80.55,201.53,159.55,274.7,128.63,119.14,224.65,322.11,158.36,437C585.26,1127,169.53,1086.19,255.87,416.66Z"/><path class="cls-5" d="M276.34,497.55c.29,1.36.75,3.05,1.15,4.62l1.31,4.77,2.73,9.52,5.65,19q5.79,19,12,37.78,12.33,37.68,26,74.89c18.43,49.53,38.15,98.59,60.48,146.46,11.26,23.88,22.63,47.71,35,71s25.25,46.37,39,68.87c27.41,45.08,58.21,88.16,93.65,127.37a1.18,1.18,0,0,1-1.71,1.63,685.49,685.49,0,0,1-52-60.19c-16.12-21.1-31-43.11-45.27-65.48a1266.25,1266.25,0,0,1-75.1-140.25c-11.14-24.08-21.47-48.5-31.46-73.06s-19.4-49.35-28.12-74.38S302.5,600,294.81,574.64q-5.73-19-11.07-38.18c-1.75-6.39-3.5-12.78-5.14-19.19l-2.41-9.65L275,502.78c-.36-1.66-.75-3.16-1.06-5.06a1.17,1.17,0,0,1,2.3-.44Z"/></g><path class="cls-15" d="M1678.57,574.6h431.48A40.42,40.42,0,0,1,2150.48,615v776.73a0,0,0,0,1,0,0H1638.15a0,0,0,0,1,0,0V615A40.42,40.42,0,0,1,1678.57,574.6Z"/><path class="cls-16" d="M1620.94,574.6h431.48A40.42,40.42,0,0,1,2092.84,615v776.73a0,0,0,0,1,0,0H1580.52a0,0,0,0,1,0,0V615A40.42,40.42,0,0,1,1620.94,574.6Z"/><path class="cls-17" d="M1203.31,739.78h481a40.42,40.42,0,0,1,40.42,40.42v610.95a0,0,0,0,1,0,0H1162.89a0,0,0,0,1,0,0V780.2A40.42,40.42,0,0,1,1203.31,739.78Z"/><path class="cls-18" d="M1130.8,739.78h481a40.42,40.42,0,0,1,40.42,40.42v610.95a0,0,0,0,1,0,0H1090.38a0,0,0,0,1,0,0V780.2A40.42,40.42,0,0,1,1130.8,739.78Z"/><path class="cls-19" d="M851.3,887.19h381.19a40.42,40.42,0,0,1,40.42,40.42V1388a0,0,0,0,1,0,0h-462a0,0,0,0,1,0,0V927.61A40.42,40.42,0,0,1,851.3,887.19Z"/><path class="cls-20" d="M782.09,887.19h381.19a40.42,40.42,0,0,1,40.42,40.42V1388a0,0,0,0,1,0,0h-462a0,0,0,0,1,0,0V927.61a40.42,40.42,0,0,1,40.42-40.42Z"/><path class="cls-21" d="M460.56,996H836a40.42,40.42,0,0,1,40.42,40.42v351.89a0,0,0,0,1,0,0H420.13a0,0,0,0,1,0,0V1036.4A40.42,40.42,0,0,1,460.56,996Z"/><path class="cls-22" d="M392.21,996H767.63a40.42,40.42,0,0,1,40.42,40.42v351.89a0,0,0,0,1,0,0H351.79a0,0,0,0,1,0,0V1036.4A40.42,40.42,0,0,1,392.21,996Z"/><path class="cls-23" d="M752,459.64a1.29,1.29,0,0,1-1.07-.57c-.94-1.4-1.93-2.79-2.94-4.14a1.29,1.29,0,1,1,2.06-1.54c1,1.38,2.05,2.81,3,4.24a1.29,1.29,0,0,1-.34,1.79A1.35,1.35,0,0,1,752,459.64Z"/><path class="cls-23" d="M662.74,628.41c-1.94,0-4,0-5.9-.13a1.29,1.29,0,0,1,.12-2.57c1.91.1,3.89.13,5.77.13,1.4,0,2.83,0,4.25-.1a1.26,1.26,0,0,1,1.35,1.23,1.29,1.29,0,0,1-1.23,1.34C665.64,628.37,664.18,628.41,662.74,628.41Zm20.65-2.09a1.29,1.29,0,0,1-.25-2.55c3.16-.63,6.34-1.41,9.46-2.33l.27-.08a1.3,1.3,0,0,1,1.6.87,1.28,1.28,0,0,1-.87,1.59l-.27.08c-3.19,1-6.45,1.75-9.69,2.4ZM708.62,618a1.29,1.29,0,0,1-.56-2.45c3-1.42,6-3,8.85-4.7a1.29,1.29,0,0,1,1.31,2.22c-2.92,1.73-6,3.35-9.06,4.81A1.29,1.29,0,0,1,708.62,618Zm22.43-14.21a1.3,1.3,0,0,1-1-.47,1.29,1.29,0,0,1,.18-1.81c2.56-2.11,5.06-4.37,7.42-6.72a1.28,1.28,0,1,1,1.81,1.82c-2.41,2.41-5,4.72-7.6,6.89A1.3,1.3,0,0,1,731.05,603.79Zm18.27-19.27a1.28,1.28,0,0,1-1-2c2-2.67,3.85-5.47,5.57-8.33a1.29,1.29,0,0,1,2.2,1.33c-1.76,2.92-3.68,5.79-5.7,8.53A1.28,1.28,0,0,1,749.32,584.52Zm13-23.13a1.24,1.24,0,0,1-.5-.1,1.28,1.28,0,0,1-.7-1.68c1.27-3.08,2.41-6.25,3.39-9.43a1.28,1.28,0,0,1,2.45.75c-1,3.26-2.16,6.51-3.46,9.66A1.3,1.3,0,0,1,762.37,561.39Zm7-25.61-.19,0a1.28,1.28,0,0,1-1.09-1.45c.48-3.3.81-6.66,1-10a1.27,1.27,0,0,1,1.35-1.22,1.29,1.29,0,0,1,1.22,1.35c-.18,3.4-.51,6.84-1,10.22A1.3,1.3,0,0,1,769.41,535.78Zm.55-26.57a1.29,1.29,0,0,1-1.28-1.15c-.34-3.31-.84-6.64-1.49-9.91a1.28,1.28,0,1,1,2.52-.5c.66,3.34,1.18,6.76,1.53,10.14a1.28,1.28,0,0,1-1.15,1.41ZM764,483.32a1.3,1.3,0,0,1-1.22-.85c-1.13-3.14-2.43-6.26-3.84-9.26a1.28,1.28,0,1,1,2.32-1.09c1.45,3.07,2.78,6.26,3.94,9.47a1.29,1.29,0,0,1-.77,1.65A1.31,1.31,0,0,1,764,483.32Z"/><path class="cls-23" d="M640.51,626.18a1.23,1.23,0,0,1-.27,0c-1.68-.35-3.39-.75-5.06-1.18a1.29,1.29,0,1,1,.64-2.49c1.63.42,3.3.81,4.94,1.15a1.28,1.28,0,0,1-.25,2.54Z"/><path class="cls-23" d="M570.48,577.41a1.3,1.3,0,0,1-1.1-.6c-.9-1.46-1.79-3-2.64-4.48a1.29,1.29,0,0,1,2.25-1.26c.83,1.49,1.69,3,2.58,4.38a1.28,1.28,0,0,1-1.09,2Z"/><path class="cls-23" d="M561.07,558.28a1.28,1.28,0,0,1-1.21-.84c-.93-2.46-1.77-5-2.52-7.51-.2-.7-.4-1.4-.59-2.09a1.29,1.29,0,1,1,2.48-.68c.18.68.38,1.36.58,2,.73,2.46,1.55,4.94,2.45,7.34a1.28,1.28,0,0,1-.75,1.66A1.41,1.41,0,0,1,561.07,558.28Zm-6.2-25.4a1.27,1.27,0,0,1-1.27-1.13c-.4-3.33-.65-6.72-.73-10.07a1.29,1.29,0,0,1,1.25-1.32,1.31,1.31,0,0,1,1.32,1.25c.08,3.28.32,6.59.71,9.84a1.28,1.28,0,0,1-1.13,1.42Zm.1-26.14h-.17a1.28,1.28,0,0,1-1.12-1.43c.42-3.33,1-6.68,1.73-9.95a1.28,1.28,0,1,1,2.51.55c-.71,3.2-1.28,6.47-1.69,9.72A1.27,1.27,0,0,1,555,506.74Zm6.38-25.34a1.27,1.27,0,0,1-.47-.09,1.29,1.29,0,0,1-.74-1.66c1.21-3.13,2.57-6.24,4.06-9.24a1.28,1.28,0,1,1,2.3,1.14c-1.45,2.93-2.78,6-4,9A1.29,1.29,0,0,1,561.35,481.4Zm12.25-23.09a1.2,1.2,0,0,1-.74-.23,1.29,1.29,0,0,1-.32-1.79c1.91-2.74,4-5.44,6.14-8a1.28,1.28,0,1,1,2,1.65c-2.11,2.51-4.13,5.14-6,7.82A1.28,1.28,0,0,1,573.6,458.31ZM591,438.83a1.28,1.28,0,0,1-.85-2.25c2.51-2.21,5.17-4.33,7.88-6.3a1.3,1.3,0,0,1,1.8.29,1.29,1.29,0,0,1-.29,1.8c-2.65,1.92-5.24,4-7.7,6.14A1.23,1.23,0,0,1,591,438.83Zm21.59-14.71a1.3,1.3,0,0,1-1.15-.7,1.28,1.28,0,0,1,.55-1.73c3-1.54,6.07-2.95,9.18-4.21a1.28,1.28,0,0,1,1,2.38c-3,1.23-6,2.61-9,4.11A1.22,1.22,0,0,1,612.6,424.12ZM637.09,415a1.28,1.28,0,0,1-.3-2.53c3.26-.79,6.59-1.43,9.91-1.92a1.29,1.29,0,0,1,.37,2.55c-3.24.47-6.5,1.1-9.68,1.86A1,1,0,0,1,637.09,415ZM673,412.53h-.13c-3.27-.33-6.58-.51-9.85-.53a1.27,1.27,0,0,1-1.27-1.29,1.29,1.29,0,0,1,1.28-1.28h0c3.35,0,6.74.2,10.08.54a1.28,1.28,0,0,1-.12,2.56Z"/><path class="cls-23" d="M694,416.75a1.65,1.65,0,0,1-.38-.05c-1.61-.5-3.25-1-4.89-1.38a1.29,1.29,0,1,1,.64-2.49c1.67.43,3.36.9,5,1.41a1.28,1.28,0,0,1-.37,2.51Z"/><path class="cls-24" d="M696.46,443.15a1.3,1.3,0,0,0-1.5.14l-12,10.28a68.91,68.91,0,0,0-22.09-3.06l-8.75-13.15a1.3,1.3,0,0,0-1.41-.54l-18.34,4.79a1.29,1.29,0,0,0-1,1.16l-1.21,15.74A69,69,0,0,0,612.41,472l-15.49-3.11a1.3,1.3,0,0,0-1.38.62L586,485.84a1.3,1.3,0,0,0,.13,1.5l10.29,12a68.91,68.91,0,0,0-3.07,22.09l-13.14,8.75a1.3,1.3,0,0,0-.54,1.41l4.79,18.34a1.29,1.29,0,0,0,1.15,1l15.75,1.21a68.79,68.79,0,0,0,13.47,17.78l-3.11,15.49a1.31,1.31,0,0,0,.61,1.38l16.36,9.58a1.3,1.3,0,0,0,1.5-.13l12-10.29A68.87,68.87,0,0,0,664.24,589L673,602.13a1.3,1.3,0,0,0,1.41.54l18.34-4.79a1.29,1.29,0,0,0,1-1.15L694.92,581a68.74,68.74,0,0,0,17.77-13.47l15.5,3.11a1.28,1.28,0,0,0,1.37-.61l9.59-16.36a1.3,1.3,0,0,0-.14-1.5l-10.28-12a68.87,68.87,0,0,0,3.06-22.09l13.15-8.75a1.3,1.3,0,0,0,.54-1.41l-4.79-18.34a1.29,1.29,0,0,0-1.16-1l-15.74-1.22a69,69,0,0,0-13.47-17.77l3.11-15.5a1.29,1.29,0,0,0-.62-1.37Z"/><path class="cls-23" d="M662.64,538.51a18.76,18.76,0,1,1,9-2.32A18.63,18.63,0,0,1,662.64,538.51Zm-.16-33.67a15,15,0,1,0,4.23.6A14.61,14.61,0,0,0,662.48,504.84Z"/><path class="cls-23" d="M662.46,567.8a47.75,47.75,0,0,1-46.2-35.65,48,48,0,0,1-1.57-12A47.75,47.75,0,0,1,650.34,474l1-.24a48,48,0,0,1,8.06-1.22l1,0,.16,3.85a43.9,43.9,0,0,0-35,20c-.34.52-.66,1.05-1,1.59a43.81,43.81,0,1,0,68.5-9.11l2.7-2.75a47.66,47.66,0,0,1-21.37,80.13A48.29,48.29,0,0,1,662.46,567.8Z"/><path class="cls-23" d="M906,377.05a1.72,1.72,0,0,1-1.47-.82c-1.16-1.9-2.42-3.77-3.75-5.54a1.72,1.72,0,1,1,2.75-2.05c1.39,1.86,2.71,3.81,3.92,5.8a1.7,1.7,0,0,1-.56,2.35A1.83,1.83,0,0,1,906,377.05Z"/><path class="cls-23" d="M853.82,488.88a1.71,1.71,0,0,1-.26-3.4,74.16,74.16,0,0,0,9.81-2.18q1.7-.51,3.36-1.08a1.71,1.71,0,1,1,1.12,3.23c-1.15.41-2.32.78-3.51,1.13a74.84,74.84,0,0,1-10.27,2.28A1.06,1.06,0,0,1,853.82,488.88ZM887.17,475a1.72,1.72,0,0,1-1-3.09,72.09,72.09,0,0,0,10.05-9.09,1.71,1.71,0,1,1,2.52,2.31,76,76,0,0,1-10.52,9.53A1.71,1.71,0,0,1,887.17,475ZM910,447a1.75,1.75,0,0,1-.73-.16,1.71,1.71,0,0,1-.82-2.27A73.61,73.61,0,0,0,913,431.79a1.71,1.71,0,1,1,3.31.85A76.89,76.89,0,0,1,911.5,446,1.71,1.71,0,0,1,910,447Zm6.85-35.46a1.7,1.7,0,0,1-1.71-1.61,72.7,72.7,0,0,0-2-13.41,1.71,1.71,0,0,1,3.32-.83,76.13,76.13,0,0,1,2.14,14,1.72,1.72,0,0,1-1.61,1.81Z"/><path class="cls-23" d="M831.25,488.78l-.28,0c-2.3-.37-4.61-.85-6.86-1.43A1.71,1.71,0,0,1,825,484c2.14.56,4.34,1,6.54,1.37a1.71,1.71,0,0,1-.26,3.4Z"/><path class="cls-23" d="M780.07,454.81a1.68,1.68,0,0,1-1.46-.8c-1.23-2-2.38-4-3.42-6.12a1.71,1.71,0,1,1,3.06-1.53c1,2,2.09,4,3.26,5.84a1.7,1.7,0,0,1-1.44,2.61Z"/><path class="cls-23" d="M769.88,427.78a1.71,1.71,0,0,1-1.69-1.43,74.91,74.91,0,0,1-1-12.15c0-.59,0-1.19,0-1.78a1.78,1.78,0,0,1,1.75-1.68,1.72,1.72,0,0,1,1.68,1.75c0,.57,0,1.13,0,1.7a72.74,72.74,0,0,0,1,11.6,1.7,1.7,0,0,1-1.4,2A1.32,1.32,0,0,1,769.88,427.78Zm2.77-35.41a1.7,1.7,0,0,1-.54-.09,1.72,1.72,0,0,1-1.09-2.16,76.93,76.93,0,0,1,5.61-12.79,1.71,1.71,0,1,1,3,1.66,73.67,73.67,0,0,0-5.36,12.21A1.71,1.71,0,0,1,772.65,392.37Zm19-30.05a1.72,1.72,0,0,1-1.24-.52,1.7,1.7,0,0,1,0-2.42,75.72,75.72,0,0,1,10.91-8.72,1.71,1.71,0,1,1,1.88,2.86,72.71,72.71,0,0,0-10.42,8.32A1.7,1.7,0,0,1,791.6,362.32Zm30.77-17.74a1.7,1.7,0,0,1-1.65-1.24,1.72,1.72,0,0,1,1.17-2.12,76.8,76.8,0,0,1,13.71-2.63,1.67,1.67,0,0,1,1.87,1.54,1.72,1.72,0,0,1-1.54,1.87,72.54,72.54,0,0,0-13.09,2.51A1.58,1.58,0,0,1,822.37,344.58Z"/><path class="cls-23" d="M864.55,344.91a1.81,1.81,0,0,1-.51-.08c-2.12-.65-4.3-1.21-6.47-1.66a1.72,1.72,0,0,1,.7-3.36c2.27.48,4.55,1.06,6.78,1.75a1.71,1.71,0,0,1-.5,3.35Z"/><path class="cls-25" d="M866.24,362.13a.88.88,0,0,0-1,.1l-8.21,7a46.88,46.88,0,0,0-15.11-2.09l-6-9a.88.88,0,0,0-1-.36l-12.55,3.27a.87.87,0,0,0-.66.79l-.83,10.77a47.35,47.35,0,0,0-12.16,9.21l-10.6-2.12a.87.87,0,0,0-.94.42l-6.56,11.19a.89.89,0,0,0,.09,1l7,8.21a47.17,47.17,0,0,0-2.1,15.11l-9,6a.89.89,0,0,0-.37,1l3.28,12.55a.87.87,0,0,0,.79.66l10.77.83a46.9,46.9,0,0,0,9.21,12.16l-2.13,10.6a.89.89,0,0,0,.43.94l11.18,6.56a.91.91,0,0,0,1-.09l8.21-7a46.89,46.89,0,0,0,15.11,2.1l6,9a.88.88,0,0,0,1,.37L863.7,468a.91.91,0,0,0,.66-.8l.83-10.77a47.07,47.07,0,0,0,12.16-9.21l10.6,2.13a.89.89,0,0,0,.94-.43l6.56-11.18a.91.91,0,0,0-.09-1l-7-8.21a47.17,47.17,0,0,0,2.1-15.11l9-6a.9.9,0,0,0,.37-1l-3.28-12.55a.89.89,0,0,0-.79-.66l-10.77-.83a47.3,47.3,0,0,0-9.21-12.16l2.12-10.6a.87.87,0,0,0-.42-.94Z"/><path class="cls-23" d="M843.12,428.61a14.08,14.08,0,1,1,6.71-1.74A14.09,14.09,0,0,1,843.12,428.61Zm-4.38-21.92a8.95,8.95,0,1,0,12.15,3.53A9,9,0,0,0,838.74,406.69Z"/><path class="cls-23" d="M843,448.65a33.89,33.89,0,0,1-32.82-25.32,34.24,34.24,0,0,1-1.11-8.49A33.89,33.89,0,0,1,841.51,381l.22,5.13a28.78,28.78,0,0,0-23.06,13.32l-.17.28c-.12.19-.24.38-.35.58a28.72,28.72,0,1,0,44.91-6l3.6-3.67a33.83,33.83,0,0,1,9,15.61,34.24,34.24,0,0,1,1.11,8.49,33.89,33.89,0,0,1-25.32,32.82A34.24,34.24,0,0,1,843,448.65Z"/><g class="cls-26"><path class="cls-23" d="M1183.11,371.46c5-23.69,17.41-15.56,38.21-22.85s14.7-33.28,27.61-41.3c17.2-10.69,33-.77,43.7,13.26,17.79,23.32,29.95,4.36,51.21,13.81,12.18,5.41,7,13,23.46,16.05,11.51,2.13,24-2.89,35.32.18,8.4,2.28,14.49,6.26,16.35,14.4-2.37,1.12-4.83,2.13-7.36,3-31.76,11.45-75.09,7.63-107.19,9.32C1293.48,377.94,1179.57,388.25,1183.11,371.46Z"/><path class="cls-23" d="M1462.91,291.73a20.93,20.93,0,0,1,21.58-7.41c8.69,2.17,13.61,10.48,21.7,13.8,14.12,5.8,33.64-5.65,44.36,9.29,13.12,18.28,23.25,4.57,23.25,17s-90.61,3.26-135.31,3.91c-6.46.1-34.51-.37-22.43-13.78,3.74-4.16,9.09-4.86,14.08-5.84,6.5-1.27,22-2,26.67-7,2.53-2.72,3.51-6.64,5.79-9.55Z"/></g><path class="cls-27" d="M219.75,1182.86s-39.08,21.65-42.32,58.29-.27,188.74,78.11,226.17,182.11,28.81,221.82,24.71S539.09,1461,544,1442.37s12.86-87.8-28.92-110.12-85.64-56.54-129.49-89.84S266.63,1154.73,219.75,1182.86Z"/><path class="cls-28" d="M502.78,1344.88s-10.55.56-11.85,22.26c0,0,24.46,21.93,57.51,27.15,2.48.39-3.47-16.94-4.37-19.28C539.82,1363.84,526.42,1356.65,502.78,1344.88Z"/><path class="cls-29" d="M384,1319.36h10.59a27,27,0,0,0,19.43-8.22c17.54-18.09,61.36-60.69,96-72.42a11.7,11.7,0,0,1,14.31,6.19c7.23,15.42,17.38,51.33-6.65,105.68-2.66,6-10.21,8.58-15.69,4.92a8.87,8.87,0,0,1-3.37-4.12l2.64-63.52s-58.28,51-68.41,60.81S371.22,1352.52,384,1319.36Z"/><path class="cls-30" d="M599.19,1477.78c-9.33-8.17-24.2-17.34-45.65-20l-7.26,4.44a79.3,79.3,0,0,0,13.08,14c7.77,4.51,19.77,10.63,29.71,12C598.74,1489.52,600.17,1483.68,599.19,1477.78Z"/><path class="cls-31" d="M544.07,1375c-5.74,1.86-8.27,10-22.85,4.61a128.32,128.32,0,0,1-30-15.8c-.13,1-.23,2.15-.3,3.32,0,0,25.79,24.53,58.84,29.75a3.29,3.29,0,0,0,3.55-4.43A83.08,83.08,0,0,0,544.07,1375Z"/><path class="cls-32" d="M606.21,1484.76a77.16,77.16,0,0,0-7-7c1,5.9-.45,11.74-10.12,10.45-9.94-1.32-21.94-7.44-29.71-12,9.74,8.31,24.55,17.12,43.25,16.6A4.9,4.9,0,0,0,606.21,1484.76Z"/><path class="cls-33" d="M384.79,1335.47,489,1336.6s59.53,49.25,70.33,124.35c0,0,1.79,5.52-9,6.47,0,0-36-23.51-59.46-65.07-28.77-51-85.78-28-85.78-28-18.73-13.5-45.2-16.25-65.14-20.75Z"/><path class="cls-34" d="M393.27,1334.55s-12.77-34.69-15.51-68.4c0,0,9.34-8,15.17-11.48a4.21,4.21,0,0,0,1.65-5.47c-4.29-8.89-30.23-43.79-32.18-44.27-10.56-2.64-53.88-23.24-84.4,18.5-13.09,17.91,2.6,73,62,130.15l12.26,2.34Z"/><path class="cls-35" d="M323.41,1175.48l-7.76,25.88a2.86,2.86,0,0,0,1.11,3.17c3.73,2.55,13.49,7.64,26.88,2.7a4.22,4.22,0,0,0,2.72-3.63l1.84-22.54Z"/><path class="cls-36" d="M368.83,1154.53s-3.81,26.82-14.11,35.07-30.38,2-37.16-18.18l13.51-34.57Z"/><path class="cls-37" d="M329.55,1159.22a1.34,1.34,0,0,0,1.73-1.07c.37-2.47,1.3-7.37,3.18-10.71,0,0-1-3.52,8.89,1.8s24.71,13.12,33.44,8.47c8.52-4.53,17.14-27.35-5.36-23.12a1.32,1.32,0,0,1-1.58-1.39c.27-3.75-.1-12.38-8.83-15.15-8.18-2.59-12.65,1.1-14.5,3.33a1.32,1.32,0,0,1-2.07,0c-2.44-3.2-9.09-10-18.89-5.69-8.06,3.55-9.31,8.52-9.18,11.62a1.33,1.33,0,0,1-1.89,1.26c-2.47-1.14-6.44-1.73-10.25,3-5.26,6.59,2.26,12.31,4.52,13.8a1.34,1.34,0,0,1,.6,1.1c0,3.43.55,18.38,8.05,26.82a1.34,1.34,0,0,0,2.23-.39l5.77-13.75a1.32,1.32,0,0,1,1.63-.75Z"/><path class="cls-38" d="M329.67,1162s-3.52-14.35-8.88-9.69,1.4,14.91,7.53,16.87Z"/><path class="cls-39" d="M377.76,1267a.82.82,0,0,0,.82-.81c.05-15.68-6-36.4-6-36.61a.82.82,0,0,0-1-.55.81.81,0,0,0-.56,1c.06.21,6,20.71,6,36.14a.82.82,0,0,0,.82.82Z"/><path class="cls-39" d="M344.09,1274.57a.8.8,0,0,0,.51-.17.82.82,0,0,0,.14-1.15c-.16-.21-16.23-20.63-21.72-34.54a.82.82,0,0,0-1.06-.47.83.83,0,0,0-.47,1.07c5.58,14.14,21.8,34.75,22,35A.79.79,0,0,0,344.09,1274.57Z"/><path class="cls-39" d="M321.39,1306.1l3.07-4.34a.82.82,0,0,0-.2-1.14.81.81,0,0,0-1.14.19l-2.3,3.26c-22.59-10-36.59-37.09-36.73-37.36a.83.83,0,0,0-1.11-.36.82.82,0,0,0-.35,1.1c.14.29,14.65,28.33,38.15,38.39Z"/><path class="cls-40" d="M392,1251.19s17.12,49.31,50.49,11.78l3.17-1.41,23.92-16.35-2.66,9.47a17.73,17.73,0,0,1-10.31,11.57l-3.15,1.29c-6,12.46-18.84,31.35-38.62,34.93-29.69,5.38-44.92-34.74-44.92-34.74Z"/><path class="cls-41" d="M481.54,1232.62l1.68,2.3a2.45,2.45,0,0,1-.6,3.46l-37.68,25.74a2.45,2.45,0,0,1-2.88-3.95l36-28A2.44,2.44,0,0,1,481.54,1232.62Z"/><path class="cls-42" d="M447.52,1256.38c.48-.41-29.11-14.9-40.25-13.57-10.85,1.29-23.61,9.4-35.51,19-10.71,8.65-21.73,14.24-32.07,13.8,0,0-17.69,19.24-13.77,30.85,0,0,19.64,4.64,36.41-11.92,15.95-15.74,33.56-35.81,43.46-39.47a2.78,2.78,0,0,1,2.49.28c3,1.89,12.27,6.44,24.43-.83C432.71,1254.52,442.61,1260.68,447.52,1256.38Z"/><path class="cls-43" d="M438.75,1189.42c-.91,6.92-2.82,20.24-5.05,28.51a4.81,4.81,0,0,1-4.31,3.55c-6.49.48-21,1.06-29.44-2.26a4.81,4.81,0,0,1-3-4.71c.3-6.41,1.12-21.29,2.77-30.19a4.82,4.82,0,0,1,5.21-3.92c6.86.63,20.67,2,29.86,3.62A4.84,4.84,0,0,1,438.75,1189.42Z"/><path class="cls-44" d="M458.52,1199.25l-.83,5.59a2.31,2.31,0,0,1-2.62,2l-6.55-.9a2.32,2.32,0,0,1-2-2.52l.42-4.68a2.33,2.33,0,0,1,2.32-2.12h7A2.32,2.32,0,0,1,458.52,1199.25Z"/><path class="cls-45" d="M455.92,1221.35l-1.35,7.46a4.84,4.84,0,0,1-6.25,3.75l-5-1.6a4.84,4.84,0,0,1-3.35-5l.62-7.28a4.85,4.85,0,0,1,6-4.29l5.7,1.42A4.83,4.83,0,0,1,455.92,1221.35Z"/><path class="cls-46" d="M1938.47,582.73a6.78,6.78,0,0,0,.77-.05,6.64,6.64,0,0,0,5.84-7.36l-41.71-363a6.64,6.64,0,0,0-13.2,1.52l41.71,363A6.64,6.64,0,0,0,1938.47,582.73Z"/><path class="cls-47" d="M1709.19,582.73a6.65,6.65,0,0,0,6.48-5.2l81.38-363a6.65,6.65,0,1,0-13-2.91l-81.38,363a6.65,6.65,0,0,0,5,7.94A7.33,7.33,0,0,0,1709.19,582.73Z"/><path class="cls-48" d="M1846.62,582.73a6.65,6.65,0,0,0,6.65-6.65V397a6.65,6.65,0,0,0-13.29,0V576.08A6.65,6.65,0,0,0,1846.62,582.73Z"/><path class="cls-49" d="M1979.6,172.51l-23.36,294.25a11.76,11.76,0,0,1-12,10.83l-244-6a11.75,11.75,0,0,1-11.33-13.6l46.71-293.41a11.75,11.75,0,0,1,11.89-9.9l220.64,5.11A11.75,11.75,0,0,1,1979.6,172.51Z"/><path class="cls-50" d="M1959.18,167.92l-204.61-4.73a11.76,11.76,0,0,0-11.89,9.9L1698.61,450a11.75,11.75,0,0,0,11.32,13.6l226.65,5.53a11.75,11.75,0,0,0,12-10.82l22.05-277.66A11.77,11.77,0,0,0,1959.18,167.92Z"/><path class="cls-51" d="M1852.91,186.56,1956,192.32a1.87,1.87,0,0,1,1.77,2l-.14,1.66a1.89,1.89,0,0,1-2,1.71l-103-7.41a1.88,1.88,0,0,1,.24-3.75Z"/><rect class="cls-52" x="1901.23" y="148.33" width="4.46" height="106.99" rx="1.88" transform="translate(1539.56 2081.05) rotate(-85.09)"/><path class="cls-53" d="M1880.62,208.8l0,.31a1.88,1.88,0,0,0,1.71,2l71.65,6.15a1.88,1.88,0,0,0,2-1.71l.12-1.45a1.88,1.88,0,0,0-1.74-2l-71.74-5A1.88,1.88,0,0,0,1880.62,208.8Z"/><path class="cls-54" d="M1843.19,255.57a7.49,7.49,0,0,0-7.11-7.94c-13.75-.69-44.17,2.71-73.22,39.49-39.13,49.54-9.25,119.2,71.36,122,74.07,2.55,100.44-52.93,99.89-86.81a6.5,6.5,0,0,0-8.44-6l-79.5,24.6a6.1,6.1,0,0,1-7.88-6.2Z"/><path class="cls-55" d="M1860,245.3l-14.39,76.95a5.13,5.13,0,0,0,7.11,5.64l71.37-31.4a10.21,10.21,0,0,0,5.69-12.32c-4.26-13.87-17.74-39.62-59.65-46.12A9,9,0,0,0,1860,245.3Z"/><path class="cls-56" d="M1743.68,581a2.74,2.74,0,0,0-.06-.63c-3.12-12.36-18.6-20.06-18.6-20.06l-6.13.48c-3.53,10.9-3.08,17.58-2.51,20.56l.06.24A145.63,145.63,0,0,0,1743.68,581Z"/><path class="cls-57" d="M1716.44,581.55a2.67,2.67,0,0,0,2,2c7.2,1.51,18.63.29,23.44-.34a2.22,2.22,0,0,0,1.85-2.22A145.63,145.63,0,0,1,1716.44,581.55Z"/><path class="cls-58" d="M1833.6,195.73l42-9.34,2.25,6.86-40.39,9.51S1832.11,201.59,1833.6,195.73Z"/><path class="cls-59" d="M1875.55,186.39c-1.64,3.42,2.25,6.86,2.25,6.86l7.93-4.19a15.24,15.24,0,0,1-.4-2.94Z"/><path class="cls-60" d="M1885.33,186.12a15.24,15.24,0,0,0,.4,2.94l5.87-3.11Z"/><path class="cls-61" d="M1697.74,359.2c-4.27,3.52-10.25,6.26-14.43,7.92,4.88,7.94,11.81,16.15,21.31,24.55l2.11,7.07,11-10.2S1701.74,377.79,1697.74,359.2Z"/><path class="cls-62" d="M1716.42,551.62l2.6,12.5a2,2,0,0,0,1.75,1.68,17.14,17.14,0,0,0,4-.06,2.58,2.58,0,0,0,2-3l-1.81-11.1Z"/><path class="cls-63" d="M1770.24,581.43c-6.77-.19-10.28-1-12.09-1.73,0,.67,0,1.36,0,2.07a1.35,1.35,0,0,0,1.28,1.36l37.19-.24a1.7,1.7,0,0,0,1.37-2.47C1793.13,580.82,1780.71,581.72,1770.24,581.43Z"/><path class="cls-64" d="M1798,580.42a2.64,2.64,0,0,0-.15-.29c-3.28-4.58-11.65-13.72-28.18-17.69l-7.93-.25s-3.53,6.14-3.6,17.51c1.81.74,5.32,1.54,12.09,1.73C1780.71,581.72,1793.13,580.82,1798,580.42Z"/><path class="cls-65" d="M1760.28,550.18c.09.59,1.17,9.57,1.6,13.05a1.72,1.72,0,0,0,1.45,1.56,18.27,18.27,0,0,0,5.45-.08,2.35,2.35,0,0,0,1.78-2.36v-14.1Z"/><path class="cls-66" d="M1753.92,386.23s19.12,72.68,18.78,164.15a3.54,3.54,0,0,1-2.81,3.45,41.2,41.2,0,0,1-8.87,1,3.28,3.28,0,0,1-3.13-2.74c-2.68-15.73-18.07-104.33-26.84-118.71,0,0-5.77,78.91-3.92,119.85a1.94,1.94,0,0,1-1.72,2,31.87,31.87,0,0,1-7.11,0,2.59,2.59,0,0,1-2.32-2.2c-1.91-13.31-12.9-92.54-12.44-149.61,0-3.22,8.52-17.21,8.52-17.21Z"/><path class="cls-67" d="M1838.06,243.9c-10.33,14.41-26.21,28.43-49.24,29.75-21.27,1.22-59.18,1.21-74.4,1.15a18.52,18.52,0,0,0-12.41,4.72c-13.54,12.1-44.23,46.05-18.7,87.6,4.18-1.66,10.16-4.4,14.43-7.92-2.13-9.93-.83-22.08,8.15-36a33.9,33.9,0,0,0,.45,3.61,218.06,218.06,0,0,1,2.12,63.65,2,2,0,0,0,1,2c12.12,6.78,37.14,6.93,45.57,6.77a2.81,2.81,0,0,0,2.74-2.85c-.24-29.92,26.85-75.56,33.93-87a8.08,8.08,0,0,1,4.51-3.48c33.29-10.14,49.81-30.26,57.91-49.27C1850.15,249.56,1843.09,245.79,1838.06,243.9Z"/><path class="cls-68" d="M1854.11,256.62a96.31,96.31,0,0,0,7.29-44.43l-7.16-.94a117.12,117.12,0,0,1-16.18,32.65C1843.09,245.79,1850.15,249.56,1854.11,256.62Z"/><path class="cls-69" d="M1856.26,215.4s-9.07-15.55-4.57-22.45,16.56-4.6,16.56-4.6l1,6a7.34,7.34,0,0,1-.77,4.6l-9,16.87Z"/><path class="cls-70" d="M1740.2,249.4l-5.74,24.87s13.62,6.1,24.87.17l-4.28-23.83Z"/><path class="cls-71" d="M1760.37,222.82c.3.37,10.77,29.79,10.77,29.79l-16.93,5.62-14.06-26.41S1755.36,216.71,1760.37,222.82Z"/><path class="cls-72" d="M1747.11,233.4a2.57,2.57,0,0,0-.1,2.26l6.22,14.27a2.07,2.07,0,0,0,.37.6c.83,1,3.73,4,6.68.82,2.52-2.69,4.87-5.13,7.16-6a2.57,2.57,0,0,1,3.28,1.58,95.57,95.57,0,0,1,3.76,13.6,2.55,2.55,0,0,1-1.87,2.91,71.24,71.24,0,0,1-15.84,2.47,2.56,2.56,0,0,1-2.26-1.33c-2-3.65-7.65-13.86-9.69-16.5-1.89-2.45-6-2.15-7.89-1.87a2.58,2.58,0,0,1-2-.53c-1.69-1.34-4.53-4.51-1-8.79a2.55,2.55,0,0,0-.34-3.55c-1.87-1.62-3.76-4.43-1.11-8.26s6.56-3.74,9.12-3.08a2.66,2.66,0,0,0,3-1.18A1.69,1.69,0,0,1,1746,220a2.49,2.49,0,0,0,2.37-2.64c-.16-2.41.58-5.41,4.6-7,7.36-2.89,12.58,4,13.44,9.44s-7.31,8.07-12.22,8.06C1750.6,227.86,1748.15,231.48,1747.11,233.4Z"/><path class="cls-73" d="M1747.17,253.36s-1.89-9.33-5.85-9.51-7.54,3.31-3.26,8.32C1743.38,258.4,1747.17,253.36,1747.17,253.36Z"/><path class="cls-74" d="M1704.9,320.7c-3.32-14.78.76-31.58.8-31.75l1.4.35c0,.17-4,16.64-.79,31.08Z"/><path class="cls-75" d="M1730.35,431.55a.72.72,0,0,1-.7-.54c-1.59-6.11-13.46-12.84-13.58-12.9a.73.73,0,0,1-.28-1,.72.72,0,0,1,1-.27c.51.28,12.54,7.09,14.28,13.8a.73.73,0,0,1-.52.88A.55.55,0,0,1,1730.35,431.55Z"/><path class="cls-76" d="M2175.4,1361.36s-37.12-6.22-39.14-6.22H2032.93a12.57,12.57,0,0,0-12.54,12.54V1379a12.57,12.57,0,0,0,12.54,12.54h103.33a12.07,12.07,0,0,0,2.84-.34Q2157.25,1388.22,2175.4,1361.36Z"/><path class="cls-77" d="M2175,1362.89c140.84-334.69-120.08-335-87.58-18.25Z"/><path class="cls-78" d="M2165.31,1359.68c140.84-341.07-127.63-332-95.13-9.17Z"/><rect class="cls-79" x="2085.76" y="1382.25" width="10.97" height="118.66"/><path class="cls-80" d="M2139.3,1503.2h-96.11v-4.28a2.86,2.86,0,0,1,2.86-2.86h90.17a3.08,3.08,0,0,1,3.08,3.08Z"/><path class="cls-81" d="M2033.06,1484.61s-31.33,22.58-25.89,37.76c0,0,34.28-14.79,38.43-26.45s-.7-16.79-.7-16.79Z"/><path class="cls-82" d="M2037.77,1465.68l5.13,14.81a5.16,5.16,0,0,1-2,6,13.66,13.66,0,0,1-4.24,1.64,6,6,0,0,1-6.64-3l-6.12-11.54Z"/><path class="cls-83" d="M2087.63,1332.37s-64.36,11.15-92,36.65S2021,1475.88,2021,1475.88s8.67-.06,19.18-9.07c0,0-31.39-61.18-4.33-79,30.41-20.06,65.47-24.58,65.47-24.58l-13.08-28.88Z"/><path class="cls-84" d="M2012.62,1514c6.89-3.19,26.4-16.85,29.69-17.45s9,3.26,9,3.26,1.39,2.5-.1,6.85c-4.58,5.54-14.74,16.1-28.41,20-10.06,2.89-17.09.19-21.47-3A29,29,0,0,1,2012.62,1514Z"/><path class="cls-85" d="M2022.79,1526.68c13.67-3.94,23.83-14.5,28.41-20-1,2.94-3.31,6.73-8.25,11.17-12.26,11-35.67,15-40.65,14.22-4-.61-3.62-4.3-1-8.31C2005.7,1526.87,2012.73,1529.57,2022.79,1526.68Z"/><path class="cls-86" d="M2057.14,1490.15c-.07,1.9-3.95,8.41-6.22,12.06a5.93,5.93,0,0,1-5,2.81,15.27,15.27,0,0,1-4.14-.5,3.85,3.85,0,0,1-2.58-4.78l4.43-15.13Z"/><path class="cls-87" d="M2149.58,1313.05s14.29,38.22,0,49.84-48.39,24.71-56,47.85-20.55,68.14-37.84,84.07c0,0-12.16-1.17-16.71-6,0,0,9.86-67.16,16.35-84.39,5.63-14.92,13.92-36.46,29.81-48.5,4.55-3.45,3.75-8.91,1.64-14.21L2083,1332Z"/><path class="cls-88" d="M2000.52,1283.1c24,1.44,16.49-36.84,16.06-38.37l36.37,25.69s-1.92,20.48-32.16,31.22a37.74,37.74,0,0,1-20.83,1.51A33.11,33.11,0,0,0,2000.52,1283.1Z"/><path class="cls-89" d="M1954.18,1271.57c8.93-6.21,19,0,19,0,11.94,7.81,20.77,11.13,27.29,11.53a33.11,33.11,0,0,1-.56,20.05c-13.37-2.88-22.94-12.56-27.1-17.53a4.31,4.31,0,0,0-6-.65c-1.86,1.47-3.67,3.48-3.34,5.59.65,4.18-4.2,5.5-4.56,4s1.66-10.49,1.66-10.49-9.69,9.74-13.47,13.48-8.53,0-8.53,0S1945.25,1277.78,1954.18,1271.57Z"/><path class="cls-90" d="M2112.26,1185.61s-34.86-14-99.75,39.6c0,0-5.42,11.22.5,21.21s62.24,58.63,70,85.61c0,0,33.57,10.91,68.27-15C2151.26,1317.08,2148.2,1242,2112.26,1185.61Z"/><path class="cls-91" d="M2043.34,1173.15l17.16,20.8a6.85,6.85,0,0,1,.9,7.35c-2.38,4.86-8,11.93-20.57,11a10.54,10.54,0,0,1-8.66-5.9l-12-24.81Z"/><path class="cls-92" d="M2139.25,1274.72c4.05-16.49-36.95-53.24-36.95-53.24l10-35.87s88.52,58.93,66,106.32a34.54,34.54,0,0,1-12.51,14.73C2158.59,1287.48,2147.23,1278.68,2139.25,1274.72Z"/><path class="cls-93" d="M2139.28,1272.32a1,1,0,0,0,.94-.74c4.14-16.85-35.55-52.67-37.24-54.18a1,1,0,0,0-1.3,1.44c.41.36,40.52,36.54,36.66,52.28a1,1,0,0,0,.71,1.17Z"/><path class="cls-94" d="M2077.16,1273.3s48.61,18.87,60.47,4.67a7.91,7.91,0,0,0,1.62-3.25c8,4,19.34,12.76,26.47,31.94-25.57,16.34-69.26-9.09-81.08-16.58a8.87,8.87,0,0,0-6.53-1.2c-4.55.95-12.43,2.34-16.67,1.68-6.21-1-15.14,21-25.2,14.2C2036.24,1304.76,2044.86,1266.67,2077.16,1273.3Z"/><path class="cls-95" d="M2006,1142.59c-.17.67,4,46.15,4,46.15l25.91-3,2.43-43.7S2008.88,1131.39,2006,1142.59Z"/><path class="cls-96" d="M2031.61,1151.15l.53,23.1a3.57,3.57,0,0,1-.1.87c-.45,1.76-2.45,7.69-8.39,5.28-5.4-2.19-10.35-4.1-14-3.41a3.23,3.23,0,0,0-2.62,3.47,139.29,139.29,0,0,0,3.55,21.36,3.22,3.22,0,0,0,3.68,2.32c5-.87,15.33-3,23.29-6.67a3.24,3.24,0,0,0,1.88-2.72c.39-5.78,1.63-23.32,2.74-28.16,1-4.54,7-6.68,9.54-7.39a3.19,3.19,0,0,0,2-1.57c1.45-2.72,3.73-9.14-4.27-12.74a3.24,3.24,0,0,1-1.58-4.38c1.61-3.29,2.7-8.45-3.4-12s-11.46-.7-14.4,1.84a3.23,3.23,0,0,1-4.14,0,2.55,2.55,0,0,0-2.9-.22,3.18,3.18,0,0,1-4.33-1.84c-1.21-3.38-4-7.17-10.52-6.77-11.55.69-14.21,13.11-12,20.8s14.66,6.22,21.17,3.18c5-2.31,10.64,1.3,13.09,3.17A3.2,3.2,0,0,1,2031.61,1151.15Z"/><path class="cls-97" d="M2042.28,1175s-3.22-13.55,1.92-16.22,12-.24,9.44,9C2050.41,1179.37,2042.28,1175,2042.28,1175Z"/><path class="cls-98" d="M2052.26,1310.51H2052l-102-.12a4.56,4.56,0,1,1,0-9.12l102,.11a4.56,4.56,0,0,1,.23,9.12Z"/><path class="cls-99" d="M1858.37,1217.92h84.93a16.19,16.19,0,0,1,14.64,9.28l39.26,83.26H1891.65a9.85,9.85,0,0,1-9.15-6.23l-30.44-77A6.78,6.78,0,0,1,1858.37,1217.92Z"/><path class="cls-100" d="M1918.2,1260.61c1.84,5.71.48,11.27-3,12.4s-7.86-2.59-9.7-8.3-.48-11.28,3-12.41S1916.36,1254.89,1918.2,1260.61Z"/><path class="cls-101" d="M1872.13,1529.24a4.43,4.43,0,0,1-1.69-.34,4.09,4.09,0,0,1-2.24-5.45l89.88-202.28a4.34,4.34,0,0,1,5.63-2.17,4.1,4.1,0,0,1,2.24,5.45l-89.88,202.28A4.28,4.28,0,0,1,1872.13,1529.24Z"/><path class="cls-102" d="M1973.39,1529.24a4.29,4.29,0,0,1-3.94-2.51l-89.88-202.28a4.1,4.1,0,0,1,2.24-5.45,4.34,4.34,0,0,1,5.63,2.17l89.88,202.28a4.09,4.09,0,0,1-2.24,5.45A4.4,4.4,0,0,1,1973.39,1529.24Z"/><path class="cls-103" d="M2150.35,1529.24a4.45,4.45,0,0,1-1.7-.34,4.1,4.1,0,0,1-2.24-5.45l89.88-202.28a4.34,4.34,0,0,1,5.63-2.17,4.1,4.1,0,0,1,2.24,5.45l-89.88,202.28A4.27,4.27,0,0,1,2150.35,1529.24Z"/><path class="cls-104" d="M2251.6,1529.24a4.3,4.3,0,0,1-3.94-2.51l-89.88-202.28A4.1,4.1,0,0,1,2160,1319a4.34,4.34,0,0,1,5.63,2.17l89.88,202.28a4.09,4.09,0,0,1-2.24,5.45A4.4,4.4,0,0,1,2251.6,1529.24Z"/><path class="cls-105" d="M2262.14,1314.93a4.91,4.91,0,0,0-.85-3.74,3.87,3.87,0,0,0-3.12-1.65H1849.29a4.56,4.56,0,0,0-3.92,2.4,5.77,5.77,0,0,0-.31,5l4.44,10.73a6.2,6.2,0,0,0,5.63,4h400.23a4.88,4.88,0,0,0,4.62-4.26Z"/><path class="cls-106" d="M1735.24,1294.07s49-85.89,33.77-98.68-15.46,24.36-21.61,19.1,3.88-36.29,1.15-57.85-8.66-50.4-16.32-21.42-6.7,57.56-10,42.79-14.76-91.73-29.47-68.76-17.8,52.86-3,70.28,34.74,36.88,10.26,24-41.16-7.12-15,16.15c0,0,39.37,32.58,22.28,31s-44.3,16.51-16.26,29.54C1691.08,1280.31,1730.92,1286.1,1735.24,1294.07Z"/><path class="cls-107" d="M1714.91,1372.4s-95.41-4.53-91.19-26.62,35.36-7.3,49.22-5.89,5.73-8.07-22.5-27.94-43.73-49-13.85-35.4,41.82,39,39.8,21.08-40.43-68.56-7.94-47.85,30.26,39.89,31.24,55,5.31-29.27,15.47-22.66,4.39,13.41.75,31,6.55,3.41,9.91-2.36,11.63,8.07,3.53,27.16S1714.91,1372.4,1714.91,1372.4Z"/><path class="cls-108" d="M1733.91,1473a.35.35,0,0,0-.13.19s0,.14,0,0v-.28l0-1.08.09-2.22.15-4.48.23-9,.31-18q.24-18,.17-36c-.07-24-.5-48.07-1.42-72.07q-.7-18-1.84-36c-.79-12-1.76-24-3-35.88s-2.79-23.81-4.85-35.59-4.67-23.47-8.89-34.46l0-.06a2.09,2.09,0,0,1,3.9-1.53c4.57,11.44,7.3,23.32,9.61,35.2s4,23.88,5.39,35.87,2.54,24,3.5,36,1.7,24.06,2.34,36.1c1.25,24.09,2,48.18,2.41,72.29q.3,18.08.33,36.15l-.07,18.09-.11,9.06-.09,4.54-.06,2.3,0,1.17v.29c0,.09,0,.4-.05.6,0,.44-.12.88-.21,1.31a4.07,4.07,0,0,1-7.72-2.57Z"/><path class="cls-109" d="M1733.38,1477.6a1,1,0,0,0-.05.33s0,.17,0,.11l0-.17-.1-.68-.21-1.4-.45-2.84-1-5.7-2-11.41q-2-11.4-4.21-22.77-4.35-22.75-9.4-45.36c-3.4-15-7.06-30-11.29-44.86-2.12-7.4-4.41-14.75-7-22a134.34,134.34,0,0,0-9.12-20.87l0,0a2.1,2.1,0,0,1,3.62-2.11,138.85,138.85,0,0,1,9.93,21.4c2.77,7.3,5.25,14.69,7.55,22.12,4.58,14.86,8.58,29.86,12.32,44.92s7.17,30.19,10.41,45.36q2.43,11.37,4.71,22.78l2.23,11.42,1.07,5.74.52,2.88.26,1.46.12.76,0,.18.06.47c0,.35,0,.7,0,1.05a4.07,4.07,0,0,1-8.1-.79Z"/><path class="cls-110" d="M1753.83,1311.41s96.72-15.41,87.49-35.92-36.09,1.09-49.24,5.67-15,2.29,7.81-23.58,25-52.7-1-32.58-17,38.79-19.14,20.84,32.45-86.48,5.65-58.8-30.08,51.24-27.53,66.18-12-27.24-20.3-18.45-1.16,14.06,6.45,30.31-5.57,4.84-10.18,0-9.45,10.55,2.86,27.25S1753.83,1311.41,1753.83,1311.41Z"/><path class="cls-111" d="M1746.54,1475.54a9.22,9.22,0,0,1-.2-1.17c0-.17,0-.46,0-.53v-.22l0-.88,0-1.73-.06-3.41-.07-6.77,0-13.54q0-13.53.31-27.06c.34-18,.95-36.06,1.93-54.07s2.35-36,4.49-54c1.07-9,2.39-17.94,4.1-26.85s3.81-17.8,7.28-26.42a2.09,2.09,0,0,1,3.9,1.53l0,.06c-3.11,8.16-5,16.91-6.56,25.68s-2.66,17.67-3.56,26.58c-1.79,17.82-2.8,35.75-3.47,53.69s-.93,35.9-.94,53.86q0,13.48.19,26.94l.26,13.46.19,6.72.12,3.34.07,1.65,0,.8v.2c0,.07,0-.08,0-.11a.87.87,0,0,0-.14-.33,4.07,4.07,0,0,1-7.72,2.57Z"/><path class="cls-112" d="M1700.24,1456.9h80.09a8.16,8.16,0,0,1,8,10c-5.13,22.2-11.27,44.72-23.83,67.59a13.21,13.21,0,0,1-11.56,6.87h-26.13a12.88,12.88,0,0,1-11.35-6.79c-10.07-18.7-19.75-41-24.53-66.31A9.55,9.55,0,0,1,1700.24,1456.9Z"/><path class="cls-113" d="M1250.75,633.31V735c0,7.84,37.87,14.2,84.57,14.2s84.57-6.36,84.57-14.2V633.31Z"/><ellipse class="cls-114" cx="1335.32" cy="633.31" rx="84.57" ry="14.2"/><path class="cls-115" d="M1444.08,575.61h.18l81.31-.08a3.64,3.64,0,0,0,0-7.27l-81.3.08a3.63,3.63,0,0,0-.18,7.26Z"/><path class="cls-116" d="M1557.05,496a1.3,1.3,0,0,1-.08.17l-34.21,73.76a3.63,3.63,0,1,0,6.59,3.05l34.21-73.76a3.63,3.63,0,0,0-6.51-3.22Z"/><path class="cls-117" d="M1431.73,741.86c-13.38,0-19.3-1.15-22-2.2a5.09,5.09,0,0,0,5,3.94h47.33a2.31,2.31,0,0,0,2.22-2.91C1458.88,741.12,1447.42,741.86,1431.73,741.86Z"/><path class="cls-118" d="M1464.28,740.69a2.33,2.33,0,0,0-.39-.81c-3.6-4.6-10.85-11.83-20.7-11.69-14.43.2-19.47,1.77-30.68.09l-2.65,8.77a5,5,0,0,0-.08,2.61c2.65,1.05,8.57,2.2,22,2.2C1447.42,741.86,1458.88,741.12,1464.28,740.69Z"/><path class="cls-119" d="M1415.76,718.83l-3.25,11s7.19,3.28,13.52.65l1.25-9.57Z"/><path class="cls-120" d="M1513.86,734.9c-10.43,8.38-15.76,11.2-18.48,12.05a5.08,5.08,0,0,0,6.31-.05l36.89-29.65a2.28,2.28,0,0,0-.08-3.64C1534.57,717.32,1526.09,725.07,1513.86,734.9Z"/><path class="cls-121" d="M1538.5,713.61a2.12,2.12,0,0,0-.8-.38c-5.68-1.32-15.83-2.39-23.43,3.89-11.12,9.2-14.07,13.56-23.86,19.28l3.4,8.47a5.07,5.07,0,0,0,1.57,2.08c2.72-.85,8-3.67,18.48-12.05C1526.09,725.07,1534.57,717.32,1538.5,713.61Z"/><path class="cls-122" d="M1346.28,593s80.1,6.54,96.53,14.28S1429.4,723.4,1429.4,723.4s-4.47,2.16-14.42-.94c0,0,10.2-80,2.61-97.36l-86.73-14.18Z"/><path class="cls-123" d="M1482.45,721.17c.74.68,8,15.23,8,15.23s8-1.73,9.67-6.82l-7.23-13.13Z"/><path class="cls-124" d="M1298,592.3a40.59,40.59,0,0,0-2.5,14.63,22,22,0,0,0,21,21.49l94.69,4.32a4.53,4.53,0,0,1,4.19,3.41c2.23,8.61,13.11,35,66.27,87.78a4.31,4.31,0,0,0,5.31.58l7.56-4.78a1.75,1.75,0,0,0,.58-2.36L1440,623.22a21.35,21.35,0,0,0-13-9.62L1346.28,593Z"/><path class="cls-125" d="M1391.35,445.23s-10.14,17.94-20.48,26.62l21.37,11.93s4.82-19,15.83-24.55Z"/><path class="cls-126" d="M1296.31,593s25.57,6.23,50,0c0,0,34.14-45.89,47.35-58.39,0,0,21.07,33.25,68,38l2.62-5.84s-37.34-17.21-48.83-43.66-16.11-37.72-26.57-44.62c-6.51-4.3-10.41-7.23-12.43-8.84a3.34,3.34,0,0,0-3.83-.24C1361.46,476.1,1309.25,511.86,1296.31,593Z"/><path class="cls-127" d="M1392.24,533.49a1.17,1.17,0,0,1-.94-.47,101.32,101.32,0,0,1-12.81-22.69,1.2,1.2,0,1,1,2.24-.86,100.65,100.65,0,0,0,12.46,22.1,1.19,1.19,0,0,1-.22,1.68A1.21,1.21,0,0,1,1392.24,533.49Z"/><path class="cls-128" d="M1458.78,563.65l5.28-1.41,16-3.71a7.39,7.39,0,0,1,5.63,1l13.78,8.67-38.06-.07Z"/><path class="cls-129" d="M1407.46,418.34s9.86,16.38,11.57,25.44,4.46,14.72-5.85,18-19.89-.86-25.9-9.31c0,0-9.39-13-8.46-19S1407.46,418.34,1407.46,418.34Z"/><path class="cls-130" d="M1390,445.41l1.33-.18s-7-10.55-2.41-13.16,23.18-9,26.41-16.37c3.12-7.07-1.54-15.05-7.16-16.72a.73.73,0,0,0-.86.45l-.33.89a.72.72,0,0,1-1.34,0,.72.72,0,0,0-1.31,0c-1,2.2-4,5.95-12.93,8.85-12.71,4.12-20.62,10.52-19.64,19.55a.73.73,0,0,1-1,.73c-1-.46-2.61-.53-4.44,1.47-3.17,3.48-.68,11.08,8,16.46a.72.72,0,0,1,.11,1.15c-1.29,1.12-3.12,3.6,2.75,5.81s9.29,1.49,10.5,1a.72.72,0,0,0,.44-.82l-1.54-7.9a.73.73,0,0,1,.62-.86Z"/><path class="cls-131" d="M1390.57,447s-4.35-10.72-8.92-6.95,4.22,12.1,8.28,12Z"/><path class="cls-132" d="M1339.1,647.51c-34-82-71.7-160.92-97.12-126.41l13.16,117.27C1266.06,650.15,1304.06,646.5,1339.1,647.51Z"/><path class="cls-133" d="M1332.12,648.83C1302,576.21,1271,505,1246.69,513.59a13.11,13.11,0,0,0-8.38,13.91l12.44,110.87C1261.67,650.15,1297,658.55,1332.12,648.83Z"/><path class="cls-134" d="M1480.28,579.69c-.36,1.48-34.28,128.71-42.88,161a5.79,5.79,0,1,0,11.19,2.94l37.66-152.69Z"/><path class="cls-135" d="M1498.86,579.69c.35,1.48,34.28,128.71,42.88,161a5.79,5.79,0,1,1-11.19,2.94L1492.89,590.9Z"/><path class="cls-136" d="M1500.27,575.53h-21.13v17a4.39,4.39,0,0,0,4.36,4.42h2.9V635a3.31,3.31,0,1,0,6.61,0V596.92h1.47a5.83,5.83,0,0,0,5.79-5.86Z"/><path class="cls-137" d="M1427.19,571.46h118a3.64,3.64,0,0,1,3.5,2.74l1.64,6.46a3.65,3.65,0,0,1-3.52,4.58l-121-.71a3.65,3.65,0,0,1-3.49-4.55l1.43-5.76A3.63,3.63,0,0,1,1427.19,571.46Z"/><path class="cls-138" d="M838.23,771.13V872.85c.83,11.71,37.86,18.43,84.57,18.43s84.57-6.64,84.57-18.43V771.13Z"/><ellipse class="cls-139" cx="922.8" cy="771.13" rx="84.57" ry="14.2"/><path class="cls-140" d="M756.28,864.79c.15-.06,76.3-133.43,86.59-146A8,8,0,0,1,850,716l21.25,2.53,25,54-41.61-24.23c4.12,28.48-49.33,70.79-67.65,86.23a4.2,4.2,0,0,0-.34,6.13l7.32,7.66c-12,12.18-25.88,20-41.52,23.61Z"/><path class="cls-141" d="M789.72,844.15s4.67,1.51,6.25,5.67a4.76,4.76,0,0,1-1.79,5.49c-7.69,5.51-33.06,23.29-44.76,26.78a1.33,1.33,0,0,1-1.66-1.56c.6-2.72,2.54-8.15,8.8-16.1l-.56,1.13a1.63,1.63,0,0,0,2.25,2.15C766.08,863.29,782,853.62,789.72,844.15Z"/><path class="cls-142" d="M786,897.52c.13-.08,11.55-27.61,11.68-27.69C808.11,806,833.67,751.41,841.2,737a8,8,0,0,1,6.4-4.25L868.93,731l35.39,47.86-45.65-15.31c9.8,27.05-34,79.3-48.81,98.13a4.21,4.21,0,0,0,.92,6.07l8.72,6c-9.3,14.36-21.3,24.82-35.89,31.53Z"/><path class="cls-143" d="M814.51,870.55s4.88.53,7.27,4.28a4.76,4.76,0,0,1-.64,5.74c-6.42,6.95-27.66,29.5-38.42,35.28a1.31,1.31,0,0,1-1.93-1.19c0-2.78.84-8.5,5.36-17.55l-.32,1.23a1.62,1.62,0,0,0,2.64,1.64C795.24,894.07,808.9,881.37,814.51,870.55Z"/><path class="cls-144" d="M968.77,720.9s19.3,28.7,20.88,41.79-5.34,17.62-25.53,19.28c-60.1,5-89.73-13-89.73-13-4.11-26.21-7-32.88-41.37-47.13,0,0,43.43,3.44,52.17.05S968.77,720.9,968.77,720.9Z"/><path class="cls-145" d="M891.83,560.1s13.44-15.9,27.72,3.61c2.59,3.53,12.53.62,16.17,8a9.41,9.41,0,0,0,10.14,5.22c10.42-1.92,27.46-2.08,35.88,14.25,6.42,12.47,1.46,19.77-5,23.93a10.54,10.54,0,0,0-3.55,14.11c2.74,4.64,3.25,10.93-3.81,18.5-15.82,17-47.15-10.77-47.15-10.77L897.4,578.19Z"/><path class="cls-146" d="M916.59,717.1s-22.47-21.4-33.53-35.57A30.05,30.05,0,0,1,878,654.47c5-17,14-34.63,14.84-37.38,1.25-4.2,26.45-4,26.45-4s49.58,32.18,69,86.68l-21.87,6.82s-13-21.72-25.74-35.53c0,0,22.14,29.24,22.91,41.21Z"/><path class="cls-147" d="M873.78,725.54l16.88-18.37,19.5,5.25s22.73,3.52,35.74,0l13-3.52,29.4-9.16,4.62,13a7.84,7.84,0,0,1-2.87,9,51.43,51.43,0,0,1-7.42,4.63c-3.88,1.69-89.2.53-89.2.53Z"/><path class="cls-148" d="M901.94,582.77l16.94,31.49c-1.12,6.87-18.43,7.07-21.11,3a4,4,0,0,1-.53-1.39l-10.13-21c-.43-2,5.19-9,7-9.95l6.73-3.58C903.47,579.88,892.66,579.77,901.94,582.77Z"/><path class="cls-149" d="M885.36,558.23s-8.57,6.59-11.48,22.22,3.66,20.78,10,20.06,15.53-3.27,22.89-14.8S896.62,550.13,885.36,558.23Z"/><path class="cls-150" d="M898.34,580s1.94-22.27-16.18-17.79l-3.47,4.08s-9.58-9.55-.12-17.79,23.35-7.11,31.81,6.33,11.82,23,6,32.06-11.11,1.91-11.11,1.91,2.48-7.66-.15-10.72-5.45,2.2-5.45,2.2Z"/><path class="cls-151" d="M901,581.72s.93-11.45,6.93-8.55-1.45,10.73-4.46,13.43Z"/><path class="cls-152" d="M929.66,732.81h-.17l-77.66-.08a3.48,3.48,0,1,1,0-7l77.65.08a3.48,3.48,0,0,1,.17,6.95Z"/><path class="cls-153" d="M782,662.3h64.67a12.33,12.33,0,0,1,11.15,7.07l29.9,63.4H807.37a7.49,7.49,0,0,1-7-4.74l-23.19-58.67A5.16,5.16,0,0,1,782,662.3Z"/><path class="cls-154" d="M827.58,694.81c1.4,4.35.37,8.58-2.31,9.44s-6-2-7.39-6.32-.37-8.58,2.31-9.45S826.18,690.45,827.58,694.81Z"/><path class="cls-155" d="M1109.46,871.08S1148.69,780.44,1119,685a.74.74,0,0,0-1.38.15C1110.45,742.86,1108.31,805.4,1109.46,871.08Z"/><path class="cls-23" d="M1109.61,869.17l-.13,0a.49.49,0,0,1-.35-.62c6.93-24.63,9.57-66.56,10.56-97.4,1.08-33.43.51-61.38.5-61.66a.52.52,0,0,1,.49-.52h0a.51.51,0,0,1,.5.5c0,.28.58,28.26-.5,61.71-1,30.9-3.64,72.92-10.6,97.64A.5.5,0,0,1,1109.61,869.17Z"/><path class="cls-156" d="M1100.47,856.31s24.24-111.21-21.56-223.74a.7.7,0,0,0-1.36.27C1080,702.53,1088.34,777.65,1100.47,856.31Z"/><path class="cls-23" d="M1100.23,853.91h0a.51.51,0,0,1-.46-.55c5.45-57.42-15.29-190.12-15.5-191.46a.51.51,0,0,1,1-.15c.21,1.33,21,134.16,15.51,191.7A.52.52,0,0,1,1100.23,853.91Z"/><path class="cls-157" d="M1096.63,886.46s11.61-97-46.07-184.31c-.38-.57-1.43-.23-1.32.43C1059.4,760.66,1075.93,822.37,1096.63,886.46Z"/><path class="cls-23" d="M1096.06,884.57a.5.5,0,0,1-.5-.49c-.52-25.58-10.41-67.21-18.62-97.62-8.9-33-17.79-60.24-17.88-60.52a.5.5,0,0,1,.32-.63.51.51,0,0,1,.64.32c.08.27,9,27.56,17.89,60.56,8.23,30.47,18.14,72.18,18.66,97.87a.52.52,0,0,1-.5.51Z"/><path class="cls-158" d="M1072.76,833h53.32a5.43,5.43,0,0,1,5.29,6.65c-3.41,14.78-7.5,29.78-15.86,45a8.79,8.79,0,0,1-7.7,4.58h-17.4a8.59,8.59,0,0,1-7.56-4.52c-6.7-12.45-13.15-27.3-16.33-44.15A6.36,6.36,0,0,1,1072.76,833Z"/><path class="cls-159" d="M591.27,870.77V980c-.89,12.58-40.66,19.79-90.82,19.79s-90.81-7.13-90.81-19.79V870.77Z"/><ellipse class="cls-160" cx="500.45" cy="870.77" rx="90.81" ry="15.25"/><path class="cls-161" d="M587.23,995.47c-14.29,0-20.62-1.22-23.45-2.34a5.42,5.42,0,0,0,5.28,4.2h50.58a2.46,2.46,0,0,0,2.37-3.11C616.24,994.69,604,995.47,587.23,995.47Z"/><path class="cls-162" d="M622,994.22a2.42,2.42,0,0,0-.41-.86c-3.86-4.91-11.6-12.64-22.12-12.49-15.42.22-20.8,1.89-32.79.09l-2.82,9.37a5.35,5.35,0,0,0-.09,2.8c2.83,1.12,9.16,2.34,23.45,2.34C604,995.47,616.24,994.69,622,994.22Z"/><path class="cls-163" d="M570.17,970.86l-3.48,11.81s7.69,3.5,14.46.69l1.32-10.23Z"/><path class="cls-164" d="M675,988c-11.15,9-16.84,12-19.75,12.87a5.41,5.41,0,0,0,6.74,0l39.43-31.68a2.45,2.45,0,0,0-.09-3.89C697.11,969.26,688.06,977.54,675,988Z"/><path class="cls-165" d="M701.32,965.29a2.45,2.45,0,0,0-.86-.41c-6.07-1.4-16.92-2.55-25,4.16-11.89,9.83-15,14.49-25.5,20.61l3.64,9a5.36,5.36,0,0,0,1.67,2.22c2.91-.9,8.6-3.91,19.75-12.87C688.06,977.54,697.11,969.26,701.32,965.29Z"/><path class="cls-166" d="M495.93,836.39s85.59,7,103.14,15.25-14.32,124.11-14.32,124.11-4.78,2.3-15.42-1c0,0,10.91-85.49,2.79-104l-92.67-15.15Z"/><path class="cls-167" d="M641.43,973.37c.79.73,8.5,16.28,8.5,16.28s8.58-1.86,10.33-7.29l-7.72-14Z"/><path class="cls-168" d="M444.38,835.68a43.37,43.37,0,0,0-2.68,15.63,23.47,23.47,0,0,0,22.4,23l101.18,4.62a4.85,4.85,0,0,1,4.48,3.64c2.37,9.2,14,37.44,70.8,93.8a4.58,4.58,0,0,0,5.67.61l8.09-5.1a1.86,1.86,0,0,0,.61-2.52L596,868.71a22.82,22.82,0,0,0-13.86-10.28l-86.23-22Z"/><path class="cls-169" d="M561.76,680.78S533.25,697.69,522.2,707L545,719.72s12.35-14.26,24.1-20.2Z"/><path class="cls-170" d="M442.54,836.39s27.32,6.66,53.39,0c0,0,36.48-49,50.59-62.39,0,0,22.52,35.53,72.63,40.56l2.79-6.24s-39.89-18.39-52.17-46.65S552.55,721.36,541.38,714c-7-4.59-11.12-7.73-13.28-9.44a3.55,3.55,0,0,0-4.09-.26C512.15,711.51,456.36,749.73,442.54,836.39Z"/><path class="cls-171" d="M531.54,747.63A108.69,108.69,0,0,0,545,771.56Z"/><path class="cls-172" d="M616.14,805.05l5.64-1.5,17.12-4a8,8,0,0,1,6,1l14.73,9.26L619,809.8Z"/><path class="cls-173" d="M589.58,668.39c.06.42-4.65,26.07-6.77,37.58a4.82,4.82,0,0,1-6.3,3.69L565,705.74a7.6,7.6,0,0,1-5.11-8.07l-2.07-31.61S588.25,659.14,589.58,668.39Z"/><path class="cls-174" d="M589.72,651.27c-5.19-.89-7.78,1.91-9.05,4.51a2.57,2.57,0,0,1-3.63,1.11,2,2,0,0,0-2.35-.08,2.63,2.63,0,0,1-3.33-.4c-2.14-2.3-6.1-5.12-11.4-2.75s-4.8,6.59-3.8,9.37a2.62,2.62,0,0,1-1.65,3.38c-6.75,2.19-5.47,7.54-4.55,9.85a2.56,2.56,0,0,0,1.43,1.44c1.8.72,5.73,2.64,6.77,5.77a42.06,42.06,0,0,0,9-2.16l1.1-8.31a2.59,2.59,0,0,1,1.22-1.88c2.13-1.28,7-3.68,10.8-1.39,5,3,14.85,5.29,17.28-.69S598.94,652.85,589.72,651.27Z"/><path class="cls-175" d="M562.73,690.49s3.79-10.61-.1-13.21-9.66-1.25-8.39,6.44C555.82,693.27,562.73,690.49,562.73,690.49Z"/><path class="cls-176" d="M600.43,817.84h.2l86.87-.09a3.88,3.88,0,1,0,0-7.76l-86.87.08a3.88,3.88,0,0,0-.19,7.76Z"/><path class="cls-177" d="M721.14,732.77l-.09.17L684.5,811.75a3.88,3.88,0,1,0,7,3.27l36.56-78.81a3.88,3.88,0,0,0-7-3.44Z"/><path class="cls-178" d="M639.11,822.2c-.38,1.57-36.63,137.52-45.82,172a6.18,6.18,0,1,0,12,3.13l40.24-163.14Z"/><path class="cls-179" d="M659,822.2c.38,1.57,36.62,137.52,45.81,172a6.18,6.18,0,1,1-11.95,3.13L652.58,834.18Z"/><path class="cls-180" d="M660.47,817.76H637.89v18.13a4.69,4.69,0,0,0,4.66,4.71h3.1v40.73a3.53,3.53,0,1,0,7.06,0V840.6h1.57a6.22,6.22,0,0,0,6.19-6.26Z"/><path class="cls-181" d="M582.38,813.4H708.44a3.88,3.88,0,0,1,3.74,2.93l1.76,6.91a3.9,3.9,0,0,1-3.76,4.88l-129.35-.75a3.9,3.9,0,0,1-3.73-4.87l1.54-6.14A3.86,3.86,0,0,1,582.38,813.4Z"/></g></svg>