<svg id="BACKGROUND" xmlns="http://www.w3.org/2000/svg" viewBox="0 0 750 500"><defs><style>.cls-1,.cls-2,.cls-3{fill:none;stroke-miterlimit:10;stroke-width:2px;}.cls-1{stroke:#872dfc;}.cls-2{stroke:#0098e0;}.cls-3{stroke:#ff6700;}.cls-4{fill:#8262a2;}</style></defs><title>qqq</title><path class="cls-1" d="M707.07,443,600.24,552a10.51,10.51,0,0,1-15.07.36l-102-104.1a11,11,0,0,1,.34-15.38l106.84-109a10.5,10.5,0,0,1,15.06-.35l102,104.1A11,11,0,0,1,707.07,443Z"/><path class="cls-2" d="M658.52,369.5l-2.37,2.41a15.08,15.08,0,0,1-21.62,0l-1.29-1.31a15.82,15.82,0,0,1,0-22.06l2.37-2.42a15.06,15.06,0,0,1,21.61,0l1.3,1.32A15.82,15.82,0,0,1,658.52,369.5Z"/><path class="cls-3" d="M814.59,475.47l-142,52.6a10.59,10.59,0,0,1-13.8-6.19L609.55,383.5a10.93,10.93,0,0,1,6.69-13.78l142-52.6a10.61,10.61,0,0,1,13.8,6.19l49.24,138.38A10.93,10.93,0,0,1,814.59,475.47Z"/><ellipse class="cls-4" cx="417.27" cy="427.34" rx="1.19" ry="1.22"/><ellipse class="cls-4" cx="434.47" cy="409.79" rx="1.19" ry="1.22"/><ellipse class="cls-4" cx="451.67" cy="392.25" rx="1.19" ry="1.22"/><ellipse class="cls-4" cx="468.87" cy="374.7" rx="1.19" ry="1.22"/><ellipse class="cls-4" cx="431.54" cy="441.89" rx="1.19" ry="1.22"/><path class="cls-4" d="M449.58,423.49a1.24,1.24,0,0,1,0,1.72,1.19,1.19,0,0,1-1.69,0,1.24,1.24,0,0,1,0-1.72A1.17,1.17,0,0,1,449.58,423.49Z"/><path class="cls-4" d="M466.78,405.94a1.24,1.24,0,0,1,0,1.72,1.17,1.17,0,0,1-1.69,0,1.23,1.23,0,0,1,0-1.72A1.17,1.17,0,0,1,466.78,405.94Z"/><ellipse class="cls-4" cx="483.13" cy="389.25" rx="1.19" ry="1.22"/><ellipse class="cls-4" cx="445.8" cy="456.45" rx="1.19" ry="1.22"/><path class="cls-4" d="M463.84,438a1.23,1.23,0,0,1,0,1.72,1.17,1.17,0,0,1-1.69,0,1.24,1.24,0,0,1,0-1.72A1.17,1.17,0,0,1,463.84,438Z"/><path class="cls-4" d="M481,420.49a1.23,1.23,0,0,1,0,1.72,1.17,1.17,0,0,1-1.69,0,1.24,1.24,0,0,1,0-1.72A1.19,1.19,0,0,1,481,420.49Z"/><path class="cls-4" d="M498.24,402.94a1.26,1.26,0,0,1,0,1.73,1.19,1.19,0,0,1-1.69,0,1.26,1.26,0,0,1,0-1.73A1.19,1.19,0,0,1,498.24,402.94Z"/><ellipse class="cls-4" cx="460.06" cy="471" rx="1.19" ry="1.22"/><ellipse class="cls-4" cx="477.26" cy="453.45" rx="1.19" ry="1.22"/><ellipse class="cls-4" cx="494.46" cy="435.91" rx="1.19" ry="1.22"/><ellipse class="cls-4" cx="511.66" cy="418.36" rx="1.19" ry="1.22"/><ellipse class="cls-4" cx="530.41" cy="330.74" rx="1.19" ry="1.22"/><ellipse class="cls-4" cx="547.61" cy="313.19" rx="1.19" ry="1.22"/><ellipse class="cls-4" cx="564.81" cy="295.65" rx="1.19" ry="1.22"/><ellipse class="cls-4" cx="582.01" cy="278.1" rx="1.19" ry="1.22"/><ellipse class="cls-4" cx="544.67" cy="345.29" rx="1.19" ry="1.22"/><path class="cls-4" d="M562.72,326.89a1.24,1.24,0,0,1,0,1.72,1.19,1.19,0,0,1-1.69,0,1.23,1.23,0,0,1,0-1.72A1.17,1.17,0,0,1,562.72,326.89Z"/><path class="cls-4" d="M579.91,309.34a1.23,1.23,0,0,1,0,1.72,1.16,1.16,0,0,1-1.68,0,1.23,1.23,0,0,1,0-1.72A1.16,1.16,0,0,1,579.91,309.34Z"/><ellipse class="cls-4" cx="596.27" cy="292.65" rx="1.19" ry="1.22"/><ellipse class="cls-4" cx="558.94" cy="359.85" rx="1.19" ry="1.22"/><path class="cls-4" d="M577,341.44a1.24,1.24,0,0,1,0,1.72,1.17,1.17,0,0,1-1.69,0,1.24,1.24,0,0,1,0-1.72A1.17,1.17,0,0,1,577,341.44Z"/><path class="cls-4" d="M594.18,323.89a1.24,1.24,0,0,1,0,1.72,1.17,1.17,0,0,1-1.69,0,1.23,1.23,0,0,1,0-1.72A1.19,1.19,0,0,1,594.18,323.89Z"/><path class="cls-4" d="M611.37,306.34a1.24,1.24,0,0,1,0,1.73,1.18,1.18,0,0,1-1.68,0,1.24,1.24,0,0,1,0-1.73A1.18,1.18,0,0,1,611.37,306.34Z"/><ellipse class="cls-4" cx="573.2" cy="374.4" rx="1.19" ry="1.22"/><ellipse class="cls-4" cx="590.4" cy="356.85" rx="1.19" ry="1.22"/><ellipse class="cls-4" cx="607.6" cy="339.3" rx="1.19" ry="1.22"/><ellipse class="cls-4" cx="624.79" cy="321.76" rx="1.19" ry="1.22"/></svg>